<svg width="16.000000" height="16.000000" viewBox="0 0 16 16" fill="none" xmlns="http://www.w3.org/2000/svg" xmlns:xlink="http://www.w3.org/1999/xlink">
	<desc>
			Created with Pixso.
	</desc>
	<defs>
		<clipPath id="clip68_24">
			<rect id="file-add-fill" width="16.000000" height="16.000000" fill="white" fill-opacity="0"/>
		</clipPath>
	</defs>
	<g clip-path="url(#clip68_24)">
		<path id="path" d="M7.5 9.06L5.81 9.06C5.79 9.06 5.77 9.06 5.76 9.07C5.74 9.07 5.73 9.08 5.72 9.09C5.71 9.11 5.7 9.12 5.69 9.13C5.69 9.15 5.68 9.17 5.68 9.18L5.68 9.93C5.68 9.95 5.69 9.97 5.69 9.98C5.7 10 5.71 10.01 5.72 10.02C5.73 10.03 5.74 10.04 5.76 10.05C5.77 10.05 5.79 10.06 5.81 10.06L7.5 10.06L7.5 11.75C7.5 11.76 7.5 11.78 7.5 11.79C7.51 11.81 7.52 11.82 7.53 11.83C7.54 11.85 7.56 11.85 7.57 11.86C7.59 11.87 7.6 11.87 7.62 11.87L8.37 11.87C8.39 11.87 8.4 11.87 8.42 11.86C8.43 11.85 8.45 11.85 8.46 11.83C8.47 11.82 8.48 11.81 8.49 11.79C8.49 11.78 8.5 11.76 8.5 11.75L8.5 10.06L10.18 10.06C10.2 10.06 10.22 10.05 10.23 10.05C10.25 10.04 10.26 10.03 10.27 10.02C10.28 10.01 10.29 10 10.3 9.98C10.3 9.97 10.31 9.95 10.31 9.93L10.31 9.18C10.31 9.17 10.3 9.15 10.3 9.13C10.29 9.12 10.28 9.11 10.27 9.09C10.26 9.08 10.25 9.07 10.23 9.07C10.22 9.06 10.2 9.06 10.18 9.06L8.5 9.06L8.5 7.37C8.5 7.35 8.49 7.34 8.49 7.32C8.48 7.31 8.47 7.29 8.46 7.28C8.45 7.27 8.43 7.26 8.42 7.25C8.4 7.25 8.39 7.25 8.37 7.25L7.62 7.25C7.6 7.25 7.59 7.25 7.57 7.25C7.56 7.26 7.54 7.27 7.53 7.28C7.52 7.29 7.51 7.31 7.5 7.32C7.5 7.34 7.5 7.35 7.5 7.37L7.5 9.06ZM13.35 4.51C13.44 4.6 13.5 4.73 13.5 4.86L13.5 14.5C13.5 14.77 13.27 15 13 15L3 15C2.72 15 2.5 14.77 2.5 14.5L2.5 1.5C2.5 1.22 2.72 1 3 1L9.63 1C9.76 1 9.89 1.05 9.99 1.14L13.35 4.51ZM12.34 5.09L9.4 2.15L9.4 5.09L12.34 5.09Z" fill="#000000" fill-opacity="1.000000" fill-rule="nonzero"/>
	</g>
</svg>
