<svg width="16.000000" height="16.000000" viewBox="0 0 16 16" fill="none" xmlns="http://www.w3.org/2000/svg" xmlns:xlink="http://www.w3.org/1999/xlink">
	<desc>
			Created with Pixso.
	</desc>
	<defs>
		<clipPath id="clip103_26">
			<rect id="人工智能" width="16.000000" height="16.000000" fill="white" fill-opacity="0"/>
		</clipPath>
	</defs>
	<g clip-path="url(#clip103_26)">
		<path id="path" d="M6.39 11.73L6.93 12.79L2.66 12.79L2.66 14.93L13.33 14.93L13.33 12.79L9.06 12.79L9.6 11.73L13.33 11.73C13.36 11.73 13.4 11.73 13.43 11.73C13.47 11.74 13.5 11.74 13.54 11.75C13.57 11.76 13.6 11.76 13.64 11.77C13.67 11.78 13.7 11.8 13.74 11.81C13.77 11.82 13.8 11.84 13.83 11.85C13.86 11.87 13.89 11.89 13.92 11.91C13.95 11.93 13.98 11.95 14.01 11.97C14.03 11.99 14.06 12.02 14.08 12.04C14.11 12.07 14.13 12.09 14.15 12.12C14.18 12.15 14.2 12.17 14.22 12.2C14.23 12.23 14.25 12.26 14.27 12.29C14.29 12.32 14.3 12.35 14.31 12.39C14.33 12.42 14.34 12.45 14.35 12.49C14.36 12.52 14.37 12.55 14.37 12.59C14.38 12.62 14.39 12.66 14.39 12.69C14.39 12.73 14.4 12.76 14.4 12.79L14.4 14.93C14.4 14.96 14.39 15 14.39 15.03C14.39 15.07 14.38 15.1 14.37 15.14C14.37 15.17 14.36 15.2 14.35 15.24C14.34 15.27 14.33 15.3 14.31 15.34C14.3 15.37 14.29 15.4 14.27 15.43C14.25 15.46 14.23 15.49 14.22 15.52C14.2 15.55 14.18 15.58 14.15 15.6C14.13 15.63 14.11 15.66 14.08 15.68C14.06 15.71 14.03 15.73 14.01 15.75C13.98 15.78 13.95 15.8 13.92 15.82C13.89 15.83 13.86 15.85 13.83 15.87C13.8 15.89 13.77 15.9 13.74 15.91C13.7 15.93 13.67 15.94 13.64 15.95C13.6 15.96 13.57 15.97 13.54 15.97C13.5 15.98 13.47 15.99 13.43 15.99C13.4 15.99 13.36 16 13.33 16L2.66 16C2.63 16 2.59 15.99 2.56 15.99C2.52 15.99 2.49 15.98 2.45 15.97C2.42 15.97 2.39 15.96 2.35 15.95C2.32 15.94 2.29 15.93 2.25 15.91C2.22 15.9 2.19 15.89 2.16 15.87C2.13 15.85 2.1 15.83 2.07 15.82C2.04 15.8 2.01 15.78 1.98 15.75C1.96 15.73 1.93 15.71 1.91 15.68C1.88 15.66 1.86 15.63 1.84 15.6C1.81 15.58 1.79 15.55 1.77 15.52C1.76 15.49 1.74 15.46 1.72 15.43C1.7 15.4 1.69 15.37 1.68 15.34C1.66 15.3 1.65 15.27 1.64 15.24C1.63 15.2 1.62 15.17 1.62 15.14C1.61 15.1 1.6 15.07 1.6 15.03C1.6 15 1.6 14.96 1.6 14.93L1.6 12.79C1.6 12.76 1.6 12.73 1.6 12.69C1.6 12.66 1.61 12.62 1.62 12.59C1.62 12.55 1.63 12.52 1.64 12.49C1.65 12.45 1.66 12.42 1.68 12.39C1.69 12.35 1.7 12.32 1.72 12.29C1.74 12.26 1.76 12.23 1.77 12.2C1.79 12.17 1.81 12.15 1.84 12.12C1.86 12.09 1.88 12.07 1.91 12.04C1.93 12.02 1.96 11.99 1.98 11.97C2.01 11.95 2.04 11.93 2.07 11.91C2.1 11.89 2.13 11.87 2.16 11.85C2.19 11.84 2.22 11.82 2.25 11.81C2.29 11.8 2.32 11.78 2.35 11.77C2.39 11.76 2.42 11.76 2.45 11.75C2.49 11.74 2.52 11.74 2.56 11.73C2.59 11.73 2.63 11.73 2.66 11.73L6.39 11.73ZM4.26 1.06L11.73 1.06C11.76 1.06 11.8 1.06 11.83 1.07C11.87 1.07 11.9 1.08 11.94 1.08C11.97 1.09 12 1.1 12.04 1.11C12.07 1.12 12.1 1.13 12.14 1.14C12.17 1.16 12.2 1.17 12.23 1.19C12.26 1.2 12.29 1.22 12.32 1.24C12.35 1.26 12.38 1.28 12.41 1.3C12.43 1.33 12.46 1.35 12.48 1.37C12.51 1.4 12.53 1.42 12.55 1.45C12.58 1.48 12.6 1.51 12.62 1.54C12.63 1.56 12.65 1.59 12.67 1.63C12.69 1.66 12.7 1.69 12.71 1.72C12.73 1.75 12.74 1.79 12.75 1.82C12.76 1.85 12.77 1.89 12.77 1.92C12.78 1.95 12.79 1.99 12.79 2.02C12.79 2.06 12.8 2.09 12.8 2.13L12.8 9.6C12.8 9.63 12.79 9.66 12.79 9.7C12.79 9.73 12.78 9.77 12.77 9.8C12.77 9.84 12.76 9.87 12.75 9.9C12.74 9.94 12.73 9.97 12.71 10C12.7 10.04 12.69 10.07 12.67 10.1C12.65 10.13 12.63 10.16 12.62 10.19C12.6 10.22 12.58 10.24 12.55 10.27C12.53 10.3 12.51 10.32 12.48 10.35C12.46 10.37 12.43 10.4 12.41 10.42C12.38 10.44 12.35 10.46 12.32 10.48C12.29 10.5 12.26 10.52 12.23 10.54C12.2 10.55 12.17 10.57 12.14 10.58C12.1 10.59 12.07 10.61 12.04 10.62C12 10.63 11.97 10.63 11.94 10.64C11.9 10.65 11.87 10.65 11.83 10.66C11.8 10.66 11.76 10.66 11.73 10.66L4.26 10.66C4.23 10.66 4.19 10.66 4.16 10.66C4.12 10.65 4.09 10.65 4.05 10.64C4.02 10.63 3.99 10.63 3.95 10.62C3.92 10.61 3.89 10.59 3.85 10.58C3.82 10.57 3.79 10.55 3.76 10.54C3.73 10.52 3.7 10.5 3.67 10.48C3.64 10.46 3.61 10.44 3.59 10.42C3.56 10.4 3.53 10.37 3.51 10.35C3.48 10.32 3.46 10.3 3.44 10.27C3.41 10.24 3.39 10.22 3.37 10.19C3.36 10.16 3.34 10.13 3.32 10.1C3.3 10.07 3.29 10.04 3.28 10C3.26 9.97 3.25 9.94 3.24 9.9C3.23 9.87 3.22 9.84 3.22 9.8C3.21 9.77 3.2 9.73 3.2 9.7C3.2 9.66 3.2 9.63 3.2 9.6L3.2 2.13C3.2 2.09 3.2 2.06 3.2 2.02C3.2 1.99 3.21 1.95 3.22 1.92C3.22 1.89 3.23 1.85 3.24 1.82C3.25 1.79 3.26 1.75 3.28 1.72C3.29 1.69 3.3 1.66 3.32 1.63C3.34 1.59 3.36 1.56 3.37 1.54C3.39 1.51 3.41 1.48 3.44 1.45C3.46 1.42 3.48 1.4 3.51 1.37C3.53 1.35 3.56 1.33 3.59 1.3C3.61 1.28 3.64 1.26 3.67 1.24C3.7 1.22 3.73 1.2 3.76 1.19C3.79 1.17 3.82 1.16 3.85 1.14C3.89 1.13 3.92 1.12 3.95 1.11C3.99 1.1 4.02 1.09 4.05 1.08C4.09 1.08 4.12 1.07 4.16 1.07C4.19 1.06 4.23 1.06 4.26 1.06ZM4.26 2.13L4.26 9.6L11.73 9.6L11.73 2.13L4.26 2.13ZM13.86 3.73C13.9 3.73 13.93 3.73 13.97 3.74C14 3.75 14.03 3.76 14.07 3.77C14.1 3.78 14.13 3.8 14.16 3.82C14.19 3.84 14.21 3.86 14.24 3.88C14.26 3.91 14.29 3.94 14.31 3.97C14.32 3.99 14.34 4.03 14.35 4.06C14.37 4.09 14.38 4.12 14.38 4.16C14.39 4.19 14.4 4.23 14.4 4.26L14.4 7.46C14.4 7.5 14.39 7.53 14.38 7.57C14.38 7.6 14.37 7.63 14.35 7.67C14.34 7.7 14.32 7.73 14.31 7.76C14.29 7.79 14.26 7.81 14.24 7.84C14.21 7.86 14.19 7.89 14.16 7.91C14.13 7.92 14.1 7.94 14.07 7.95C14.03 7.97 14 7.98 13.97 7.98C13.93 7.99 13.9 8 13.86 8C13.83 8 13.79 7.99 13.76 7.98C13.72 7.98 13.69 7.97 13.66 7.95C13.63 7.94 13.59 7.92 13.57 7.91C13.54 7.89 13.51 7.86 13.48 7.84C13.46 7.81 13.44 7.79 13.42 7.76C13.4 7.73 13.38 7.7 13.37 7.67C13.36 7.63 13.35 7.6 13.34 7.57C13.33 7.53 13.33 7.5 13.33 7.46L13.33 4.26C13.33 4.23 13.33 4.19 13.34 4.16C13.35 4.12 13.36 4.09 13.37 4.06C13.38 4.03 13.4 3.99 13.42 3.97C13.44 3.94 13.46 3.91 13.48 3.88C13.51 3.86 13.54 3.84 13.57 3.82C13.59 3.8 13.63 3.78 13.66 3.77C13.69 3.76 13.72 3.75 13.76 3.74C13.79 3.73 13.83 3.73 13.86 3.73ZM2.13 3.73C2.16 3.73 2.2 3.73 2.23 3.74C2.27 3.75 2.3 3.76 2.33 3.77C2.36 3.78 2.4 3.8 2.42 3.82C2.45 3.84 2.48 3.86 2.51 3.88C2.53 3.91 2.55 3.94 2.57 3.97C2.59 3.99 2.61 4.03 2.62 4.06C2.63 4.09 2.64 4.12 2.65 4.16C2.66 4.19 2.66 4.23 2.66 4.26L2.66 7.46C2.66 7.5 2.66 7.53 2.65 7.57C2.64 7.6 2.63 7.63 2.62 7.67C2.61 7.7 2.59 7.73 2.57 7.76C2.55 7.79 2.53 7.81 2.51 7.84C2.48 7.86 2.45 7.89 2.42 7.91C2.4 7.92 2.36 7.94 2.33 7.95C2.3 7.97 2.27 7.98 2.23 7.98C2.2 7.99 2.16 8 2.13 8C2.09 8 2.06 7.99 2.02 7.98C1.99 7.98 1.96 7.97 1.92 7.95C1.89 7.94 1.86 7.92 1.83 7.91C1.8 7.89 1.78 7.86 1.75 7.84C1.73 7.81 1.7 7.79 1.68 7.76C1.67 7.73 1.65 7.7 1.64 7.67C1.62 7.63 1.61 7.6 1.61 7.57C1.6 7.53 1.6 7.5 1.6 7.46L1.6 4.26C1.6 4.23 1.6 4.19 1.61 4.16C1.61 4.12 1.62 4.09 1.64 4.06C1.65 4.03 1.67 3.99 1.68 3.97C1.7 3.94 1.73 3.91 1.75 3.88C1.78 3.86 1.8 3.84 1.83 3.82C1.86 3.8 1.89 3.78 1.92 3.77C1.96 3.76 1.99 3.75 2.02 3.74C2.06 3.73 2.09 3.73 2.13 3.73ZM15.46 4.79C15.5 4.79 15.53 4.8 15.57 4.81C15.6 4.81 15.63 4.82 15.67 4.84C15.7 4.85 15.73 4.87 15.76 4.88C15.79 4.9 15.81 4.93 15.84 4.95C15.86 4.98 15.89 5 15.91 5.03C15.92 5.06 15.94 5.09 15.95 5.12C15.97 5.16 15.98 5.19 15.98 5.22C15.99 5.26 16 5.29 16 5.33L16 6.39C16 6.43 15.99 6.46 15.98 6.5C15.98 6.53 15.97 6.57 15.95 6.6C15.94 6.63 15.92 6.66 15.91 6.69C15.89 6.72 15.86 6.75 15.84 6.77C15.81 6.8 15.79 6.82 15.76 6.84C15.73 6.86 15.7 6.87 15.67 6.89C15.63 6.9 15.6 6.91 15.57 6.92C15.53 6.92 15.5 6.93 15.46 6.93C15.43 6.93 15.39 6.92 15.36 6.92C15.32 6.91 15.29 6.9 15.26 6.89C15.23 6.87 15.19 6.86 15.17 6.84C15.14 6.82 15.11 6.8 15.08 6.77C15.06 6.75 15.04 6.72 15.02 6.69C15 6.66 14.98 6.63 14.97 6.6C14.96 6.57 14.95 6.53 14.94 6.5C14.93 6.46 14.93 6.43 14.93 6.39L14.93 5.33C14.93 5.29 14.93 5.26 14.94 5.22C14.95 5.19 14.96 5.16 14.97 5.12C14.98 5.09 15 5.06 15.02 5.03C15.04 5 15.06 4.98 15.08 4.95C15.11 4.93 15.14 4.9 15.17 4.88C15.19 4.87 15.23 4.85 15.26 4.84C15.29 4.82 15.32 4.81 15.36 4.81C15.39 4.8 15.43 4.79 15.46 4.79ZM0.53 4.79C0.56 4.79 0.6 4.8 0.63 4.81C0.67 4.81 0.7 4.82 0.73 4.84C0.76 4.85 0.8 4.87 0.82 4.88C0.85 4.9 0.88 4.93 0.91 4.95C0.93 4.98 0.95 5 0.97 5.03C0.99 5.06 1.01 5.09 1.02 5.12C1.03 5.16 1.04 5.19 1.05 5.22C1.06 5.26 1.06 5.29 1.06 5.33L1.06 6.39C1.06 6.43 1.06 6.46 1.05 6.5C1.04 6.53 1.03 6.57 1.02 6.6C1.01 6.63 0.99 6.66 0.97 6.69C0.95 6.72 0.93 6.75 0.91 6.77C0.88 6.8 0.85 6.82 0.82 6.84C0.8 6.86 0.76 6.87 0.73 6.89C0.7 6.9 0.67 6.91 0.63 6.92C0.6 6.92 0.56 6.93 0.53 6.93C0.49 6.93 0.46 6.92 0.42 6.92C0.39 6.91 0.36 6.9 0.32 6.89C0.29 6.87 0.26 6.86 0.23 6.84C0.2 6.82 0.18 6.8 0.15 6.77C0.13 6.75 0.1 6.72 0.08 6.69C0.07 6.66 0.05 6.63 0.04 6.6C0.02 6.57 0.01 6.53 0.01 6.5C0 6.46 0 6.43 0 6.39L0 5.33C0 5.29 0 5.26 0.01 5.22C0.01 5.19 0.02 5.16 0.04 5.12C0.05 5.09 0.07 5.06 0.08 5.03C0.1 5 0.13 4.98 0.15 4.95C0.18 4.93 0.2 4.9 0.23 4.88C0.26 4.87 0.29 4.85 0.32 4.84C0.36 4.82 0.39 4.81 0.42 4.81C0.46 4.8 0.49 4.79 0.53 4.79ZM5.86 6.39C5.91 6.39 5.97 6.39 6.02 6.38C6.07 6.37 6.12 6.35 6.17 6.33C6.22 6.31 6.26 6.29 6.31 6.26C6.35 6.23 6.39 6.2 6.43 6.16C6.46 6.12 6.5 6.08 6.53 6.04C6.56 6 6.58 5.95 6.6 5.9C6.62 5.85 6.64 5.8 6.65 5.75C6.66 5.7 6.66 5.65 6.66 5.6C6.66 5.54 6.66 5.49 6.65 5.44C6.64 5.39 6.62 5.34 6.6 5.29C6.58 5.24 6.56 5.19 6.53 5.15C6.5 5.11 6.46 5.07 6.43 5.03C6.39 4.99 6.35 4.96 6.31 4.93C6.26 4.9 6.22 4.88 6.17 4.86C6.12 4.84 6.07 4.82 6.02 4.81C5.97 4.8 5.91 4.79 5.86 4.79C5.81 4.79 5.76 4.8 5.71 4.81C5.65 4.82 5.6 4.84 5.56 4.86C5.51 4.88 5.46 4.9 5.42 4.93C5.37 4.96 5.33 4.99 5.3 5.03C5.26 5.07 5.23 5.11 5.2 5.15C5.17 5.19 5.14 5.24 5.12 5.29C5.1 5.34 5.09 5.39 5.08 5.44C5.07 5.49 5.06 5.54 5.06 5.6C5.06 5.65 5.07 5.7 5.08 5.75C5.09 5.8 5.1 5.85 5.12 5.9C5.14 5.95 5.17 6 5.2 6.04C5.23 6.08 5.26 6.12 5.3 6.16C5.33 6.2 5.37 6.23 5.42 6.26C5.46 6.29 5.51 6.31 5.56 6.33C5.6 6.35 5.65 6.37 5.71 6.38C5.76 6.39 5.81 6.39 5.86 6.39ZM10.13 6.39C10.18 6.39 10.23 6.39 10.28 6.38C10.34 6.37 10.39 6.35 10.43 6.33C10.48 6.31 10.53 6.29 10.57 6.26C10.62 6.23 10.66 6.2 10.69 6.16C10.73 6.12 10.76 6.08 10.79 6.04C10.82 6 10.85 5.95 10.87 5.9C10.89 5.85 10.9 5.8 10.91 5.75C10.92 5.7 10.93 5.65 10.93 5.6C10.93 5.54 10.92 5.49 10.91 5.44C10.9 5.39 10.89 5.34 10.87 5.29C10.85 5.24 10.82 5.19 10.79 5.15C10.76 5.11 10.73 5.07 10.69 5.03C10.66 4.99 10.62 4.96 10.57 4.93C10.53 4.9 10.48 4.88 10.43 4.86C10.39 4.84 10.34 4.82 10.28 4.81C10.23 4.8 10.18 4.79 10.13 4.79C10.08 4.79 10.02 4.8 9.97 4.81C9.92 4.82 9.87 4.84 9.82 4.86C9.77 4.88 9.73 4.9 9.68 4.93C9.64 4.96 9.6 4.99 9.56 5.03C9.53 5.07 9.49 5.11 9.46 5.15C9.43 5.19 9.41 5.24 9.39 5.29C9.37 5.34 9.35 5.39 9.34 5.44C9.33 5.49 9.33 5.54 9.33 5.6C9.33 5.65 9.33 5.7 9.34 5.75C9.35 5.8 9.37 5.85 9.39 5.9C9.41 5.95 9.43 6 9.46 6.04C9.49 6.08 9.53 6.12 9.56 6.16C9.6 6.2 9.64 6.23 9.68 6.26C9.73 6.29 9.77 6.31 9.82 6.33C9.87 6.35 9.92 6.37 9.97 6.38C10.02 6.39 10.08 6.39 10.13 6.39ZM8 0C8.03 0 8.06 0 8.1 0.01C8.13 0.01 8.17 0.02 8.2 0.04C8.23 0.05 8.26 0.07 8.29 0.08C8.32 0.1 8.35 0.13 8.37 0.15C8.4 0.18 8.42 0.2 8.44 0.23C8.46 0.26 8.47 0.29 8.49 0.32C8.5 0.36 8.51 0.39 8.52 0.42C8.52 0.46 8.53 0.49 8.53 0.53L8.53 1.6C8.53 1.63 8.52 1.66 8.52 1.7C8.51 1.73 8.5 1.77 8.49 1.8C8.47 1.83 8.46 1.86 8.44 1.89C8.42 1.92 8.4 1.95 8.37 1.97C8.35 2 8.32 2.02 8.29 2.04C8.26 2.06 8.23 2.07 8.2 2.09C8.17 2.1 8.13 2.11 8.1 2.12C8.06 2.12 8.03 2.13 8 2.13C7.96 2.13 7.93 2.12 7.89 2.12C7.86 2.11 7.82 2.1 7.79 2.09C7.76 2.07 7.73 2.06 7.7 2.04C7.67 2.02 7.64 2 7.62 1.97C7.59 1.95 7.57 1.92 7.55 1.89C7.53 1.86 7.52 1.83 7.5 1.8C7.49 1.77 7.48 1.73 7.47 1.7C7.47 1.66 7.46 1.63 7.46 1.6L7.46 0.53C7.46 0.49 7.47 0.46 7.47 0.42C7.48 0.39 7.49 0.36 7.5 0.32C7.52 0.29 7.53 0.26 7.55 0.23C7.57 0.2 7.59 0.18 7.62 0.15C7.64 0.13 7.67 0.1 7.7 0.08C7.73 0.07 7.76 0.05 7.79 0.04C7.82 0.02 7.86 0.01 7.89 0.01C7.93 0 7.96 0 8 0ZM6.93 9.6C6.96 9.6 7 9.6 7.03 9.61C7.07 9.61 7.1 9.62 7.13 9.64C7.16 9.65 7.2 9.67 7.22 9.68C7.25 9.7 7.28 9.73 7.31 9.75C7.33 9.78 7.35 9.8 7.37 9.83C7.39 9.86 7.41 9.89 7.42 9.92C7.43 9.96 7.44 9.99 7.45 10.02C7.46 10.06 7.46 10.09 7.46 10.13L7.46 12.26C7.46 12.3 7.46 12.33 7.45 12.37C7.44 12.4 7.43 12.43 7.42 12.47C7.41 12.5 7.39 12.53 7.37 12.56C7.35 12.59 7.33 12.61 7.31 12.64C7.28 12.66 7.25 12.69 7.22 12.71C7.2 12.72 7.16 12.74 7.13 12.75C7.1 12.77 7.07 12.78 7.03 12.78C7 12.79 6.96 12.79 6.93 12.79C6.89 12.79 6.86 12.79 6.82 12.78C6.79 12.78 6.76 12.77 6.72 12.75C6.69 12.74 6.66 12.72 6.63 12.71C6.6 12.69 6.58 12.66 6.55 12.64C6.53 12.61 6.5 12.59 6.48 12.56C6.47 12.53 6.45 12.5 6.44 12.47C6.42 12.43 6.41 12.4 6.41 12.37C6.4 12.33 6.39 12.3 6.39 12.26L6.39 10.13C6.39 10.09 6.4 10.06 6.41 10.02C6.41 9.99 6.42 9.96 6.44 9.92C6.45 9.89 6.47 9.86 6.48 9.83C6.5 9.8 6.53 9.78 6.55 9.75C6.58 9.73 6.6 9.7 6.63 9.68C6.66 9.67 6.69 9.65 6.72 9.64C6.76 9.62 6.79 9.61 6.82 9.61C6.86 9.6 6.89 9.6 6.93 9.6ZM9.06 9.6C9.1 9.6 9.13 9.6 9.17 9.61C9.2 9.61 9.23 9.62 9.27 9.64C9.3 9.65 9.33 9.67 9.36 9.68C9.39 9.7 9.41 9.73 9.44 9.75C9.46 9.78 9.49 9.8 9.51 9.83C9.52 9.86 9.54 9.89 9.55 9.92C9.57 9.96 9.58 9.99 9.58 10.02C9.59 10.06 9.6 10.09 9.6 10.13L9.6 12.26C9.6 12.3 9.59 12.33 9.58 12.37C9.58 12.4 9.57 12.43 9.55 12.47C9.54 12.5 9.52 12.53 9.51 12.56C9.49 12.59 9.46 12.61 9.44 12.64C9.41 12.66 9.39 12.69 9.36 12.71C9.33 12.72 9.3 12.74 9.27 12.75C9.23 12.77 9.2 12.78 9.17 12.78C9.13 12.79 9.1 12.79 9.06 12.79C9.03 12.79 8.99 12.79 8.96 12.78C8.92 12.78 8.89 12.77 8.86 12.75C8.83 12.74 8.79 12.72 8.77 12.71C8.74 12.69 8.71 12.66 8.68 12.64C8.66 12.61 8.64 12.59 8.62 12.56C8.6 12.53 8.58 12.5 8.57 12.47C8.56 12.43 8.55 12.4 8.54 12.37C8.53 12.33 8.53 12.3 8.53 12.26L8.53 10.13C8.53 10.09 8.53 10.06 8.54 10.02C8.55 9.99 8.56 9.96 8.57 9.92C8.58 9.89 8.6 9.86 8.62 9.83C8.64 9.8 8.66 9.78 8.68 9.75C8.71 9.73 8.74 9.7 8.77 9.68C8.79 9.67 8.83 9.65 8.86 9.64C8.89 9.62 8.92 9.61 8.96 9.61C8.99 9.6 9.03 9.6 9.06 9.6Z" fill="currentColor" fill-opacity="1.000000" fill-rule="nonzero"/>
	</g>
</svg>
