<svg width="16.000000" height="16.000000" viewBox="0 0 16 16" fill="none" xmlns="http://www.w3.org/2000/svg" xmlns:xlink="http://www.w3.org/1999/xlink">
	<desc>
			Created with Pixso.
	</desc>
	<defs>
		<clipPath id="clip81_1">
			<rect id="algorithm" width="16.000000" height="16.000000" fill="white" fill-opacity="0"/>
		</clipPath>
	</defs>
	<g clip-path="url(#clip81_1)">
		<path id="path" d="M13.26 15.4L10.73 13.92L10.73 10.96L13.26 9.47L15.79 10.96L15.79 13.92L13.26 15.4ZM14.78 11.55L13.26 10.66L11.74 11.55L11.74 13.33L13.26 14.21L14.78 13.33L14.78 11.55ZM13.84 9.22C13.85 9.09 13.85 8.95 13.85 8.82C13.85 8.69 13.84 8.55 13.83 8.42C13.82 8.29 13.81 8.16 13.79 8.02C13.77 7.89 13.74 7.76 13.72 7.63C13.69 7.5 13.66 7.37 13.62 7.25C13.58 7.12 13.54 6.99 13.5 6.87C13.45 6.74 13.4 6.62 13.35 6.49C13.3 6.37 13.24 6.25 13.18 6.13C13.12 6.02 13.05 5.9 12.98 5.79C12.92 5.67 12.84 5.56 12.77 5.45C12.69 5.34 12.61 5.24 12.53 5.13C12.44 5.03 12.36 4.93 12.27 4.83C12.17 4.73 12.08 4.64 11.98 4.55C11.89 4.46 11.79 4.37 11.69 4.28C11.58 4.2 11.48 4.12 11.37 4.04C11.26 3.96 11.15 3.89 11.04 3.82L11.04 2.47C11.2 2.55 11.37 2.64 11.53 2.74C11.69 2.83 11.85 2.93 12 3.04C12.15 3.15 12.3 3.26 12.44 3.38C12.59 3.5 12.72 3.62 12.86 3.75C12.99 3.88 13.12 4.02 13.24 4.16C13.37 4.3 13.48 4.44 13.6 4.59C13.71 4.74 13.81 4.9 13.91 5.05C14.01 5.21 14.11 5.37 14.19 5.54C14.28 5.7 14.36 5.87 14.44 6.04C14.51 6.21 14.58 6.39 14.64 6.56C14.7 6.74 14.75 6.92 14.8 7.1C14.84 7.28 14.88 7.46 14.92 7.64C14.95 7.83 14.97 8.01 14.99 8.2C15.01 8.38 15.02 8.57 15.02 8.76C15.02 8.94 15.02 9.13 15.01 9.31C15 9.5 14.98 9.69 14.95 9.87L13.84 9.22ZM5.46 4.44L5.46 1.47L7.99 0L10.53 1.47L10.53 4.44L7.99 5.92L5.46 4.44ZM9.51 2.07L7.99 1.18L6.47 2.07L6.47 3.85L7.99 4.73L9.51 3.85L9.51 2.07ZM5.91 6.44L5.91 7.15L6.65 7.15C6.68 7.15 6.7 7.15 6.73 7.16C6.76 7.16 6.79 7.17 6.82 7.18C6.85 7.19 6.88 7.2 6.9 7.22C6.93 7.23 6.95 7.25 6.97 7.27C6.99 7.29 7.01 7.32 7.03 7.34C7.05 7.37 7.06 7.39 7.07 7.42C7.08 7.45 7.09 7.48 7.1 7.51C7.11 7.54 7.11 7.56 7.11 7.6C7.11 7.62 7.11 7.65 7.1 7.68C7.09 7.71 7.08 7.74 7.07 7.77C7.06 7.8 7.05 7.82 7.03 7.85C7.01 7.87 6.99 7.89 6.97 7.92C6.95 7.94 6.93 7.95 6.9 7.97C6.88 7.99 6.85 8 6.82 8.01C6.79 8.02 6.76 8.03 6.73 8.03C6.7 8.04 6.68 8.04 6.65 8.04L5.91 8.04L5.91 8.75C5.91 8.78 5.91 8.81 5.9 8.84C5.89 8.87 5.89 8.9 5.87 8.93C5.86 8.95 5.85 8.98 5.83 9.01C5.81 9.03 5.8 9.05 5.77 9.08C5.75 9.1 5.73 9.12 5.7 9.13C5.68 9.15 5.65 9.16 5.63 9.18C5.6 9.19 5.57 9.2 5.54 9.2C5.51 9.21 5.48 9.21 5.45 9.21C5.42 9.21 5.39 9.21 5.36 9.2C5.33 9.2 5.3 9.19 5.27 9.18C5.25 9.16 5.22 9.15 5.19 9.13C5.17 9.12 5.15 9.1 5.12 9.08C5.1 9.05 5.08 9.03 5.07 9.01C5.05 8.98 5.04 8.95 5.02 8.93C5.01 8.9 5 8.87 5 8.84C4.99 8.81 4.99 8.78 4.99 8.75L4.99 8.04L4.25 8.04C4.22 8.04 4.2 8.04 4.17 8.03C4.14 8.03 4.11 8.02 4.08 8.01C4.05 8 4.02 7.99 4 7.97C3.97 7.95 3.95 7.94 3.93 7.92C3.91 7.89 3.89 7.87 3.87 7.85C3.85 7.82 3.84 7.8 3.83 7.77C3.82 7.74 3.81 7.71 3.8 7.68C3.79 7.65 3.79 7.62 3.79 7.6C3.79 7.56 3.79 7.54 3.8 7.51C3.81 7.48 3.82 7.45 3.83 7.42C3.84 7.39 3.85 7.37 3.87 7.34C3.89 7.32 3.91 7.29 3.93 7.27C3.95 7.25 3.97 7.23 4 7.22C4.02 7.2 4.05 7.19 4.08 7.18C4.11 7.17 4.14 7.16 4.17 7.16C4.2 7.15 4.22 7.15 4.25 7.15L4.99 7.15L4.99 6.44C4.99 6.41 5 6.38 5 6.35C5.01 6.32 5.02 6.3 5.03 6.27C5.04 6.24 5.06 6.22 5.07 6.19C5.09 6.17 5.11 6.15 5.13 6.13C5.15 6.11 5.18 6.09 5.2 6.07C5.23 6.06 5.25 6.04 5.28 6.03C5.31 6.02 5.33 6.01 5.36 6.01C5.39 6 5.42 6 5.45 6C5.48 6 5.51 6 5.54 6.01C5.57 6.01 5.59 6.02 5.62 6.03C5.65 6.04 5.68 6.06 5.7 6.07C5.72 6.09 5.75 6.11 5.77 6.13C5.79 6.15 5.81 6.17 5.83 6.19C5.84 6.22 5.86 6.24 5.87 6.27C5.88 6.3 5.89 6.32 5.9 6.35C5.9 6.38 5.91 6.41 5.91 6.44ZM2.15 9.22L1.04 9.87C1.01 9.69 1 9.5 0.98 9.31C0.97 9.13 0.97 8.94 0.97 8.76C0.97 8.57 0.98 8.38 1 8.2C1.02 8.01 1.04 7.83 1.08 7.64C1.11 7.46 1.15 7.28 1.19 7.1C1.24 6.92 1.29 6.74 1.35 6.56C1.41 6.39 1.48 6.21 1.56 6.04C1.63 5.87 1.71 5.7 1.8 5.54C1.88 5.37 1.98 5.21 2.08 5.05C2.18 4.9 2.28 4.74 2.4 4.59C2.51 4.44 2.62 4.3 2.75 4.16C2.87 4.02 3 3.88 3.13 3.75C3.27 3.62 3.41 3.5 3.55 3.38C3.69 3.26 3.84 3.15 3.99 3.04C4.15 2.93 4.3 2.83 4.46 2.74C4.62 2.64 4.79 2.55 4.95 2.47L4.95 3.82C4.84 3.89 4.73 3.96 4.62 4.04C4.51 4.12 4.41 4.2 4.31 4.28C4.2 4.37 4.1 4.46 4.01 4.55C3.91 4.64 3.82 4.73 3.73 4.83C3.64 4.93 3.55 5.03 3.47 5.13C3.38 5.24 3.3 5.34 3.23 5.45C3.15 5.56 3.08 5.67 3.01 5.79C2.94 5.9 2.87 6.02 2.81 6.13C2.75 6.25 2.69 6.37 2.64 6.49C2.59 6.62 2.54 6.74 2.49 6.87C2.45 6.99 2.41 7.12 2.37 7.25C2.33 7.37 2.3 7.5 2.28 7.63C2.25 7.76 2.22 7.89 2.21 8.02C2.19 8.16 2.17 8.29 2.16 8.42C2.15 8.55 2.15 8.69 2.14 8.82C2.14 8.95 2.15 9.09 2.15 9.22L2.15 9.22ZM5.26 10.96L5.26 13.92L2.73 15.4L0.19 13.92L0.19 10.96L2.73 9.47L5.26 10.96ZM1.21 13.33L2.73 14.21L4.25 13.33L4.25 11.55L2.73 10.66L1.21 11.55L1.21 13.33ZM9.51 7.15L11.91 7.15C11.94 7.15 11.97 7.15 12 7.16C12.02 7.16 12.05 7.17 12.08 7.18C12.11 7.19 12.14 7.2 12.16 7.22C12.19 7.23 12.21 7.25 12.23 7.27C12.25 7.29 12.27 7.32 12.29 7.34C12.31 7.37 12.32 7.39 12.33 7.42C12.35 7.45 12.35 7.48 12.36 7.51C12.37 7.54 12.37 7.56 12.37 7.6C12.37 7.62 12.37 7.65 12.36 7.68C12.35 7.71 12.35 7.74 12.33 7.77C12.32 7.8 12.31 7.82 12.29 7.85C12.27 7.87 12.25 7.89 12.23 7.92C12.21 7.94 12.19 7.95 12.16 7.97C12.14 7.99 12.11 8 12.08 8.01C12.05 8.02 12.02 8.03 12 8.03C11.97 8.04 11.94 8.04 11.91 8.04L9.51 8.04C9.48 8.04 9.46 8.04 9.43 8.03C9.4 8.03 9.37 8.02 9.34 8.01C9.31 8 9.28 7.99 9.26 7.97C9.23 7.95 9.21 7.94 9.19 7.92C9.17 7.89 9.15 7.87 9.13 7.85C9.11 7.82 9.1 7.8 9.09 7.77C9.08 7.74 9.07 7.71 9.06 7.68C9.05 7.65 9.05 7.62 9.05 7.6C9.05 7.56 9.05 7.54 9.06 7.51C9.07 7.48 9.08 7.45 9.09 7.42C9.1 7.39 9.11 7.37 9.13 7.34C9.15 7.32 9.17 7.29 9.19 7.27C9.21 7.25 9.23 7.23 9.26 7.22C9.28 7.2 9.31 7.19 9.34 7.18C9.37 7.17 9.4 7.16 9.43 7.16C9.46 7.15 9.48 7.15 9.51 7.15ZM6.72 10.68C6.74 10.66 6.77 10.64 6.79 10.63C6.81 10.61 6.84 10.6 6.87 10.59C6.89 10.58 6.92 10.57 6.95 10.56C6.98 10.56 7.01 10.55 7.03 10.55C7.06 10.55 7.09 10.55 7.12 10.56C7.15 10.56 7.18 10.57 7.2 10.58C7.23 10.59 7.26 10.6 7.28 10.61C7.31 10.63 7.33 10.64 7.35 10.66L7.98 11.27L8.6 10.66C8.63 10.64 8.65 10.62 8.68 10.61C8.7 10.59 8.73 10.58 8.76 10.57C8.78 10.56 8.81 10.55 8.84 10.54C8.87 10.54 8.9 10.53 8.93 10.53C8.96 10.53 8.99 10.54 9.02 10.54C9.05 10.55 9.08 10.56 9.1 10.57C9.13 10.58 9.16 10.59 9.18 10.61C9.21 10.62 9.23 10.64 9.25 10.66C9.28 10.68 9.3 10.71 9.31 10.73C9.33 10.75 9.34 10.78 9.35 10.81C9.37 10.83 9.37 10.86 9.38 10.89C9.39 10.92 9.39 10.95 9.39 10.98C9.39 11.01 9.39 11.04 9.38 11.06C9.37 11.09 9.37 11.12 9.35 11.15C9.34 11.17 9.33 11.2 9.31 11.22C9.3 11.25 9.28 11.27 9.25 11.29L8.63 11.89L9.26 12.5C9.3 12.54 9.33 12.59 9.36 12.64C9.38 12.7 9.39 12.76 9.39 12.81C9.39 12.87 9.38 12.93 9.36 12.99C9.33 13.04 9.3 13.09 9.26 13.13C9.23 13.15 9.21 13.17 9.18 13.19C9.16 13.2 9.13 13.21 9.11 13.23C9.08 13.24 9.05 13.25 9.02 13.25C8.99 13.26 8.96 13.26 8.93 13.26C8.9 13.26 8.87 13.26 8.84 13.25C8.81 13.25 8.78 13.24 8.76 13.23C8.73 13.21 8.7 13.2 8.68 13.19C8.65 13.17 8.63 13.15 8.6 13.13L7.98 12.52L7.35 13.13C7.33 13.15 7.31 13.17 7.28 13.19C7.26 13.2 7.23 13.22 7.2 13.23C7.17 13.24 7.15 13.25 7.12 13.25C7.09 13.26 7.06 13.26 7.03 13.26C7 13.26 6.97 13.26 6.94 13.25C6.91 13.25 6.88 13.24 6.85 13.23C6.83 13.22 6.8 13.2 6.77 13.19C6.75 13.17 6.72 13.15 6.7 13.13C6.68 13.11 6.66 13.09 6.65 13.06C6.63 13.04 6.61 13.01 6.6 12.99C6.59 12.96 6.58 12.93 6.58 12.9C6.57 12.88 6.57 12.85 6.57 12.82C6.57 12.79 6.57 12.76 6.58 12.73C6.58 12.7 6.59 12.67 6.6 12.65C6.61 12.62 6.63 12.59 6.65 12.57C6.66 12.55 6.68 12.52 6.7 12.5L7.33 11.89L6.7 11.29C6.68 11.27 6.67 11.25 6.65 11.22C6.64 11.2 6.62 11.17 6.61 11.15C6.6 11.12 6.6 11.09 6.59 11.07C6.59 11.04 6.59 11.01 6.59 10.98C6.59 10.95 6.59 10.92 6.6 10.9C6.6 10.87 6.61 10.84 6.62 10.82C6.64 10.79 6.65 10.77 6.67 10.74C6.68 10.72 6.7 10.7 6.72 10.68ZM7.99 14.81C8.4 14.81 8.81 14.77 9.21 14.68C9.61 14.6 9.99 14.47 10.37 14.3L11.57 15.01C11.44 15.09 11.3 15.16 11.16 15.23C11.02 15.31 10.88 15.37 10.73 15.43C10.59 15.5 10.44 15.55 10.3 15.6C10.15 15.66 10 15.7 9.85 15.74C9.7 15.79 9.55 15.82 9.39 15.85C9.24 15.88 9.09 15.91 8.93 15.93C8.78 15.95 8.62 15.97 8.46 15.98C8.31 15.99 8.15 16 7.99 16C7.84 16 7.68 15.99 7.53 15.98C7.37 15.97 7.21 15.95 7.06 15.93C6.9 15.91 6.75 15.88 6.6 15.85C6.44 15.82 6.29 15.79 6.14 15.74C5.99 15.7 5.84 15.66 5.69 15.6C5.55 15.55 5.4 15.5 5.26 15.43C5.11 15.37 4.97 15.31 4.83 15.23C4.69 15.16 4.55 15.09 4.42 15.01L5.62 14.3C6 14.47 6.38 14.6 6.78 14.68C7.18 14.77 7.59 14.81 7.99 14.81Z" fill="currentColor" fill-opacity="1.000000" fill-rule="nonzero"/>
	</g>
</svg>
