<svg width="16.000000" height="16.000000" viewBox="0 0 16 16" fill="none" xmlns="http://www.w3.org/2000/svg" xmlns:xlink="http://www.w3.org/1999/xlink">
	<desc>
			Created with Pixso.
	</desc>
	<defs>
		<clipPath id="clip104_1">
			<rect id="bim_动画" width="16.000000" height="16.000000" fill="white" fill-opacity="0"/>
		</clipPath>
	</defs>
	<g clip-path="url(#clip104_1)">
		<path id="path" d="M7.5 1.5L9.5 5.77L14 6.46L10.75 9.79L11.51 14.49L7.5 12.27L3.48 14.5L4.25 9.79L1 6.46L5.49 5.77L7.5 1.5ZM14.5 12L14.5 13L12 13L12 12L14.5 12ZM7.5 3.85L6.17 6.68L3.07 7.16L5.31 9.45L4.79 12.62L7.5 11.13L10.19 12.62L9.68 9.45L11.92 7.16L8.82 6.68L7.5 3.85ZM14.5 9L14.5 10L12 10L12 9L14.5 9ZM14.5 4L14.5 5L12 5L12 4L14.5 4Z" fill="currentColor" fill-opacity="1.000000" fill-rule="nonzero"/>
	</g>
</svg>
