<svg width="16.000000" height="16.000000" viewBox="0 0 16 16" fill="none" xmlns="http://www.w3.org/2000/svg" xmlns:xlink="http://www.w3.org/1999/xlink">
	<desc>
			Created with Pixso.
	</desc>
	<defs>
		<clipPath id="clip84_8">
			<rect id="博客_blogger3" width="16.000000" height="16.000000" fill="white" fill-opacity="0"/>
		</clipPath>
	</defs>
	<g clip-path="url(#clip84_8)">
		<path id="path" d="M10.19 9.53L5.79 9.53C5.38 9.53 5.05 9.87 5.05 10.27C5.05 10.68 5.38 11.01 5.79 11.01L10.19 11.01C10.6 11.01 10.93 10.68 10.93 10.27C10.93 9.87 10.6 9.53 10.19 9.53ZM6.86 6.48L9.12 6.48C9.52 6.48 9.85 6.15 9.85 5.74C9.85 5.34 9.52 5 9.12 5L6.86 5C6.45 5 6.12 5.34 6.12 5.74C6.12 6.15 6.45 6.48 6.86 6.48ZM12.79 0C9.66 0 6.52 0 3.39 0C3.09 0 2.8 0.02 2.51 0.08C1.03 0.41 0.03 1.67 0.02 3.16C-0.02 6.25 0 9.34 0 12.42C0 12.77 0.02 13.11 0.1 13.46C0.44 14.91 1.64 15.93 3.19 15.96C4.79 15.99 6.39 15.97 7.99 15.97C9.53 15.97 11.07 15.97 12.61 15.97C12.91 15.97 13.2 15.95 13.49 15.88C14.97 15.54 15.98 14.29 15.98 12.77C15.98 9.57 15.98 6.37 15.98 3.18C15.98 1.41 14.57 0 12.79 0ZM14.21 7.76L14.21 9.88L14.21 10.35C14.21 12.49 12.47 14.23 10.32 14.23L8.11 14.23L6.1 14.23L5.65 14.23C3.5 14.23 1.76 12.49 1.76 10.35L1.76 5.63C1.76 3.48 3.5 1.75 5.65 1.75L6.72 1.75L8.11 1.75L8.18 1.75C8.18 1.75 8.18 1.75 8.18 1.75C10.3 1.79 12 3.51 12 5.63L12 5.69L12 6.01C12 6.24 12.19 6.43 12.42 6.43L12.86 6.43L13.08 6.43C13.7 6.43 14.21 6.94 14.21 7.57L14.21 7.76Z" fill="currentColor" fill-opacity="1.000000" fill-rule="nonzero"/>
	</g>
</svg>
