<svg width="16.000000" height="16.000000" viewBox="0 0 16 16" fill="none" xmlns="http://www.w3.org/2000/svg" xmlns:xlink="http://www.w3.org/1999/xlink">
	<desc>
			Created with Pixso.
	</desc>
	<defs>
		<clipPath id="clip91_11">
			<rect id="写" width="16.000000" height="16.000000" fill="white" fill-opacity="0"/>
		</clipPath>
	</defs>
	<g clip-path="url(#clip91_11)">
		<path id="path" d="M14.32 14.07L1.74 14.07C1.45 14.07 1.19 13.81 1.19 13.52C1.19 13.23 1.45 12.98 1.74 12.98L14.32 12.98C14.61 12.98 14.87 13.23 14.87 13.52C14.87 13.81 14.65 14.07 14.32 14.07ZM13.16 11.67L6.14 11.67C5.85 11.67 5.59 11.41 5.59 11.12C5.59 10.83 5.85 10.58 6.14 10.58L13.12 10.58C13.41 10.58 13.67 10.83 13.67 11.12C13.67 11.41 13.45 11.67 13.16 11.67ZM2.5 8.47L4.14 10.14L3.41 10.87L1.78 9.23L2.5 8.47ZM8.72 2.21L10.36 3.89L9.59 4.61L7.96 2.98L8.72 2.21Z" fill="currentColor" fill-opacity="1.000000" fill-rule="nonzero"/>
		<path id="path" d="M2 11.96C1.67 11.96 1.34 11.81 1.09 11.56C0.83 11.3 0.69 10.9 0.69 10.54L0.83 8.76L8.39 1.16C8.76 0.79 9.23 0.61 9.74 0.61C10.32 0.61 10.87 0.87 11.27 1.27C11.7 1.7 11.92 2.29 11.92 2.87C11.92 3.38 11.7 3.85 11.34 4.18L3.85 11.81L2.07 11.96L2 11.96ZM1.92 9.23L1.81 10.61C1.81 10.69 1.85 10.76 1.89 10.76C1.92 10.79 2 10.83 2.03 10.83L3.41 10.72L10.58 3.38C10.72 3.23 10.8 3.05 10.83 2.83C10.83 2.54 10.72 2.25 10.5 2.03C10.29 1.81 10.03 1.7 9.74 1.7C9.6 1.7 9.38 1.74 9.2 1.92L1.92 9.23Z" fill="currentColor" fill-opacity="1.000000" fill-rule="nonzero"/>
	</g>
</svg>
