<svg width="16.000000" height="16.000000" viewBox="0 0 16 16" fill="none" xmlns="http://www.w3.org/2000/svg" xmlns:xlink="http://www.w3.org/1999/xlink">
	<desc>
			Created with Pixso.
	</desc>
	<defs>
		<clipPath id="clip103_24">
			<rect id="chat" width="16.000000" height="16.000000" fill="white" fill-opacity="0"/>
		</clipPath>
	</defs>
	<g clip-path="url(#clip103_24)">
		<path id="path" d="M7.99 1C12.05 1 15.33 4.13 15.33 8C15.33 11.86 12.05 15 7.99 15C7.36 15 6.73 14.92 6.12 14.76C5.5 14.61 4.92 14.38 4.36 14.08L2.54 14.87C2.48 14.89 2.42 14.91 2.36 14.92C2.3 14.92 2.24 14.92 2.18 14.91C2.12 14.91 2.06 14.89 2 14.86C1.95 14.84 1.89 14.81 1.85 14.77C1.8 14.73 1.76 14.68 1.72 14.63C1.69 14.58 1.66 14.52 1.64 14.46C1.62 14.41 1.61 14.35 1.61 14.28C1.61 14.22 1.61 14.16 1.63 14.1L2.09 12.15C1.19 10.99 0.66 9.55 0.66 8C0.66 4.13 3.94 1 7.99 1ZM7.99 2C4.49 2 1.66 4.69 1.66 8C1.66 9.24 2.06 10.42 2.8 11.42L2.88 11.54L3.17 11.91L2.75 13.68L4.41 12.96L4.84 13.2C5.79 13.72 6.87 14 7.99 14C11.5 14 14.33 11.3 14.33 8C14.33 4.69 11.5 2 7.99 2ZM5.53 7.33C5.57 7.33 5.62 7.33 5.66 7.34C5.7 7.35 5.75 7.36 5.79 7.38C5.83 7.4 5.86 7.42 5.9 7.44C5.94 7.47 5.97 7.49 6 7.52C6.03 7.55 6.06 7.59 6.09 7.62C6.11 7.66 6.13 7.7 6.15 7.74C6.16 7.78 6.18 7.82 6.18 7.87C6.19 7.91 6.2 7.95 6.2 8C6.2 8.04 6.19 8.08 6.18 8.12C6.18 8.17 6.16 8.21 6.15 8.25C6.13 8.29 6.11 8.33 6.09 8.37C6.06 8.4 6.03 8.44 6 8.47C5.97 8.5 5.94 8.52 5.9 8.55C5.86 8.57 5.83 8.59 5.79 8.61C5.75 8.63 5.7 8.64 5.66 8.65C5.62 8.66 5.57 8.66 5.53 8.66C5.49 8.66 5.44 8.66 5.4 8.65C5.36 8.64 5.32 8.63 5.28 8.61C5.24 8.59 5.2 8.57 5.16 8.55C5.12 8.52 5.09 8.5 5.06 8.47C5.03 8.44 5 8.4 4.98 8.37C4.95 8.33 4.93 8.29 4.92 8.25C4.9 8.21 4.89 8.17 4.88 8.12C4.87 8.08 4.86 8.04 4.86 8C4.86 7.95 4.87 7.91 4.88 7.87C4.89 7.82 4.9 7.78 4.92 7.74C4.93 7.7 4.95 7.66 4.98 7.62C5 7.59 5.03 7.55 5.06 7.52C5.09 7.49 5.12 7.47 5.16 7.44C5.2 7.42 5.24 7.4 5.28 7.38C5.32 7.36 5.36 7.35 5.4 7.34C5.44 7.33 5.49 7.33 5.53 7.33ZM8.02 7.33C8.06 7.33 8.1 7.33 8.15 7.34C8.19 7.35 8.23 7.36 8.27 7.38C8.31 7.4 8.35 7.42 8.39 7.44C8.42 7.47 8.46 7.49 8.49 7.52C8.52 7.55 8.55 7.59 8.57 7.62C8.59 7.66 8.61 7.7 8.63 7.74C8.65 7.78 8.66 7.82 8.67 7.87C8.68 7.91 8.68 7.95 8.68 8C8.68 8.04 8.68 8.08 8.67 8.12C8.66 8.17 8.65 8.21 8.63 8.25C8.61 8.29 8.59 8.33 8.57 8.37C8.55 8.4 8.52 8.44 8.49 8.47C8.46 8.5 8.42 8.52 8.39 8.55C8.35 8.57 8.31 8.59 8.27 8.61C8.23 8.63 8.19 8.64 8.15 8.65C8.1 8.66 8.06 8.66 8.02 8.66C7.97 8.66 7.93 8.66 7.89 8.65C7.84 8.64 7.8 8.63 7.76 8.61C7.72 8.59 7.68 8.57 7.65 8.55C7.61 8.52 7.58 8.5 7.54 8.47C7.51 8.44 7.49 8.4 7.46 8.37C7.44 8.33 7.42 8.29 7.4 8.25C7.38 8.21 7.37 8.17 7.36 8.12C7.35 8.08 7.35 8.04 7.35 8C7.35 7.95 7.35 7.91 7.36 7.87C7.37 7.82 7.38 7.78 7.4 7.74C7.42 7.7 7.44 7.66 7.46 7.62C7.49 7.59 7.51 7.55 7.54 7.52C7.58 7.49 7.61 7.47 7.65 7.44C7.68 7.42 7.72 7.4 7.76 7.38C7.8 7.36 7.84 7.35 7.89 7.34C7.93 7.33 7.97 7.33 8.02 7.33ZM10.5 7.33C10.54 7.33 10.59 7.33 10.63 7.34C10.67 7.35 10.71 7.36 10.76 7.38C10.8 7.4 10.83 7.42 10.87 7.44C10.91 7.47 10.94 7.49 10.97 7.52C11 7.55 11.03 7.59 11.05 7.62C11.08 7.66 11.1 7.7 11.12 7.74C11.13 7.78 11.15 7.82 11.15 7.87C11.16 7.91 11.17 7.95 11.17 8C11.17 8.04 11.16 8.08 11.15 8.12C11.15 8.17 11.13 8.21 11.12 8.25C11.1 8.29 11.08 8.33 11.05 8.37C11.03 8.4 11 8.44 10.97 8.47C10.94 8.5 10.91 8.52 10.87 8.55C10.83 8.57 10.8 8.59 10.76 8.61C10.71 8.63 10.67 8.64 10.63 8.65C10.59 8.66 10.54 8.66 10.5 8.66C10.46 8.66 10.41 8.66 10.37 8.65C10.33 8.64 10.29 8.63 10.24 8.61C10.2 8.59 10.17 8.57 10.13 8.55C10.09 8.52 10.06 8.5 10.03 8.47C10 8.44 9.97 8.4 9.95 8.37C9.92 8.33 9.9 8.29 9.88 8.25C9.87 8.21 9.85 8.17 9.85 8.12C9.84 8.08 9.83 8.04 9.83 8C9.83 7.95 9.84 7.91 9.85 7.87C9.85 7.82 9.87 7.78 9.88 7.74C9.9 7.7 9.92 7.66 9.95 7.62C9.97 7.59 10 7.55 10.03 7.52C10.06 7.49 10.09 7.47 10.13 7.44C10.17 7.42 10.2 7.4 10.24 7.38C10.29 7.36 10.33 7.35 10.37 7.34C10.41 7.33 10.46 7.33 10.5 7.33Z" fill="currentColor" fill-opacity="1.000000" fill-rule="nonzero"/>
	</g>
</svg>
