<svg width="16.000000" height="16.000000" viewBox="0 0 16 16" fill="none" xmlns="http://www.w3.org/2000/svg" xmlns:xlink="http://www.w3.org/1999/xlink">
	<desc>
			Created with Pixso.
	</desc>
	<defs>
		<clipPath id="clip82_4">
			<rect id="chrome" width="16.000000" height="16.000000" fill="white" fill-opacity="0"/>
		</clipPath>
	</defs>
	<g clip-path="url(#clip82_4)">
		<path id="path" d="M7.97 0C9.4 -0.02 10.74 0.34 12 1.07C13.38 1.86 14.42 2.97 15.14 4.39L8.51 4.04C7.56 3.99 6.69 4.21 5.89 4.7C5.09 5.2 4.54 5.89 4.24 6.75L1.77 2.97C2.53 2.02 3.46 1.29 4.55 0.78C5.64 0.26 6.78 0 7.97 0ZM1.3 3.61L4.31 9.53C4.74 10.38 5.36 11.03 6.19 11.47C7.02 11.91 7.89 12.04 8.81 11.87L6.75 15.9C5.49 15.7 4.35 15.23 3.32 14.49C2.29 13.75 1.48 12.81 0.88 11.67C0.29 10.53 0 9.3 0 8C0 6.41 0.43 4.94 1.3 3.61ZM15.46 5.12C15.8 6.01 15.98 6.94 15.99 7.89C16 8.85 15.86 9.76 15.56 10.62C15.26 11.49 14.8 12.3 14.19 13.05C13.58 13.81 12.85 14.43 12 14.92C10.63 15.72 9.14 16.07 7.55 15.99L11.16 10.42C11.69 9.64 11.93 8.78 11.9 7.83C11.87 6.88 11.55 6.05 10.95 5.35L15.46 5.12ZM8 5.3C8.74 5.3 9.37 5.56 9.9 6.09C10.43 6.62 10.69 7.25 10.69 8C10.69 8.74 10.43 9.37 9.9 9.9C9.37 10.43 8.74 10.69 8 10.69C7.25 10.69 6.62 10.43 6.09 9.9C5.56 9.37 5.3 8.74 5.3 8C5.3 7.25 5.56 6.62 6.09 6.09C6.62 5.56 7.25 5.3 8 5.3Z" fill="currentColor" fill-opacity="1.000000" fill-rule="nonzero"/>
	</g>
</svg>
