<svg width="16.000000" height="16.000000" viewBox="0 0 16 16" fill="none" xmlns="http://www.w3.org/2000/svg" xmlns:xlink="http://www.w3.org/1999/xlink">
	<desc>
			Created with Pixso.
	</desc>
	<defs>
		<clipPath id="clip77_16">
			<rect id="docker" width="16.000000" height="16.000000" fill="white" fill-opacity="0"/>
		</clipPath>
	</defs>
	<g clip-path="url(#clip77_16)">
		<path id="path" d="M3.21 11.51C2.75 11.51 2.34 11.14 2.34 10.68C2.34 10.23 2.71 9.86 3.21 9.86C3.71 9.86 4.08 10.23 4.08 10.68C4.08 11.14 3.67 11.51 3.21 11.51L3.21 11.51ZM13.88 7C13.79 6.34 13.38 5.8 12.84 5.39L12.63 5.22L12.46 5.43C12.13 5.8 12 6.46 12.04 6.96C12.08 7.33 12.2 7.71 12.41 8C12.24 8.08 12.03 8.16 11.87 8.25C11.51 8.36 11.14 8.42 10.75 8.41L0.06 8.41L0.02 8.66C-0.02 9.06 -0.01 9.46 0.05 9.86C0.12 10.26 0.23 10.65 0.39 11.02L0.56 11.31L0.56 11.35C1.56 13.01 3.34 13.75 5.28 13.75C9 13.75 12.06 12.14 13.51 8.66C14.46 8.7 15.42 8.45 15.87 7.54L15.99 7.34L15.79 7.21C15.25 6.88 14.51 6.84 13.89 7.01L13.88 7.01L13.88 7ZM8.54 6.34L6.93 6.34L6.93 7.95L8.55 7.95L8.54 6.34ZM8.54 4.31L6.93 4.31L6.93 5.93L8.55 5.93L8.55 4.31L8.54 4.31ZM8.54 2.24L6.93 2.24L6.93 3.86L8.55 3.86L8.54 2.24ZM10.52 6.34L8.91 6.34L8.91 7.95L10.53 7.95L10.53 6.34L10.52 6.34ZM4.53 6.34L2.92 6.34L2.92 7.95L4.53 7.95L4.53 6.34L4.53 6.34ZM6.55 6.34L4.95 6.34L4.95 7.95L6.56 7.95L6.56 6.34L6.55 6.34ZM2.53 6.34L0.93 6.34L0.93 7.95L2.55 7.95L2.55 6.34L2.53 6.34ZM6.55 4.31L4.95 4.31L4.95 5.93L6.56 5.93L6.56 4.31L6.55 4.31ZM4.52 4.31L2.92 4.31L2.92 5.93L4.53 5.93L4.53 4.31L4.52 4.31L4.52 4.31Z" fill="currentColor" fill-opacity="1.000000" fill-rule="nonzero"/>
	</g>
</svg>
