<svg width="16.000000" height="16.000000" viewBox="0 0 16 16" fill="none" xmlns="http://www.w3.org/2000/svg" xmlns:xlink="http://www.w3.org/1999/xlink">
	<desc>
			Created with Pixso.
	</desc>
	<defs>
		<clipPath id="clip77_5">
			<rect id="edit" width="16.000000" height="16.000000" fill="white" fill-opacity="0"/>
		</clipPath>
	</defs>
	<g clip-path="url(#clip77_5)">
		<path id="path" d="M12.75 2.57C12.8 2.62 12.84 2.67 12.88 2.72C12.92 2.77 12.96 2.82 13 2.88C13.03 2.93 13.07 2.99 13.1 3.05C13.13 3.1 13.16 3.16 13.18 3.22C13.21 3.28 13.23 3.34 13.25 3.41C13.27 3.47 13.28 3.53 13.3 3.6C13.31 3.66 13.32 3.73 13.33 3.79C13.33 3.86 13.34 3.92 13.34 3.99C13.34 4.05 13.33 4.12 13.33 4.18C13.32 4.25 13.31 4.31 13.3 4.38C13.28 4.44 13.27 4.51 13.25 4.57C13.23 4.63 13.21 4.69 13.18 4.75C13.16 4.81 13.13 4.87 13.1 4.93C13.07 4.99 13.03 5.04 13 5.1C12.96 5.15 12.92 5.21 12.88 5.26C12.84 5.31 12.8 5.36 12.75 5.4L4.83 13.32C4.8 13.35 4.77 13.37 4.73 13.39C4.68 13.41 4.64 13.42 4.6 13.42L2.57 13.42C2.53 13.42 2.49 13.41 2.44 13.4C2.4 13.39 2.36 13.38 2.32 13.36C2.28 13.35 2.24 13.33 2.2 13.3C2.17 13.28 2.13 13.25 2.1 13.22C2.07 13.19 2.04 13.16 2.02 13.12C2 13.08 1.97 13.04 1.96 13C1.94 12.96 1.93 12.92 1.92 12.88C1.91 12.84 1.91 12.79 1.91 12.75L1.91 10.73C1.91 10.68 1.92 10.64 1.93 10.6C1.95 10.56 1.97 10.52 2 10.49L9.92 2.57C9.97 2.53 10.02 2.48 10.07 2.44C10.12 2.4 10.17 2.36 10.22 2.33C10.28 2.29 10.34 2.26 10.39 2.22C10.45 2.19 10.51 2.17 10.57 2.14C10.63 2.12 10.69 2.09 10.76 2.07C10.82 2.06 10.88 2.04 10.95 2.03C11.01 2.01 11.07 2 11.14 2C11.2 1.99 11.27 1.99 11.34 1.99C11.4 1.99 11.47 1.99 11.53 2C11.6 2 11.66 2.01 11.73 2.03C11.79 2.04 11.85 2.06 11.92 2.07C11.98 2.09 12.04 2.12 12.1 2.14C12.16 2.17 12.22 2.19 12.28 2.22C12.34 2.26 12.39 2.29 12.45 2.33C12.5 2.36 12.55 2.4 12.6 2.44C12.65 2.48 12.7 2.53 12.75 2.57ZM12.04 3.28C12 3.24 11.95 3.2 11.9 3.16C11.84 3.12 11.79 3.09 11.73 3.07C11.67 3.04 11.61 3.02 11.55 3.01C11.49 3 11.43 2.99 11.36 2.99C11.3 2.99 11.24 2.99 11.18 3C11.11 3.01 11.05 3.03 10.99 3.05C10.93 3.07 10.88 3.1 10.82 3.13C10.77 3.16 10.72 3.2 10.67 3.24L10.63 3.28L2.95 10.96C2.92 10.99 2.91 11.02 2.91 11.06L2.91 12.28C2.91 12.36 2.97 12.42 3.04 12.42L4.27 12.42C4.3 12.42 4.33 12.4 4.36 12.38L12.04 4.7C12.09 4.65 12.13 4.6 12.16 4.55C12.2 4.5 12.23 4.44 12.25 4.38C12.28 4.33 12.3 4.27 12.31 4.2C12.33 4.14 12.33 4.08 12.33 4.02C12.34 3.95 12.33 3.89 12.32 3.83C12.31 3.77 12.3 3.71 12.28 3.65C12.25 3.59 12.23 3.53 12.19 3.48C12.16 3.42 12.12 3.37 12.08 3.32L12.04 3.28Z" fill="currentColor" fill-opacity="1.000000" fill-rule="nonzero"/>
		<path id="path" d="M9.21 3.28L12.04 6.11L11.34 6.82L8.51 3.99L9.21 3.28Z" fill="currentColor" fill-opacity="1.000000" fill-rule="nonzero"/>
		<path id="path" d="M7.79 12.43L13.2 12.43C13.28 12.43 13.33 12.47 13.33 12.56L13.33 13.3C13.33 13.38 13.28 13.43 13.2 13.43L7.79 13.43C7.71 13.43 7.66 13.38 7.66 13.3L7.66 12.56C7.66 12.47 7.71 12.43 7.79 12.43Z" fill="currentColor" fill-opacity="1.000000" fill-rule="nonzero"/>
		<path id="path" d="M10.46 10.43L13.2 10.43C13.28 10.43 13.33 10.47 13.33 10.56L13.33 11.3C13.33 11.38 13.28 11.43 13.2 11.43L10.46 11.43C10.37 11.43 10.33 11.38 10.33 11.3L10.33 10.56C10.33 10.47 10.37 10.43 10.46 10.43Z" fill="currentColor" fill-opacity="1.000000" fill-rule="nonzero"/>
	</g>
</svg>
