<svg width="16.000000" height="16.000000" viewBox="0 0 16 16" fill="none" xmlns="http://www.w3.org/2000/svg" xmlns:xlink="http://www.w3.org/1999/xlink">
	<desc>
			Created with Pixso.
	</desc>
	<defs>
		<clipPath id="clip77_24">
			<rect id="electron" width="16.000000" height="16.000000" fill="white" fill-opacity="0"/>
		</clipPath>
	</defs>
	<g clip-path="url(#clip77_24)">
		<path id="path" d="M1.76 7.78C1.07 6.57 0.93 5.44 1.42 4.59C2.08 3.45 3.73 3.05 5.82 3.43C5.85 3.44 5.88 3.45 5.9 3.46C5.93 3.48 5.95 3.5 5.97 3.52C5.98 3.54 6 3.57 6 3.6C6.01 3.63 6.01 3.66 6 3.68C6 3.71 5.99 3.74 5.97 3.76C5.96 3.79 5.94 3.81 5.91 3.83C5.89 3.84 5.86 3.85 5.83 3.86C5.8 3.86 5.77 3.86 5.75 3.86C3.81 3.5 2.34 3.86 1.79 4.81C1.39 5.51 1.51 6.48 2.13 7.57C2.15 7.59 2.16 7.62 2.16 7.65C2.17 7.68 2.17 7.71 2.16 7.73C2.15 7.76 2.14 7.79 2.12 7.81C2.11 7.84 2.08 7.85 2.06 7.87C2.03 7.88 2.01 7.89 1.98 7.9C1.95 7.9 1.92 7.9 1.89 7.89C1.86 7.88 1.84 7.87 1.81 7.85C1.79 7.83 1.77 7.81 1.76 7.78ZM11.71 3.73C12.93 3.75 13.81 4.13 14.21 4.82C14.75 5.76 14.33 7.22 13.06 8.71C13.04 8.73 13.03 8.76 13.02 8.78C13.01 8.81 13 8.84 13 8.87C13 8.9 13.01 8.93 13.02 8.95C13.04 8.98 13.06 9 13.08 9.02C13.1 9.04 13.13 9.06 13.15 9.06C13.18 9.07 13.21 9.08 13.24 9.07C13.27 9.07 13.3 9.06 13.32 9.04C13.35 9.03 13.37 9.01 13.39 8.99C14.76 7.37 15.24 5.74 14.58 4.6C14.1 3.77 13.07 3.32 11.71 3.31C11.68 3.3 11.66 3.31 11.63 3.32C11.6 3.33 11.57 3.34 11.55 3.36C11.53 3.38 11.51 3.41 11.5 3.43C11.49 3.46 11.48 3.49 11.48 3.52C11.48 3.55 11.49 3.58 11.5 3.6C11.51 3.63 11.53 3.65 11.55 3.67C11.57 3.69 11.59 3.71 11.62 3.72C11.65 3.73 11.68 3.74 11.71 3.73ZM10.47 13.89C10.45 13.88 10.42 13.87 10.39 13.87C10.36 13.86 10.34 13.86 10.31 13.87C10.28 13.88 10.26 13.89 10.23 13.91C10.21 13.92 10.19 13.94 10.18 13.97C9.55 15 8.79 15.57 8 15.57C6.91 15.57 5.86 14.47 5.2 12.62C5.19 12.59 5.18 12.57 5.16 12.55C5.14 12.52 5.12 12.51 5.09 12.49C5.07 12.48 5.04 12.47 5.01 12.47C4.98 12.47 4.95 12.48 4.93 12.48C4.9 12.5 4.87 12.51 4.85 12.53C4.83 12.55 4.82 12.57 4.8 12.6C4.79 12.62 4.78 12.65 4.78 12.68C4.78 12.71 4.79 12.74 4.8 12.77C5.51 14.76 6.69 16 8 16C8.96 16 9.85 15.34 10.54 14.19C10.56 14.16 10.57 14.14 10.57 14.11C10.58 14.08 10.57 14.05 10.57 14.03C10.56 14 10.55 13.97 10.53 13.95C10.52 13.93 10.5 13.91 10.47 13.89ZM15.38 12.16C15.37 12.26 15.36 12.35 15.34 12.44C15.31 12.53 15.27 12.62 15.22 12.7C15.17 12.78 15.12 12.85 15.05 12.92C14.98 12.98 14.9 13.03 14.82 13.08C14.73 13.12 14.65 13.15 14.55 13.17C14.46 13.19 14.37 13.19 14.27 13.19C14.18 13.18 14.09 13.16 14 13.13C13.91 13.1 13.83 13.05 13.75 13C12.11 13.96 8.99 13.47 6.04 11.77C4.79 11.05 3.69 10.18 2.85 9.25C2.83 9.23 2.81 9.2 2.8 9.18C2.79 9.15 2.79 9.12 2.79 9.09C2.79 9.06 2.79 9.03 2.81 9.01C2.82 8.98 2.83 8.96 2.86 8.94C2.88 8.92 2.9 8.9 2.93 8.89C2.96 8.88 2.99 8.88 3.01 8.88C3.04 8.88 3.07 8.89 3.1 8.91C3.12 8.92 3.15 8.94 3.16 8.96C3.98 9.85 5.04 10.7 6.26 11.4C9.04 13 11.96 13.48 13.46 12.67C13.44 12.64 13.42 12.6 13.4 12.57C13.39 12.53 13.38 12.49 13.36 12.46C13.35 12.42 13.34 12.38 13.34 12.34C13.33 12.3 13.33 12.26 13.32 12.22C13.32 12.18 13.32 12.15 13.32 12.11C13.33 12.07 13.33 12.03 13.34 11.99C13.34 11.95 13.35 11.91 13.36 11.88C13.37 11.84 13.39 11.8 13.4 11.76C13.42 11.73 13.43 11.69 13.45 11.66C13.47 11.62 13.49 11.59 13.52 11.56C13.54 11.53 13.56 11.5 13.59 11.47C13.62 11.44 13.65 11.41 13.67 11.39C13.7 11.36 13.74 11.34 13.77 11.32C13.8 11.29 13.83 11.27 13.87 11.25C13.9 11.24 13.94 11.22 13.97 11.21C14.01 11.19 14.05 11.18 14.09 11.17C14.12 11.16 14.16 11.15 14.2 11.15C14.24 11.14 14.28 11.14 14.32 11.14C14.36 11.13 14.4 11.14 14.44 11.14C14.48 11.14 14.51 11.15 14.55 11.16C14.59 11.16 14.63 11.17 14.67 11.19C14.7 11.2 14.74 11.21 14.78 11.23C14.81 11.24 14.85 11.26 14.88 11.28C14.91 11.3 14.94 11.33 14.98 11.35C15.01 11.37 15.04 11.4 15.06 11.43C15.09 11.45 15.12 11.48 15.14 11.51C15.17 11.54 15.19 11.58 15.21 11.61C15.23 11.64 15.25 11.68 15.27 11.71C15.29 11.75 15.3 11.78 15.32 11.82C15.33 11.86 15.34 11.89 15.35 11.93C15.36 11.97 15.36 12.01 15.37 12.05C15.37 12.09 15.38 12.13 15.38 12.16ZM2.67 12.16C2.67 12.22 2.66 12.28 2.65 12.34C2.64 12.4 2.63 12.46 2.61 12.52C2.58 12.57 2.56 12.63 2.53 12.68C2.5 12.73 2.46 12.78 2.43 12.83C2.39 12.87 2.34 12.92 2.3 12.95C2.25 12.99 2.2 13.03 2.15 13.06C2.1 13.09 2.04 13.11 1.99 13.13C1.93 13.15 1.87 13.17 1.81 13.18C1.75 13.19 1.69 13.19 1.63 13.19C1.57 13.19 1.51 13.19 1.46 13.18C1.4 13.17 1.34 13.15 1.28 13.13C1.23 13.11 1.17 13.08 1.12 13.05C1.07 13.02 1.02 12.99 0.97 12.95C0.93 12.91 0.89 12.86 0.85 12.82C0.81 12.77 0.78 12.72 0.75 12.67C0.72 12.62 0.69 12.56 0.67 12.51C0.65 12.45 0.64 12.39 0.63 12.33C0.62 12.27 0.61 12.21 0.61 12.15C0.61 12.09 0.62 12.03 0.63 11.97C0.64 11.91 0.66 11.86 0.68 11.8C0.7 11.74 0.73 11.69 0.76 11.64C0.79 11.59 0.83 11.54 0.87 11.49C0.9 11.45 0.95 11.41 0.99 11.37C1.04 11.33 1.09 11.3 1.14 11.27C0.99 9.35 3 6.78 6.05 5.02C7.32 4.29 8.63 3.77 9.87 3.51C9.9 3.5 9.92 3.5 9.95 3.51C9.98 3.52 10 3.53 10.02 3.54C10.05 3.56 10.06 3.58 10.08 3.6C10.09 3.62 10.11 3.65 10.11 3.67C10.12 3.7 10.12 3.73 10.11 3.75C10.11 3.78 10.1 3.81 10.09 3.83C10.07 3.85 10.05 3.87 10.03 3.89C10.01 3.9 9.99 3.92 9.96 3.92C8.77 4.18 7.49 4.68 6.26 5.39C3.39 7.05 1.5 9.44 1.57 11.14C1.59 11.14 1.62 11.14 1.64 11.14C2.21 11.14 2.67 11.6 2.67 12.16ZM6.98 1.02C6.98 0.96 6.99 0.89 7 0.83C7.02 0.76 7.04 0.7 7.06 0.64C7.09 0.58 7.12 0.52 7.16 0.47C7.2 0.42 7.24 0.37 7.29 0.32C7.34 0.27 7.39 0.23 7.44 0.2C7.5 0.16 7.56 0.13 7.62 0.11C7.68 0.08 7.74 0.06 7.81 0.05C7.87 0.04 7.94 0.03 8 0.03C8.07 0.03 8.13 0.04 8.2 0.05C8.26 0.06 8.33 0.08 8.39 0.11C8.45 0.13 8.51 0.16 8.56 0.2C8.62 0.23 8.67 0.27 8.72 0.32C8.76 0.37 8.81 0.42 8.84 0.47C8.88 0.52 8.91 0.58 8.94 0.64C8.97 0.7 8.99 0.76 9 0.83C9.02 0.89 9.03 0.96 9.03 1.02C9.03 1.04 9.03 1.05 9.03 1.07C10.73 1.94 11.91 4.94 11.91 8.4C11.91 9.83 11.71 11.19 11.34 12.37C11.33 12.4 11.32 12.43 11.3 12.45C11.28 12.48 11.26 12.49 11.23 12.51C11.21 12.52 11.18 12.53 11.15 12.53C11.12 12.54 11.09 12.53 11.07 12.53C11.04 12.52 11.01 12.5 10.99 12.48C10.97 12.46 10.95 12.44 10.94 12.42C10.92 12.39 10.92 12.36 10.92 12.33C10.91 12.3 10.92 12.27 10.93 12.25C11.29 11.11 11.48 9.78 11.48 8.4C11.48 5.14 10.39 2.34 8.91 1.49C8.89 1.54 8.86 1.59 8.82 1.64C8.79 1.68 8.75 1.73 8.71 1.77C8.67 1.81 8.62 1.84 8.58 1.87C8.53 1.9 8.48 1.93 8.43 1.96C8.38 1.98 8.32 2 8.27 2.01C8.21 2.03 8.16 2.04 8.1 2.04C8.04 2.05 7.98 2.05 7.93 2.05C7.87 2.04 7.81 2.03 7.76 2.02C7.7 2.01 7.65 1.99 7.6 1.97C7.54 1.94 7.49 1.92 7.45 1.89C7.4 1.85 7.35 1.82 7.31 1.78C7.27 1.74 7.23 1.7 7.2 1.66C7.16 1.61 7.13 1.56 7.1 1.51C7.07 1.46 7.05 1.41 7.03 1.36C7.01 1.3 7 1.25 6.99 1.19C6.98 1.14 6.98 1.08 6.98 1.02ZM7.85 7.68C7.8 7.69 7.75 7.7 7.71 7.72C7.66 7.74 7.62 7.76 7.58 7.79C7.54 7.82 7.5 7.85 7.47 7.89C7.43 7.92 7.4 7.96 7.38 8C7.35 8.04 7.33 8.08 7.31 8.13C7.29 8.17 7.28 8.22 7.27 8.27C7.26 8.32 7.26 8.37 7.26 8.41C7.26 8.46 7.27 8.51 7.28 8.56C7.29 8.61 7.3 8.65 7.32 8.7C7.34 8.74 7.36 8.78 7.39 8.82C7.42 8.86 7.45 8.9 7.49 8.94C7.52 8.97 7.56 9 7.6 9.03C7.64 9.05 7.68 9.07 7.73 9.09C7.77 9.11 7.82 9.12 7.87 9.13C7.92 9.14 7.97 9.15 8.01 9.14C8.06 9.14 8.11 9.14 8.16 9.13C8.21 9.12 8.25 9.1 8.3 9.08C8.34 9.06 8.38 9.04 8.42 9.01C8.47 8.98 8.5 8.95 8.54 8.92C8.57 8.88 8.6 8.85 8.63 8.8C8.65 8.76 8.68 8.72 8.69 8.67C8.71 8.63 8.72 8.58 8.73 8.54C8.74 8.49 8.75 8.44 8.74 8.39C8.74 8.34 8.74 8.29 8.73 8.25C8.72 8.2 8.7 8.15 8.68 8.11C8.66 8.06 8.64 8.02 8.61 7.98C8.59 7.94 8.55 7.9 8.52 7.87C8.48 7.83 8.45 7.8 8.4 7.78C8.36 7.75 8.32 7.73 8.28 7.71C8.23 7.69 8.18 7.68 8.14 7.67C8.09 7.66 8.04 7.66 7.99 7.66C7.94 7.66 7.89 7.67 7.85 7.68Z" fill="currentColor" fill-opacity="1.000000" fill-rule="nonzero"/>
	</g>
</svg>
