<svg width="16.000000" height="16.000000" viewBox="0 0 16 16" fill="none" xmlns="http://www.w3.org/2000/svg" xmlns:xlink="http://www.w3.org/1999/xlink">
	<desc>
			Created with Pixso.
	</desc>
	<defs>
		<clipPath id="clip68_22">
			<rect id="english-hollow" width="16.000000" height="16.000000" fill="white" fill-opacity="0"/>
		</clipPath>
	</defs>
	<g clip-path="url(#clip68_22)">
		<path id="path" d="M12.92 1.49L3.08 1.49C3.01 1.49 2.95 1.5 2.89 1.5C2.83 1.51 2.78 1.52 2.72 1.53C2.66 1.54 2.6 1.56 2.54 1.58C2.48 1.59 2.43 1.61 2.37 1.64C2.32 1.66 2.26 1.69 2.21 1.72C2.16 1.74 2.11 1.78 2.06 1.81C2.01 1.84 1.96 1.88 1.91 1.92C1.87 1.96 1.82 2 1.78 2.04C1.74 2.08 1.7 2.13 1.66 2.18C1.62 2.22 1.59 2.27 1.55 2.32C1.52 2.37 1.49 2.42 1.46 2.48C1.43 2.53 1.41 2.59 1.38 2.64C1.36 2.7 1.34 2.75 1.33 2.81C1.31 2.87 1.29 2.93 1.28 2.99C1.27 3.05 1.26 3.11 1.26 3.17C1.25 3.23 1.25 3.29 1.25 3.35L1.25 11.46C1.25 11.52 1.25 11.58 1.26 11.64C1.26 11.7 1.27 11.76 1.28 11.82C1.29 11.88 1.31 11.94 1.32 12C1.34 12.05 1.36 12.11 1.38 12.17C1.41 12.22 1.43 12.28 1.46 12.33C1.49 12.39 1.52 12.44 1.55 12.49C1.58 12.54 1.62 12.59 1.66 12.63C1.69 12.68 1.73 12.73 1.78 12.77C1.82 12.81 1.86 12.85 1.91 12.89C1.95 12.93 2 12.97 2.05 13C2.1 13.04 2.15 13.07 2.21 13.1C2.26 13.13 2.31 13.15 2.37 13.18C2.43 13.2 2.48 13.22 2.54 13.24C2.6 13.26 2.66 13.27 2.72 13.28C2.77 13.3 2.83 13.31 2.89 13.31C2.95 13.32 3.01 13.32 3.08 13.32L6.32 13.32L7.31 14.32C7.36 14.38 7.42 14.42 7.5 14.45C7.57 14.48 7.64 14.5 7.72 14.5C7.8 14.5 7.87 14.49 7.94 14.46C8.01 14.43 8.08 14.39 8.13 14.33L9.16 13.32L12.92 13.32C12.98 13.32 13.04 13.32 13.1 13.31C13.16 13.31 13.22 13.3 13.27 13.28C13.33 13.27 13.39 13.26 13.45 13.24C13.51 13.22 13.56 13.2 13.62 13.18C13.68 13.15 13.73 13.13 13.78 13.1C13.84 13.07 13.89 13.04 13.94 13C13.99 12.97 14.04 12.93 14.08 12.89C14.13 12.85 14.17 12.81 14.21 12.77C14.26 12.73 14.3 12.68 14.33 12.63C14.37 12.59 14.41 12.54 14.44 12.49C14.47 12.44 14.5 12.39 14.53 12.33C14.56 12.28 14.59 12.22 14.61 12.17C14.63 12.11 14.65 12.05 14.67 12C14.68 11.94 14.7 11.88 14.71 11.82C14.72 11.76 14.73 11.7 14.73 11.64C14.74 11.58 14.74 11.52 14.74 11.46L14.74 3.35C14.74 3.29 14.74 3.23 14.73 3.17C14.73 3.11 14.72 3.05 14.71 2.99C14.7 2.93 14.68 2.87 14.66 2.81C14.65 2.75 14.63 2.7 14.61 2.64C14.58 2.59 14.56 2.53 14.53 2.48C14.5 2.42 14.47 2.37 14.44 2.32C14.4 2.27 14.37 2.22 14.33 2.18C14.29 2.13 14.25 2.08 14.21 2.04C14.17 2 14.12 1.96 14.08 1.92C14.03 1.88 13.98 1.84 13.93 1.81C13.88 1.78 13.83 1.74 13.78 1.72C13.73 1.69 13.67 1.66 13.62 1.64C13.56 1.61 13.51 1.59 13.45 1.58C13.39 1.56 13.33 1.54 13.27 1.53C13.21 1.52 13.16 1.51 13.1 1.5C13.04 1.5 12.98 1.49 12.92 1.49ZM13.6 11.46C13.6 11.5 13.59 11.55 13.59 11.59C13.58 11.64 13.57 11.68 13.55 11.72C13.54 11.76 13.52 11.8 13.49 11.84C13.47 11.88 13.44 11.91 13.41 11.94C13.38 11.98 13.35 12.01 13.31 12.03C13.28 12.06 13.24 12.08 13.2 12.1C13.16 12.12 13.11 12.13 13.07 12.14C13.03 12.15 12.98 12.15 12.94 12.16L8.94 12.16C8.86 12.16 8.79 12.17 8.72 12.2C8.65 12.23 8.59 12.27 8.53 12.32L7.73 13.12L6.98 12.32C6.92 12.27 6.86 12.22 6.79 12.19C6.72 12.16 6.64 12.15 6.56 12.15L3.08 12.15C3.03 12.15 2.99 12.14 2.94 12.14C2.9 12.13 2.85 12.11 2.81 12.1C2.77 12.08 2.73 12.06 2.69 12.03C2.66 12.01 2.62 11.98 2.59 11.95C2.56 11.92 2.53 11.88 2.5 11.84C2.48 11.81 2.46 11.77 2.44 11.72C2.43 11.68 2.41 11.64 2.41 11.59C2.4 11.55 2.39 11.5 2.4 11.46L2.4 3.35C2.39 3.3 2.4 3.26 2.4 3.22C2.41 3.17 2.42 3.13 2.44 3.09C2.46 3.05 2.48 3.01 2.5 2.97C2.52 2.93 2.55 2.9 2.58 2.87C2.61 2.84 2.64 2.81 2.68 2.78C2.72 2.76 2.75 2.73 2.8 2.72C2.84 2.7 2.88 2.68 2.92 2.68C2.96 2.67 3.01 2.66 3.05 2.66L12.89 2.66C12.94 2.66 12.98 2.67 13.02 2.68C13.06 2.68 13.11 2.7 13.15 2.72C13.19 2.73 13.23 2.76 13.26 2.78C13.3 2.81 13.33 2.84 13.36 2.87C13.39 2.9 13.42 2.93 13.44 2.97C13.47 3.01 13.49 3.05 13.5 3.09C13.52 3.13 13.53 3.17 13.54 3.22C13.54 3.26 13.55 3.3 13.55 3.35L13.6 11.46ZM7.13 5.6C7.17 5.6 7.2 5.6 7.24 5.6C7.27 5.59 7.31 5.59 7.34 5.58C7.38 5.57 7.41 5.55 7.44 5.54C7.47 5.52 7.5 5.5 7.53 5.47C7.55 5.45 7.58 5.42 7.6 5.39C7.62 5.37 7.64 5.34 7.65 5.3C7.67 5.27 7.68 5.24 7.69 5.2C7.69 5.17 7.7 5.13 7.7 5.1C7.7 5.06 7.69 5.02 7.69 4.99C7.68 4.95 7.67 4.92 7.65 4.89C7.64 4.85 7.62 4.82 7.6 4.8C7.58 4.77 7.55 4.74 7.53 4.72C7.5 4.69 7.47 4.67 7.44 4.66C7.41 4.64 7.38 4.62 7.34 4.61C7.31 4.6 7.27 4.6 7.24 4.59C7.2 4.59 7.17 4.59 7.13 4.6L4.5 4.6C4.47 4.6 4.43 4.6 4.4 4.6C4.37 4.61 4.34 4.62 4.31 4.63C4.28 4.64 4.25 4.66 4.22 4.68C4.2 4.69 4.17 4.71 4.15 4.74C4.12 4.76 4.1 4.78 4.09 4.81C4.07 4.84 4.05 4.87 4.04 4.89C4.02 4.92 4.01 4.96 4.01 4.99C4 5.02 4 5.05 4 5.08L4 9.6C4 9.63 4 9.66 4.01 9.69C4.01 9.72 4.02 9.76 4.04 9.79C4.05 9.82 4.06 9.84 4.08 9.87C4.1 9.9 4.12 9.92 4.15 9.95C4.17 9.97 4.19 9.99 4.22 10.01C4.25 10.03 4.28 10.04 4.31 10.05C4.34 10.07 4.37 10.08 4.4 10.08C4.43 10.09 4.47 10.09 4.5 10.09L7.13 10.09C7.16 10.09 7.2 10.09 7.23 10.08C7.26 10.08 7.29 10.07 7.32 10.05C7.35 10.04 7.38 10.03 7.41 10.01C7.44 9.99 7.46 9.97 7.48 9.95C7.51 9.92 7.53 9.9 7.55 9.87C7.57 9.84 7.58 9.82 7.59 9.79C7.61 9.76 7.62 9.72 7.62 9.69C7.63 9.66 7.63 9.63 7.64 9.6C7.64 9.56 7.63 9.53 7.63 9.5C7.62 9.46 7.61 9.43 7.6 9.4C7.58 9.37 7.57 9.34 7.55 9.32C7.53 9.29 7.51 9.26 7.49 9.24C7.46 9.22 7.44 9.19 7.41 9.18C7.38 9.16 7.35 9.14 7.32 9.13C7.29 9.12 7.26 9.11 7.23 9.1C7.2 9.09 7.16 9.09 7.13 9.09L5 9.09L5 7.83L7.13 7.83C7.17 7.83 7.2 7.83 7.24 7.83C7.27 7.83 7.31 7.82 7.34 7.81C7.38 7.8 7.41 7.78 7.44 7.77C7.47 7.75 7.5 7.73 7.53 7.71C7.55 7.68 7.58 7.66 7.6 7.63C7.62 7.6 7.64 7.57 7.65 7.53C7.67 7.5 7.68 7.47 7.69 7.43C7.69 7.4 7.7 7.36 7.7 7.33C7.7 7.29 7.69 7.26 7.69 7.22C7.68 7.19 7.67 7.15 7.65 7.12C7.64 7.09 7.62 7.06 7.6 7.03C7.58 7 7.55 6.97 7.53 6.95C7.5 6.93 7.47 6.9 7.44 6.89C7.41 6.87 7.38 6.86 7.34 6.85C7.31 6.83 7.27 6.83 7.24 6.83C7.2 6.82 7.17 6.82 7.13 6.83L5 6.83L5 5.6L7.13 5.6ZM10.19 5.82C9.99 5.82 9.8 5.85 9.62 5.92C9.44 5.98 9.27 6.08 9.12 6.2C9.04 6.15 8.97 6.13 8.88 6.12C8.85 6.12 8.82 6.13 8.78 6.13C8.75 6.14 8.72 6.15 8.69 6.16C8.66 6.17 8.63 6.19 8.6 6.21C8.58 6.23 8.55 6.25 8.53 6.27C8.5 6.29 8.48 6.32 8.46 6.35C8.45 6.37 8.43 6.4 8.42 6.43C8.4 6.46 8.4 6.5 8.39 6.53C8.38 6.56 8.38 6.59 8.38 6.63L8.38 9.6C8.38 9.63 8.39 9.65 8.4 9.68C8.41 9.71 8.42 9.74 8.43 9.77C8.45 9.79 8.46 9.82 8.48 9.84C8.5 9.87 8.52 9.89 8.55 9.91C8.57 9.93 8.59 9.95 8.62 9.96C8.65 9.98 8.67 9.99 8.7 10C8.73 10.01 8.76 10.02 8.79 10.03C8.82 10.03 8.85 10.04 8.88 10.04C8.91 10.04 8.94 10.03 8.97 10.03C9 10.02 9.03 10.01 9.06 10C9.09 9.99 9.11 9.98 9.14 9.96C9.16 9.95 9.19 9.93 9.21 9.91C9.24 9.89 9.26 9.87 9.27 9.84C9.29 9.82 9.31 9.79 9.32 9.77C9.34 9.74 9.35 9.71 9.36 9.68C9.37 9.65 9.38 9.63 9.38 9.6L9.38 7.7C9.38 7.65 9.38 7.59 9.39 7.54C9.4 7.49 9.42 7.44 9.44 7.39C9.46 7.34 9.48 7.3 9.51 7.25C9.54 7.21 9.58 7.17 9.61 7.13C9.65 7.1 9.69 7.06 9.73 7.03C9.78 7 9.82 6.98 9.87 6.96C9.92 6.94 9.97 6.92 10.02 6.91C10.07 6.9 10.13 6.9 10.18 6.9C10.23 6.9 10.28 6.9 10.34 6.91C10.39 6.92 10.44 6.94 10.49 6.96C10.53 6.98 10.58 7 10.62 7.03C10.67 7.06 10.71 7.1 10.74 7.13C10.78 7.17 10.82 7.21 10.84 7.25C10.87 7.3 10.9 7.34 10.92 7.39C10.94 7.44 10.95 7.49 10.96 7.54C10.97 7.59 10.98 7.65 10.98 7.7L10.98 9.55C10.97 9.58 10.97 9.62 10.98 9.65C10.98 9.69 10.99 9.72 11 9.76C11.01 9.79 11.02 9.83 11.04 9.86C11.06 9.89 11.08 9.92 11.1 9.94C11.12 9.97 11.15 9.99 11.18 10.02C11.21 10.04 11.24 10.06 11.27 10.07C11.3 10.08 11.34 10.1 11.37 10.1C11.41 10.11 11.44 10.11 11.48 10.11C11.51 10.11 11.55 10.11 11.59 10.1C11.62 10.1 11.65 10.08 11.69 10.07C11.72 10.06 11.75 10.04 11.78 10.02C11.81 9.99 11.83 9.97 11.86 9.94C11.88 9.92 11.9 9.89 11.92 9.86C11.94 9.83 11.95 9.79 11.96 9.76C11.97 9.72 11.98 9.69 11.98 9.65C11.98 9.62 11.98 9.58 11.98 9.55L11.98 7.7C11.98 7.64 11.98 7.58 11.97 7.52C11.97 7.46 11.96 7.4 11.95 7.34C11.94 7.28 11.93 7.22 11.91 7.16C11.9 7.11 11.88 7.05 11.86 6.99C11.83 6.94 11.81 6.88 11.78 6.83C11.75 6.78 11.73 6.72 11.69 6.67C11.66 6.62 11.63 6.57 11.59 6.53C11.55 6.48 11.51 6.43 11.47 6.39C11.43 6.35 11.39 6.3 11.34 6.27C11.3 6.23 11.25 6.19 11.2 6.15C11.15 6.12 11.1 6.09 11.05 6.06C10.99 6.03 10.94 6 10.89 5.98C10.83 5.95 10.77 5.93 10.72 5.91C10.66 5.89 10.6 5.88 10.54 5.86C10.49 5.85 10.43 5.84 10.37 5.83C10.31 5.83 10.25 5.82 10.19 5.82Z" fill="currentColor" fill-opacity="1.000000" fill-rule="nonzero"/>
	</g>
</svg>
