<svg width="16.000000" height="16.000000" viewBox="0 0 16 16" fill="none" xmlns="http://www.w3.org/2000/svg" xmlns:xlink="http://www.w3.org/1999/xlink">
	<desc>
			Created with Pixso.
	</desc>
	<defs>
		<clipPath id="clip60_54">
			<rect id="fullscreen_exit_line" width="16.000000" height="16.000000" fill="white" fill-opacity="0"/>
		</clipPath>
	</defs>
	<g clip-path="url(#clip60_54)">
		<path id="path" d="M4 10C4.06 10 4.13 10 4.19 10C4.26 10.01 4.32 10.02 4.39 10.03C4.45 10.05 4.51 10.06 4.58 10.08C4.64 10.1 4.7 10.12 4.76 10.15C4.82 10.17 4.88 10.2 4.94 10.23C5 10.26 5.05 10.3 5.11 10.33C5.16 10.37 5.21 10.41 5.26 10.45C5.31 10.49 5.36 10.53 5.41 10.58C5.46 10.63 5.5 10.68 5.54 10.73C5.58 10.78 5.62 10.83 5.66 10.88C5.69 10.94 5.73 10.99 5.76 11.05C5.79 11.11 5.82 11.17 5.84 11.23C5.87 11.29 5.89 11.35 5.91 11.41C5.93 11.48 5.94 11.54 5.96 11.6C5.97 11.67 5.98 11.73 5.99 11.8C5.99 11.86 6 11.93 6 12L6 13.33C6 13.37 5.99 13.42 5.98 13.46C5.97 13.5 5.96 13.54 5.94 13.58C5.93 13.62 5.91 13.66 5.88 13.7C5.86 13.74 5.83 13.77 5.8 13.8C5.77 13.83 5.73 13.86 5.7 13.88C5.66 13.91 5.62 13.93 5.58 13.94C5.54 13.96 5.5 13.97 5.46 13.98C5.42 13.99 5.37 14 5.33 14C5.28 14 5.24 13.99 5.2 13.98C5.16 13.97 5.11 13.96 5.07 13.94C5.03 13.93 4.99 13.91 4.96 13.88C4.92 13.86 4.89 13.83 4.86 13.8C4.83 13.77 4.8 13.74 4.77 13.7C4.75 13.66 4.73 13.62 4.71 13.58C4.7 13.54 4.68 13.5 4.67 13.46C4.67 13.42 4.66 13.37 4.66 13.33L4.66 12C4.66 11.95 4.66 11.91 4.65 11.87C4.64 11.82 4.63 11.78 4.61 11.74C4.59 11.7 4.57 11.66 4.55 11.62C4.53 11.59 4.5 11.55 4.47 11.52C4.44 11.49 4.4 11.47 4.37 11.44C4.33 11.42 4.29 11.4 4.25 11.38C4.21 11.36 4.17 11.35 4.13 11.34C4.08 11.33 4.04 11.33 4 11.33L2.66 11.33C2.62 11.33 2.57 11.32 2.53 11.32C2.49 11.31 2.45 11.29 2.41 11.28C2.37 11.26 2.33 11.24 2.29 11.22C2.26 11.19 2.22 11.16 2.19 11.13C2.16 11.1 2.13 11.07 2.11 11.03C2.08 11 2.06 10.96 2.05 10.92C2.03 10.88 2.02 10.83 2.01 10.79C2 10.75 2 10.71 2 10.66C2 10.62 2 10.57 2.01 10.53C2.02 10.49 2.03 10.45 2.05 10.41C2.06 10.37 2.08 10.33 2.11 10.29C2.13 10.25 2.16 10.22 2.19 10.19C2.22 10.16 2.26 10.13 2.29 10.11C2.33 10.08 2.37 10.06 2.41 10.05C2.45 10.03 2.49 10.02 2.53 10.01C2.57 10 2.62 10 2.66 10L4 10ZM12 10C11.93 10 11.86 10 11.8 10C11.73 10.01 11.67 10.02 11.6 10.03C11.54 10.05 11.48 10.06 11.41 10.08C11.35 10.1 11.29 10.12 11.23 10.15C11.17 10.17 11.11 10.2 11.05 10.23C10.99 10.26 10.94 10.3 10.88 10.33C10.83 10.37 10.78 10.41 10.73 10.45C10.68 10.49 10.63 10.53 10.58 10.58C10.53 10.63 10.49 10.68 10.45 10.73C10.41 10.78 10.37 10.83 10.33 10.88C10.3 10.94 10.26 10.99 10.23 11.05C10.2 11.11 10.17 11.17 10.15 11.23C10.12 11.29 10.1 11.35 10.08 11.41C10.06 11.48 10.05 11.54 10.03 11.6C10.02 11.67 10.01 11.73 10 11.8C10 11.86 10 11.93 10 12L10 13.33C10 13.37 10 13.42 10.01 13.46C10.02 13.5 10.03 13.54 10.05 13.58C10.06 13.62 10.08 13.66 10.11 13.7C10.13 13.74 10.16 13.77 10.19 13.8C10.22 13.83 10.26 13.86 10.29 13.88C10.33 13.91 10.37 13.93 10.41 13.94C10.45 13.96 10.49 13.97 10.53 13.98C10.57 13.99 10.62 14 10.66 14C10.71 14 10.75 13.99 10.79 13.98C10.83 13.97 10.88 13.96 10.92 13.94C10.96 13.93 11 13.91 11.03 13.88C11.07 13.86 11.1 13.83 11.13 13.8C11.16 13.77 11.19 13.74 11.22 13.7C11.24 13.66 11.26 13.62 11.28 13.58C11.29 13.54 11.31 13.5 11.32 13.46C11.32 13.42 11.33 13.37 11.33 13.33L11.33 12C11.33 11.95 11.33 11.91 11.34 11.87C11.35 11.82 11.36 11.78 11.38 11.74C11.4 11.7 11.42 11.66 11.44 11.62C11.47 11.59 11.49 11.55 11.52 11.52C11.55 11.49 11.59 11.47 11.62 11.44C11.66 11.42 11.7 11.4 11.74 11.38C11.78 11.36 11.82 11.35 11.86 11.34C11.91 11.33 11.95 11.33 12 11.33L13.33 11.33C13.37 11.33 13.42 11.32 13.46 11.32C13.5 11.31 13.54 11.29 13.58 11.28C13.62 11.26 13.66 11.24 13.7 11.22C13.74 11.19 13.77 11.16 13.8 11.13C13.83 11.1 13.86 11.07 13.88 11.03C13.91 11 13.93 10.96 13.94 10.92C13.96 10.88 13.97 10.83 13.98 10.79C13.99 10.75 14 10.71 14 10.66C14 10.62 13.99 10.57 13.98 10.53C13.97 10.49 13.96 10.45 13.94 10.41C13.93 10.37 13.91 10.33 13.88 10.29C13.86 10.25 13.83 10.22 13.8 10.19C13.77 10.16 13.74 10.13 13.7 10.11C13.66 10.08 13.62 10.06 13.58 10.05C13.54 10.03 13.5 10.02 13.46 10.01C13.42 10 13.37 10 13.33 10L12 10ZM4 6C4.06 6 4.13 5.99 4.19 5.99C4.26 5.98 4.32 5.97 4.39 5.96C4.45 5.94 4.51 5.93 4.58 5.91C4.64 5.89 4.7 5.87 4.76 5.84C4.82 5.82 4.88 5.79 4.94 5.76C5 5.73 5.05 5.69 5.11 5.66C5.16 5.62 5.21 5.58 5.26 5.54C5.31 5.5 5.36 5.46 5.41 5.41C5.46 5.36 5.5 5.31 5.54 5.26C5.58 5.21 5.62 5.16 5.66 5.11C5.69 5.05 5.73 5 5.76 4.94C5.79 4.88 5.82 4.82 5.84 4.76C5.87 4.7 5.89 4.64 5.91 4.58C5.93 4.51 5.94 4.45 5.96 4.39C5.97 4.32 5.98 4.26 5.99 4.19C5.99 4.13 6 4.06 6 4L6 2.66C6 2.62 5.99 2.57 5.98 2.53C5.97 2.49 5.96 2.45 5.94 2.41C5.93 2.37 5.91 2.33 5.88 2.29C5.86 2.25 5.83 2.22 5.8 2.19C5.77 2.16 5.73 2.13 5.7 2.11C5.66 2.08 5.62 2.06 5.58 2.05C5.54 2.03 5.5 2.02 5.46 2.01C5.42 2 5.37 2 5.33 2C5.28 2 5.24 2 5.2 2.01C5.16 2.02 5.11 2.03 5.07 2.05C5.03 2.06 4.99 2.08 4.96 2.11C4.92 2.13 4.89 2.16 4.86 2.19C4.83 2.22 4.8 2.25 4.77 2.29C4.75 2.33 4.73 2.37 4.71 2.41C4.7 2.45 4.68 2.49 4.67 2.53C4.67 2.57 4.66 2.62 4.66 2.66L4.66 4C4.66 4.04 4.66 4.08 4.65 4.12C4.64 4.17 4.63 4.21 4.61 4.25C4.59 4.29 4.57 4.33 4.55 4.37C4.53 4.4 4.5 4.44 4.47 4.47C4.44 4.5 4.4 4.52 4.37 4.55C4.33 4.57 4.29 4.59 4.25 4.61C4.21 4.63 4.17 4.64 4.13 4.65C4.08 4.66 4.04 4.66 4 4.66L2.66 4.66C2.62 4.66 2.57 4.67 2.53 4.67C2.49 4.68 2.45 4.7 2.41 4.71C2.37 4.73 2.33 4.75 2.29 4.77C2.26 4.8 2.22 4.83 2.19 4.86C2.16 4.89 2.13 4.92 2.11 4.96C2.08 4.99 2.06 5.03 2.05 5.07C2.03 5.11 2.02 5.16 2.01 5.2C2 5.24 2 5.28 2 5.33C2 5.37 2 5.42 2.01 5.46C2.02 5.5 2.03 5.54 2.05 5.58C2.06 5.62 2.08 5.66 2.11 5.7C2.13 5.74 2.16 5.77 2.19 5.8C2.22 5.83 2.26 5.86 2.29 5.88C2.33 5.91 2.37 5.93 2.41 5.94C2.45 5.96 2.49 5.97 2.53 5.98C2.57 5.99 2.62 6 2.66 6L4 6ZM12 6C11.93 6 11.86 5.99 11.8 5.99C11.73 5.98 11.67 5.97 11.6 5.96C11.54 5.94 11.48 5.93 11.41 5.91C11.35 5.89 11.29 5.87 11.23 5.84C11.17 5.82 11.11 5.79 11.05 5.76C10.99 5.73 10.94 5.69 10.88 5.66C10.83 5.62 10.78 5.58 10.73 5.54C10.68 5.5 10.63 5.46 10.58 5.41C10.53 5.36 10.49 5.31 10.45 5.26C10.41 5.21 10.37 5.16 10.33 5.11C10.3 5.05 10.26 5 10.23 4.94C10.2 4.88 10.17 4.82 10.15 4.76C10.12 4.7 10.1 4.64 10.08 4.58C10.06 4.51 10.05 4.45 10.03 4.39C10.02 4.32 10.01 4.26 10 4.19C10 4.13 10 4.06 10 4L10 2.66C10 2.62 10 2.57 10.01 2.53C10.02 2.49 10.03 2.45 10.05 2.41C10.06 2.37 10.08 2.33 10.11 2.29C10.13 2.25 10.16 2.22 10.19 2.19C10.22 2.16 10.26 2.13 10.29 2.11C10.33 2.08 10.37 2.06 10.41 2.05C10.45 2.03 10.49 2.02 10.53 2.01C10.57 2 10.62 2 10.66 2C10.71 2 10.75 2 10.79 2.01C10.83 2.02 10.88 2.03 10.92 2.05C10.96 2.06 11 2.08 11.03 2.11C11.07 2.13 11.1 2.16 11.13 2.19C11.16 2.22 11.19 2.25 11.22 2.29C11.24 2.33 11.26 2.37 11.28 2.41C11.29 2.45 11.31 2.49 11.32 2.53C11.32 2.57 11.33 2.62 11.33 2.66L11.33 4C11.33 4.04 11.33 4.08 11.34 4.12C11.35 4.17 11.36 4.21 11.38 4.25C11.4 4.29 11.42 4.33 11.44 4.37C11.47 4.4 11.49 4.44 11.52 4.47C11.55 4.5 11.59 4.52 11.62 4.55C11.66 4.57 11.7 4.59 11.74 4.61C11.78 4.63 11.82 4.64 11.86 4.65C11.91 4.66 11.95 4.66 12 4.66L13.33 4.66C13.37 4.66 13.42 4.67 13.46 4.67C13.5 4.68 13.54 4.7 13.58 4.71C13.62 4.73 13.66 4.75 13.7 4.77C13.74 4.8 13.77 4.83 13.8 4.86C13.83 4.89 13.86 4.92 13.88 4.96C13.91 4.99 13.93 5.03 13.94 5.07C13.96 5.11 13.97 5.16 13.98 5.2C13.99 5.24 14 5.28 14 5.33C14 5.37 13.99 5.42 13.98 5.46C13.97 5.5 13.96 5.54 13.94 5.58C13.93 5.62 13.91 5.66 13.88 5.7C13.86 5.74 13.83 5.77 13.8 5.8C13.77 5.83 13.74 5.86 13.7 5.88C13.66 5.91 13.62 5.93 13.58 5.94C13.54 5.96 13.5 5.97 13.46 5.98C13.42 5.99 13.37 6 13.33 6L12 6Z" fill="#000000" fill-opacity="1.000000" fill-rule="nonzero"/>
	</g>
</svg>
