<svg width="16.000000" height="16.000000" viewBox="0 0 16 16" fill="none" xmlns="http://www.w3.org/2000/svg" xmlns:xlink="http://www.w3.org/1999/xlink">
	<desc>
			Created with Pixso.
	</desc>
	<defs>
		<clipPath id="clip77_14">
			<rect id="git" width="16.000000" height="16.000000" fill="white" fill-opacity="0"/>
		</clipPath>
	</defs>
	<g clip-path="url(#clip77_14)">
		<path id="path" d="M15.69 7.28L8.71 0.3C8.68 0.27 8.66 0.25 8.63 0.23C8.61 0.21 8.58 0.19 8.55 0.17C8.52 0.15 8.49 0.13 8.47 0.12C8.44 0.1 8.4 0.09 8.37 0.07C8.34 0.06 8.31 0.05 8.28 0.04C8.25 0.03 8.21 0.02 8.18 0.02C8.15 0.01 8.11 0 8.08 0C8.05 0 8.01 0 7.98 0C7.95 0 7.91 0 7.88 0C7.84 0 7.81 0.01 7.78 0.02C7.74 0.02 7.71 0.03 7.68 0.04C7.65 0.05 7.62 0.06 7.58 0.07C7.55 0.09 7.52 0.1 7.49 0.12C7.46 0.13 7.43 0.15 7.41 0.17C7.38 0.19 7.35 0.21 7.33 0.23C7.3 0.25 7.27 0.27 7.25 0.3L5.63 1.92L6.85 3.14C6.92 3.11 6.99 3.08 7.06 3.06C7.14 3.04 7.21 3.02 7.29 3.01C7.37 3 7.44 2.99 7.52 3C7.6 3 7.67 3 7.75 3.02C7.82 3.03 7.9 3.05 7.97 3.07C8.05 3.1 8.12 3.13 8.18 3.16C8.25 3.2 8.32 3.24 8.38 3.28C8.44 3.33 8.5 3.38 8.56 3.43C8.61 3.49 8.66 3.55 8.71 3.61C8.75 3.67 8.79 3.74 8.83 3.81C8.86 3.87 8.89 3.94 8.92 4.02C8.94 4.09 8.96 4.17 8.97 4.24C8.99 4.32 8.99 4.39 9 4.47C9 4.55 8.99 4.62 8.98 4.7C8.97 4.78 8.95 4.85 8.93 4.93C8.91 5 8.88 5.07 8.85 5.14L10.85 7.14C10.9 7.12 10.96 7.09 11.01 7.07C11.07 7.06 11.12 7.04 11.18 7.03C11.24 7.02 11.29 7.01 11.35 7C11.41 7 11.47 6.99 11.53 7C11.59 7 11.64 7 11.7 7.01C11.76 7.02 11.82 7.03 11.87 7.04C11.93 7.06 11.99 7.08 12.04 7.1C12.09 7.12 12.15 7.14 12.2 7.17C12.25 7.2 12.3 7.23 12.35 7.26C12.4 7.29 12.44 7.33 12.49 7.37C12.53 7.41 12.57 7.45 12.61 7.49C12.65 7.54 12.69 7.58 12.72 7.63C12.75 7.68 12.78 7.73 12.81 7.78C12.84 7.83 12.87 7.88 12.89 7.94C12.91 7.99 12.93 8.04 12.94 8.1C12.96 8.16 12.97 8.21 12.98 8.27C12.99 8.33 12.99 8.39 12.99 8.45C13 8.51 12.99 8.56 12.99 8.62C12.98 8.68 12.98 8.74 12.96 8.79C12.95 8.85 12.94 8.91 12.92 8.96C12.9 9.02 12.88 9.07 12.86 9.13C12.83 9.18 12.8 9.23 12.77 9.28C12.74 9.33 12.71 9.38 12.67 9.42C12.64 9.47 12.6 9.51 12.56 9.56C12.51 9.6 12.47 9.64 12.42 9.67C12.38 9.71 12.33 9.74 12.28 9.77C12.23 9.8 12.18 9.83 12.13 9.85C12.07 9.88 12.02 9.9 11.96 9.92C11.91 9.94 11.85 9.95 11.8 9.96C11.74 9.98 11.68 9.98 11.62 9.99C11.56 9.99 11.51 10 11.45 9.99C11.39 9.99 11.33 9.99 11.27 9.98C11.22 9.97 11.16 9.96 11.1 9.94C11.05 9.93 10.99 9.91 10.94 9.89C10.88 9.86 10.83 9.84 10.78 9.81C10.73 9.78 10.68 9.75 10.63 9.72C10.58 9.69 10.54 9.65 10.49 9.61C10.45 9.57 10.41 9.53 10.37 9.49C10.33 9.44 10.29 9.4 10.26 9.35C10.23 9.3 10.2 9.25 10.17 9.2C10.14 9.15 10.12 9.09 10.1 9.04C10.08 8.98 10.06 8.93 10.04 8.87C10.03 8.82 10.02 8.76 10.01 8.7C10 8.64 10 8.58 10 8.53C9.99 8.47 10 8.41 10 8.35C10.01 8.29 10.02 8.24 10.03 8.18C10.04 8.12 10.06 8.07 10.08 8.01C10.09 7.95 10.12 7.9 10.14 7.85L8.14 5.85C8.09 5.87 8.05 5.89 8 5.91L8 10.08C8.05 10.1 8.1 10.12 8.16 10.15C8.21 10.17 8.26 10.2 8.31 10.23C8.36 10.27 8.41 10.3 8.45 10.34C8.5 10.37 8.54 10.41 8.58 10.46C8.62 10.5 8.66 10.54 8.69 10.59C8.73 10.64 8.76 10.69 8.79 10.74C8.82 10.79 8.85 10.84 8.87 10.89C8.89 10.95 8.91 11 8.93 11.06C8.95 11.11 8.96 11.17 8.97 11.23C8.98 11.28 8.99 11.34 8.99 11.4C9 11.46 9 11.52 8.99 11.57C8.99 11.63 8.98 11.69 8.97 11.75C8.96 11.81 8.95 11.86 8.93 11.92C8.92 11.98 8.9 12.03 8.88 12.08C8.85 12.14 8.83 12.19 8.8 12.24C8.77 12.29 8.74 12.34 8.7 12.39C8.67 12.43 8.63 12.48 8.59 12.52C8.55 12.56 8.51 12.6 8.46 12.64C8.42 12.68 8.37 12.71 8.32 12.75C8.27 12.78 8.22 12.81 8.17 12.83C8.12 12.86 8.06 12.88 8.01 12.9C7.96 12.92 7.9 12.94 7.84 12.95C7.79 12.97 7.73 12.98 7.67 12.98C7.61 12.99 7.55 12.99 7.5 12.99C7.44 12.99 7.38 12.99 7.32 12.98C7.26 12.98 7.21 12.97 7.15 12.95C7.09 12.94 7.04 12.92 6.98 12.9C6.93 12.88 6.87 12.86 6.82 12.83C6.77 12.81 6.72 12.78 6.67 12.75C6.62 12.71 6.57 12.68 6.53 12.64C6.48 12.6 6.44 12.56 6.4 12.52C6.36 12.48 6.32 12.43 6.29 12.39C6.25 12.34 6.22 12.29 6.19 12.24C6.16 12.19 6.14 12.14 6.12 12.08C6.09 12.03 6.07 11.98 6.06 11.92C6.04 11.86 6.03 11.81 6.02 11.75C6.01 11.69 6 11.63 6 11.57C5.99 11.52 5.99 11.46 6 11.4C6 11.34 6.01 11.28 6.02 11.23C6.03 11.17 6.04 11.11 6.06 11.06C6.08 11 6.1 10.95 6.12 10.89C6.15 10.84 6.17 10.79 6.2 10.74C6.23 10.69 6.26 10.64 6.3 10.59C6.33 10.54 6.37 10.5 6.41 10.46C6.45 10.41 6.5 10.37 6.54 10.34C6.59 10.3 6.63 10.27 6.68 10.23C6.73 10.2 6.78 10.17 6.83 10.15C6.89 10.12 6.94 10.1 7 10.08L7 5.91C6.95 5.89 6.9 5.87 6.85 5.85C6.8 5.83 6.76 5.8 6.71 5.77C6.67 5.75 6.62 5.72 6.58 5.68C6.54 5.65 6.5 5.62 6.46 5.58C6.42 5.55 6.39 5.51 6.35 5.47C6.32 5.43 6.29 5.39 6.26 5.34C6.23 5.3 6.2 5.26 6.18 5.21C6.15 5.16 6.13 5.12 6.11 5.07C6.09 5.02 6.07 4.97 6.06 4.92C6.04 4.87 6.03 4.82 6.02 4.77C6.01 4.72 6 4.66 6 4.61C6 4.56 5.99 4.51 6 4.45C6 4.4 6 4.35 6.01 4.3C6.02 4.25 6.02 4.19 6.04 4.14C6.05 4.09 6.06 4.04 6.08 3.99C6.1 3.94 6.12 3.9 6.14 3.85L4.92 2.63L0.3 7.25C0.27 7.27 0.25 7.3 0.23 7.32C0.21 7.35 0.19 7.38 0.17 7.41C0.15 7.43 0.13 7.46 0.12 7.49C0.1 7.52 0.09 7.55 0.07 7.58C0.06 7.62 0.05 7.65 0.04 7.68C0.03 7.71 0.02 7.74 0.01 7.78C0.01 7.81 0 7.84 0 7.88C0 7.91 0 7.94 0 7.98C0 8.01 0 8.05 0 8.08C0 8.11 0.01 8.15 0.01 8.18C0.02 8.21 0.03 8.25 0.04 8.28C0.05 8.31 0.06 8.34 0.07 8.37C0.09 8.4 0.1 8.43 0.12 8.46C0.13 8.49 0.15 8.52 0.17 8.55C0.19 8.58 0.21 8.61 0.23 8.63C0.25 8.66 0.27 8.68 0.3 8.71L7.28 15.69C7.31 15.72 7.33 15.74 7.36 15.76C7.38 15.78 7.41 15.8 7.44 15.82C7.47 15.84 7.5 15.86 7.53 15.87C7.56 15.89 7.59 15.9 7.62 15.92C7.65 15.93 7.68 15.94 7.71 15.95C7.75 15.96 7.78 15.97 7.81 15.97C7.84 15.98 7.88 15.99 7.91 15.99C7.94 15.99 7.98 15.99 8.01 15.99C8.05 15.99 8.08 15.99 8.11 15.99C8.15 15.99 8.18 15.98 8.21 15.97C8.25 15.97 8.28 15.96 8.31 15.95C8.34 15.94 8.38 15.93 8.41 15.92C8.44 15.9 8.47 15.89 8.5 15.87C8.53 15.86 8.56 15.84 8.58 15.82C8.61 15.8 8.64 15.78 8.67 15.76C8.69 15.74 8.72 15.72 8.74 15.69L15.69 8.74C15.72 8.72 15.74 8.69 15.76 8.66C15.78 8.64 15.8 8.61 15.82 8.58C15.84 8.56 15.86 8.53 15.87 8.5C15.89 8.47 15.9 8.44 15.92 8.41C15.93 8.37 15.94 8.34 15.95 8.31C15.96 8.28 15.97 8.25 15.98 8.21C15.98 8.18 15.99 8.15 15.99 8.11C15.99 8.08 16 8.04 16 8.01C16 7.98 15.99 7.94 15.99 7.91C15.99 7.88 15.98 7.84 15.98 7.81C15.97 7.78 15.96 7.74 15.95 7.71C15.94 7.68 15.93 7.65 15.92 7.62C15.9 7.58 15.89 7.55 15.87 7.52C15.86 7.5 15.84 7.47 15.82 7.44C15.8 7.41 15.78 7.38 15.76 7.36C15.74 7.33 15.72 7.31 15.69 7.28Z" fill="currentColor" fill-opacity="1.000000" fill-rule="nonzero"/>
	</g>
</svg>
