<svg width="16.000000" height="16.000000" viewBox="0 0 16 16" fill="none" xmlns="http://www.w3.org/2000/svg" xmlns:xlink="http://www.w3.org/1999/xlink">
	<desc>
			Created with Pixso.
	</desc>
	<defs>
		<clipPath id="clip91_7">
			<rect id="1098-@-职位" width="16.000000" height="16.000000" fill="white" fill-opacity="0"/>
		</clipPath>
	</defs>
	<g clip-path="url(#clip91_7)">
		<path id="path" d="M4.8 14.41L2.7 14.41C2.67 14.41 2.64 14.41 2.61 14.39C2.59 14.38 2.56 14.37 2.54 14.34C2.52 14.32 2.5 14.3 2.49 14.27C2.48 14.24 2.47 14.21 2.47 14.18L2.47 1.81C2.47 1.69 2.58 1.58 2.7 1.58L13.28 1.58C13.41 1.58 13.52 1.69 13.52 1.81L13.52 8.48L14.44 8.88L14.44 1.81C14.44 1.18 13.92 0.67 13.28 0.67L2.7 0.67C2.66 0.67 2.62 0.67 2.59 0.68C2.55 0.68 2.51 0.68 2.48 0.69C2.44 0.7 2.4 0.71 2.37 0.72C2.33 0.73 2.3 0.74 2.26 0.76C2.23 0.77 2.19 0.79 2.16 0.8C2.13 0.82 2.09 0.84 2.06 0.86C2.03 0.88 2 0.91 1.97 0.93C1.94 0.95 1.91 0.98 1.89 1C1.86 1.03 1.84 1.06 1.81 1.09C1.79 1.12 1.77 1.15 1.74 1.18C1.72 1.21 1.7 1.24 1.69 1.27C1.67 1.31 1.65 1.34 1.64 1.37C1.62 1.41 1.61 1.44 1.6 1.48C1.59 1.52 1.58 1.55 1.57 1.59C1.56 1.63 1.56 1.66 1.55 1.7C1.55 1.74 1.55 1.78 1.55 1.81L1.55 14.18C1.55 14.81 2.07 15.32 2.7 15.32L4.8 15.32L4.8 14.41ZM12.26 7.26C12.26 7.19 12.26 7.12 12.25 7.05C12.24 6.98 12.23 6.91 12.22 6.84C12.2 6.77 12.19 6.7 12.17 6.63C12.15 6.56 12.12 6.5 12.09 6.43C12.07 6.36 12.04 6.3 12 6.24C11.97 6.17 11.93 6.11 11.89 6.05C11.85 6 11.81 5.94 11.77 5.88C11.72 5.83 11.67 5.78 11.62 5.73C11.57 5.68 11.52 5.63 11.46 5.58C11.41 5.54 11.35 5.5 11.29 5.46C11.23 5.42 11.17 5.38 11.11 5.35C11.05 5.31 10.98 5.28 10.92 5.26C10.85 5.23 10.79 5.21 10.72 5.19C10.65 5.17 10.58 5.15 10.51 5.13C10.44 5.12 10.37 5.11 10.3 5.1C10.23 5.1 10.16 5.09 10.09 5.09C10.02 5.09 9.94 5.1 9.87 5.1C9.8 5.11 9.73 5.12 9.66 5.13C9.59 5.15 9.52 5.16 9.46 5.19C9.39 5.21 9.32 5.23 9.26 5.26C9.19 5.28 9.13 5.31 9.06 5.35C9 5.38 8.94 5.42 8.88 5.46C8.82 5.5 8.76 5.54 8.71 5.58C8.65 5.63 8.6 5.68 8.55 5.73C8.5 5.78 8.45 5.83 8.41 5.88C8.36 5.94 8.32 6 8.28 6.05C8.24 6.11 8.2 6.17 8.17 6.24C8.14 6.3 8.11 6.36 8.08 6.43C8.05 6.5 8.03 6.56 8.01 6.63C7.98 6.7 7.97 6.77 7.95 6.84C7.94 6.91 7.93 6.98 7.92 7.05C7.91 7.12 7.91 7.19 7.91 7.26C7.91 8.45 8.88 9.43 10.09 9.43C11.28 9.42 12.26 8.45 12.26 7.26ZM12.98 10.14L12.58 10.14L10.33 14.7L11.18 10.5L10.09 9.42L9 10.5L9.84 14.7L7.59 10.14L7.19 10.14C5.74 10.14 5.74 11.12 5.74 12.31L5.74 15.32L14.44 15.32L14.44 12.31C14.44 11.11 14.43 10.14 12.98 10.14ZM3.93 3.07L12.02 3.07L12.02 3.91L3.93 3.91L3.93 3.07ZM3.93 5.22L6.71 5.22L6.71 6.14L3.93 6.14L3.93 5.22ZM3.93 7.57L7.05 7.57L7.05 8.41L3.93 8.41L3.93 7.57Z" fill="currentColor" fill-opacity="1.000000" fill-rule="nonzero"/>
	</g>
</svg>
