<svg width="16.000000" height="16.000000" viewBox="0 0 16 16" fill="none" xmlns="http://www.w3.org/2000/svg" xmlns:xlink="http://www.w3.org/1999/xlink">
	<desc>
			Created with Pixso.
	</desc>
	<defs>
		<clipPath id="clip74_9">
			<rect id="代偿名单管理" width="16.000000" height="16.000000" fill="white" fill-opacity="0"/>
		</clipPath>
	</defs>
	<g clip-path="url(#clip74_9)">
		<path id="path" d="M6.05 6.7C6.05 6.88 6.2 7.03 6.38 7.03L12.6 7.03C12.62 7.03 12.64 7.02 12.66 7.02C12.69 7.02 12.71 7.01 12.73 7C12.75 6.99 12.76 6.98 12.78 6.97C12.8 6.96 12.82 6.95 12.83 6.93C12.85 6.92 12.86 6.9 12.87 6.88C12.88 6.86 12.89 6.85 12.9 6.83C12.91 6.81 12.91 6.79 12.92 6.77C12.92 6.75 12.92 6.72 12.93 6.7C12.93 6.68 12.92 6.66 12.92 6.64C12.92 6.62 12.91 6.6 12.9 6.58C12.89 6.56 12.88 6.54 12.87 6.52C12.86 6.5 12.85 6.49 12.83 6.47C12.82 6.45 12.8 6.44 12.78 6.43C12.77 6.42 12.75 6.41 12.73 6.4C12.71 6.39 12.69 6.38 12.67 6.38C12.64 6.37 12.62 6.37 12.6 6.37L6.38 6.37C6.35 6.37 6.33 6.37 6.31 6.38C6.29 6.38 6.27 6.39 6.25 6.4C6.23 6.41 6.21 6.42 6.2 6.43C6.18 6.44 6.16 6.45 6.15 6.47C6.13 6.49 6.12 6.5 6.11 6.52C6.1 6.54 6.09 6.56 6.08 6.58C6.07 6.6 6.06 6.62 6.06 6.64C6.06 6.66 6.05 6.68 6.05 6.7ZM10.04 8.68L6.38 8.68C6.35 8.68 6.33 8.68 6.31 8.68C6.29 8.69 6.27 8.69 6.25 8.7C6.23 8.71 6.21 8.72 6.2 8.73C6.18 8.75 6.16 8.76 6.15 8.78C6.13 8.79 6.12 8.81 6.11 8.83C6.1 8.84 6.09 8.86 6.08 8.88C6.07 8.9 6.06 8.92 6.06 8.94C6.06 8.96 6.05 8.99 6.05 9.01C6.05 9.19 6.2 9.33 6.56 9.33L10.22 9.33C10.21 9.33 10.35 9.19 10.35 9.01C10.35 8.99 10.35 8.96 10.35 8.94C10.35 8.92 10.34 8.9 10.33 8.88C10.32 8.86 10.31 8.84 10.3 8.83C10.29 8.81 10.28 8.79 10.26 8.78C10.25 8.76 10.23 8.75 10.22 8.73C10.2 8.72 10.18 8.71 10.16 8.7C10.14 8.7 10.12 8.69 10.1 8.68C10.08 8.68 10.06 8.68 10.04 8.68ZM12.07 11.31C12.07 11.28 12.07 11.26 12.06 11.24C12.06 11.22 12.05 11.2 12.05 11.18C12.04 11.16 12.03 11.14 12.02 11.12C12 11.11 11.99 11.09 11.98 11.08C11.96 11.06 11.94 11.05 11.93 11.03C11.91 11.02 11.89 11.01 11.87 11C11.85 11 11.83 10.99 11.81 10.98C11.79 10.98 11.77 10.98 11.75 10.98L7.18 10.98C7.28 11.19 7.36 11.4 7.42 11.63L11.75 11.63C11.77 11.63 11.79 11.63 11.81 11.62C11.83 11.62 11.85 11.61 11.87 11.61C11.89 11.6 11.91 11.59 11.93 11.58C11.94 11.56 11.96 11.55 11.98 11.54C11.99 11.52 12 11.5 12.02 11.49C12.03 11.47 12.04 11.45 12.05 11.43C12.05 11.41 12.06 11.39 12.06 11.37C12.07 11.35 12.07 11.33 12.07 11.31ZM14.98 4.98L11.45 1.14C11.35 1.05 11.34 0.99 11.21 0.99L5.07 0.99C4.7 0.99 4.36 1.15 4.12 1.4C3.87 1.65 3.96 1.86 3.96 2.25L3.99 8.84C4.15 8.84 4.31 8.85 4.47 8.87L4.47 2.46C4.47 2.05 4.8 1.71 5.21 1.71L10.85 1.71L10.85 4.19C10.85 4.52 10.98 4.83 11.21 5.07C11.43 5.3 11.74 5.43 12.07 5.43L14.51 5.43L14.51 12.95C14.51 13.36 14.06 13.87 13.65 13.87L7.89 13.87C8.05 14.04 7.99 14.11 7.99 14.38L7.99 14.42L13.9 14.42C14.26 14.42 14.6 14.27 14.86 14.01C15.11 13.76 14.98 13.37 14.98 12.99L14.98 5.09C14.98 4.95 15.08 5.09 14.98 4.98ZM12.07 4.95C11.91 4.95 11.5 4.75 11.5 4.75C11.41 4.64 11.34 4.34 11.34 4.18L11.37 1.98L14.12 4.95L12.07 4.95ZM7.11 14.15C7.11 14.15 7.08 14.18 7.06 14.18L6.97 14.18C6.94 14.18 6.89 14.2 6.89 14.23L6.83 14.35C6.8 14.37 6.83 14.43 6.86 14.46L6.92 14.51C6.92 14.51 6.94 14.54 6.94 14.57C6.94 14.6 6.94 14.6 6.92 14.63L6.8 14.74C6.8 14.74 6.78 14.77 6.75 14.77C6.72 14.77 6.72 14.77 6.69 14.74L6.63 14.68C6.61 14.65 6.55 14.65 6.52 14.65L6.41 14.71C6.38 14.71 6.35 14.77 6.35 14.79L6.35 14.88C6.35 14.91 6.35 14.91 6.33 14.93C6.33 14.93 6.3 14.96 6.27 14.96L6.1 14.96C6.07 14.96 6.07 14.96 6.05 14.93C6.05 14.93 6.02 14.91 6.02 14.88L6.02 14.79C6.02 14.77 5.99 14.71 5.96 14.71L5.85 14.65C5.82 14.62 5.76 14.65 5.74 14.68L5.68 14.74C5.68 14.74 5.65 14.76 5.62 14.76C5.6 14.76 5.6 14.76 5.57 14.74L5.46 14.62C5.46 14.62 5.43 14.6 5.43 14.57C5.43 14.54 5.43 14.54 5.46 14.51L5.51 14.46C5.54 14.43 5.54 14.37 5.54 14.34L5.49 14.23C5.49 14.21 5.43 14.18 5.4 14.18L5.32 14.18C5.29 14.18 5.29 14.18 5.26 14.15C5.26 14.15 5.23 14.12 5.23 14.09L5.23 13.92C5.23 13.89 5.23 13.89 5.26 13.87C5.26 13.87 5.29 13.84 5.32 13.84L5.4 13.84C5.43 13.84 5.48 13.81 5.48 13.78L5.54 13.67C5.57 13.64 5.54 13.59 5.51 13.56L5.46 13.5C5.46 13.5 5.43 13.48 5.43 13.45C5.43 13.42 5.43 13.42 5.46 13.39L5.57 13.28C5.57 13.28 5.6 13.25 5.62 13.25C5.65 13.25 5.65 13.25 5.68 13.28L5.74 13.33C5.76 13.36 5.82 13.36 5.85 13.36L5.96 13.31C5.99 13.31 6.02 13.25 6.02 13.22L6.02 13.14C6.02 13.11 6.02 13.11 6.05 13.08C6.05 13.08 6.07 13.05 6.1 13.05L6.27 13.05C6.3 13.05 6.3 13.05 6.33 13.08C6.33 13.08 6.35 13.11 6.35 13.14L6.35 13.22C6.35 13.25 6.38 13.31 6.41 13.31L6.52 13.36C6.55 13.39 6.61 13.36 6.63 13.33L6.69 13.28C6.69 13.28 6.72 13.25 6.75 13.25C6.78 13.25 6.78 13.25 6.8 13.28L6.92 13.39C6.92 13.39 6.94 13.42 6.94 13.45C6.94 13.47 6.94 13.47 6.92 13.5L6.86 13.56C6.83 13.59 6.83 13.64 6.83 13.67L6.89 13.78C6.89 13.81 6.94 13.84 6.97 13.84L7.06 13.84C7.08 13.84 7.08 13.84 7.11 13.87C7.11 13.87 7.14 13.89 7.14 13.92L7.14 14.09C7.14 14.12 7.14 14.15 7.11 14.15ZM6.21 13.67C6.19 13.67 6.17 13.68 6.14 13.68C6.12 13.69 6.1 13.69 6.08 13.7C6.05 13.71 6.03 13.72 6.01 13.74C5.99 13.75 5.98 13.76 5.96 13.78C5.94 13.8 5.93 13.82 5.91 13.84C5.9 13.86 5.89 13.88 5.88 13.9C5.87 13.92 5.86 13.94 5.86 13.97C5.85 13.99 5.85 14.01 5.85 14.04C5.85 14.06 5.85 14.08 5.86 14.11C5.86 14.13 5.87 14.15 5.88 14.17C5.89 14.2 5.9 14.22 5.91 14.24C5.93 14.26 5.94 14.27 5.96 14.29C5.98 14.31 5.99 14.32 6.01 14.34C6.03 14.35 6.05 14.36 6.08 14.37C6.1 14.38 6.12 14.39 6.14 14.39C6.17 14.4 6.19 14.4 6.21 14.4C6.24 14.4 6.26 14.4 6.28 14.39C6.31 14.39 6.33 14.38 6.35 14.37C6.37 14.36 6.4 14.35 6.42 14.34C6.44 14.32 6.45 14.31 6.47 14.29C6.49 14.28 6.5 14.26 6.52 14.24C6.53 14.22 6.54 14.2 6.55 14.17C6.56 14.15 6.57 14.13 6.57 14.11C6.58 14.08 6.58 14.06 6.58 14.04C6.58 14.01 6.58 13.99 6.57 13.96C6.57 13.94 6.56 13.92 6.55 13.89C6.55 13.87 6.53 13.85 6.52 13.83C6.51 13.81 6.49 13.79 6.48 13.78C6.46 13.76 6.44 13.74 6.42 13.73C6.4 13.72 6.38 13.71 6.36 13.7C6.33 13.69 6.31 13.68 6.29 13.68C6.26 13.67 6.24 13.67 6.21 13.67ZM5.26 12.41C5.46 12.49 5.65 12.61 5.82 12.72C5.91 12.77 5.93 12.89 5.85 12.97C5.79 13.06 5.68 13.08 5.6 13C5.42 12.86 5.22 12.76 5 12.68C4.79 12.61 4.56 12.58 4.34 12.58C3.8 12.58 3.3 12.77 2.91 13.14C2.81 13.23 2.72 13.33 2.64 13.43C2.56 13.53 2.49 13.64 2.43 13.76C2.37 13.88 2.32 14 2.28 14.13C2.25 14.25 2.22 14.38 2.21 14.51C2.21 14.6 2.12 14.68 2.01 14.68L1.98 14.68C1.87 14.68 1.81 14.57 1.81 14.49C1.83 14.33 1.87 14.19 1.91 14.04C1.96 13.89 2.01 13.75 2.08 13.62C2.15 13.48 2.23 13.35 2.32 13.23C2.41 13.11 2.52 12.99 2.63 12.89C2.85 12.69 3.1 12.52 3.36 12.41C3.24 12.33 3.13 12.24 3.05 12.16C2.96 12.07 2.89 11.98 2.82 11.88C2.75 11.78 2.7 11.68 2.65 11.57C2.6 11.46 2.57 11.34 2.55 11.22C2.52 11.11 2.51 10.99 2.51 10.87C2.51 10.39 2.71 9.94 3.05 9.58C3.13 9.5 3.22 9.42 3.32 9.35C3.41 9.29 3.52 9.23 3.62 9.19C3.73 9.14 3.84 9.11 3.96 9.08C4.08 9.06 4.19 9.05 4.31 9.05C4.79 9.05 5.23 9.24 5.57 9.58C5.91 9.91 6.07 10.36 6.07 10.87C6.07 11.35 5.88 11.79 5.57 12.16C5.46 12.23 5.36 12.32 5.26 12.41ZM5.29 9.86C5.23 9.79 5.16 9.73 5.08 9.68C5.01 9.63 4.93 9.58 4.84 9.55C4.76 9.51 4.67 9.48 4.58 9.46C4.49 9.45 4.4 9.44 4.31 9.44C3.94 9.44 3.58 9.58 3.33 9.86C3.07 10.14 2.91 10.48 2.91 10.87C2.91 11.26 3.05 11.6 3.33 11.88C3.49 12.05 3.72 12.19 3.94 12.24C4.06 12.27 4.14 12.3 4.25 12.3C4.39 12.3 4.56 12.3 4.7 12.24C4.92 12.18 5.15 12.05 5.32 11.88C5.57 11.6 5.74 11.26 5.74 10.87C5.73 10.68 5.68 10.5 5.6 10.32C5.53 10.15 5.42 9.99 5.29 9.86Z" fill="currentColor" fill-opacity="1.000000" fill-rule="nonzero"/>
	</g>
</svg>
