<svg width="16.000000" height="16.000000" viewBox="0 0 16 16" fill="none" xmlns="http://www.w3.org/2000/svg" xmlns:xlink="http://www.w3.org/1999/xlink">
	<desc>
			Created with Pixso.
	</desc>
	<defs>
		<clipPath id="clip75_1">
			<rect id="outline-java-script" width="16.000000" height="16.000000" fill="white" fill-opacity="0"/>
		</clipPath>
	</defs>
	<g clip-path="url(#clip75_1)">
		<path id="path" d="M8 15.14C7.89 15.14 7.78 15.12 7.68 15.09L3.62 13.93C3.57 13.91 3.51 13.89 3.46 13.87C3.41 13.85 3.36 13.82 3.31 13.79C3.26 13.76 3.21 13.72 3.17 13.68C3.13 13.64 3.09 13.6 3.05 13.56C3.01 13.52 2.98 13.47 2.95 13.42C2.92 13.37 2.89 13.32 2.87 13.27C2.85 13.21 2.83 13.16 2.81 13.1C2.8 13.05 2.79 12.99 2.78 12.93L1.58 2.12C1.58 2.08 1.58 2.04 1.57 2C1.57 1.96 1.58 1.92 1.58 1.88C1.59 1.84 1.59 1.8 1.6 1.76C1.61 1.72 1.62 1.68 1.63 1.64C1.64 1.6 1.66 1.56 1.67 1.52C1.69 1.49 1.71 1.45 1.73 1.41C1.75 1.38 1.77 1.34 1.8 1.31C1.82 1.28 1.85 1.25 1.87 1.22C1.9 1.19 1.93 1.16 1.96 1.13C1.99 1.1 2.02 1.08 2.06 1.05C2.09 1.03 2.12 1.01 2.16 0.99C2.19 0.97 2.23 0.95 2.27 0.93C2.3 0.91 2.34 0.9 2.38 0.89C2.42 0.87 2.46 0.86 2.5 0.85C2.54 0.85 2.58 0.84 2.62 0.83C2.66 0.83 2.7 0.83 2.74 0.83L13.26 0.83C13.34 0.83 13.42 0.84 13.5 0.85C13.58 0.87 13.66 0.9 13.73 0.93C13.81 0.96 13.88 1 13.94 1.05C14.01 1.1 14.07 1.15 14.12 1.22C14.18 1.28 14.22 1.34 14.27 1.41C14.31 1.49 14.34 1.56 14.36 1.64C14.39 1.72 14.41 1.8 14.42 1.88C14.42 1.96 14.42 2.04 14.42 2.12L13.22 12.94C13.21 12.99 13.2 13.05 13.18 13.11C13.17 13.16 13.15 13.22 13.13 13.27C13.1 13.32 13.08 13.37 13.05 13.42C13.02 13.47 12.98 13.52 12.95 13.56C12.91 13.6 12.87 13.65 12.83 13.68C12.78 13.72 12.74 13.76 12.69 13.79C12.64 13.82 12.59 13.85 12.54 13.87C12.49 13.89 12.43 13.91 12.38 13.93L8.32 15.09C8.22 15.12 8.11 15.14 8 15.14ZM2.74 1.83C2.69 1.83 2.65 1.85 2.62 1.88C2.58 1.92 2.57 1.96 2.58 2.01L3.78 12.82C3.78 12.86 3.79 12.89 3.81 12.91C3.83 12.94 3.86 12.95 3.9 12.96L7.95 14.12C7.98 14.13 8.01 14.13 8.04 14.12L12.1 12.96C12.13 12.95 12.16 12.94 12.18 12.91C12.2 12.88 12.21 12.86 12.22 12.82L13.42 2.01C13.42 1.96 13.41 1.92 13.38 1.89L13.38 1.88C13.34 1.85 13.3 1.83 13.25 1.83L2.74 1.83ZM6.94 11.14L4.86 10.54C4.82 10.53 4.79 10.51 4.76 10.5C4.73 10.48 4.71 10.47 4.68 10.45C4.66 10.42 4.63 10.4 4.61 10.38C4.59 10.35 4.57 10.32 4.56 10.3C4.54 10.27 4.53 10.24 4.52 10.21C4.51 10.17 4.5 10.14 4.5 10.11C4.49 10.08 4.49 10.04 4.5 10.01C4.5 9.98 4.51 9.95 4.52 9.91C4.52 9.88 4.54 9.85 4.55 9.82C4.57 9.8 4.58 9.77 4.61 9.74C4.63 9.72 4.65 9.69 4.67 9.67C4.7 9.65 4.73 9.63 4.75 9.62C4.78 9.6 4.81 9.59 4.84 9.58C4.88 9.57 4.91 9.56 4.94 9.56C4.97 9.55 5.01 9.55 5.04 9.56C5.07 9.56 5.1 9.57 5.14 9.58L6.58 9.99L6.58 4.67C6.58 4.64 6.58 4.6 6.58 4.57C6.59 4.54 6.6 4.51 6.61 4.48C6.63 4.45 6.64 4.42 6.66 4.39C6.68 4.36 6.7 4.34 6.72 4.31C6.74 4.29 6.77 4.27 6.8 4.25C6.82 4.23 6.85 4.22 6.88 4.21C6.91 4.19 6.95 4.18 6.98 4.18C7.01 4.17 7.04 4.17 7.08 4.17C7.11 4.17 7.14 4.17 7.17 4.18C7.2 4.18 7.24 4.19 7.27 4.21C7.3 4.22 7.33 4.23 7.35 4.25C7.38 4.27 7.41 4.29 7.43 4.31C7.45 4.34 7.47 4.36 7.49 4.39C7.51 4.42 7.52 4.45 7.54 4.48C7.55 4.51 7.56 4.54 7.57 4.57C7.57 4.6 7.58 4.64 7.58 4.67L7.58 10.65C7.58 10.73 7.56 10.8 7.52 10.87C7.49 10.94 7.44 11 7.38 11.05C7.29 11.12 7.19 11.15 7.08 11.16C7.03 11.16 6.98 11.15 6.94 11.14ZM8.11 10.78C8.1 10.75 8.1 10.72 8.09 10.68C8.09 10.65 8.09 10.62 8.1 10.59C8.1 10.55 8.11 10.52 8.12 10.49C8.13 10.46 8.15 10.43 8.17 10.4C8.18 10.37 8.2 10.35 8.22 10.32C8.25 10.3 8.27 10.28 8.3 10.26C8.32 10.24 8.35 10.22 8.38 10.21C8.41 10.19 8.44 10.18 8.48 10.18L10.5 9.67L10.5 8.54L8.97 8.76C8.9 8.77 8.82 8.76 8.75 8.74C8.68 8.72 8.62 8.68 8.57 8.64C8.51 8.59 8.47 8.53 8.44 8.46C8.41 8.4 8.4 8.33 8.4 8.26L8.4 4.96C8.39 4.93 8.4 4.9 8.4 4.87C8.41 4.84 8.42 4.81 8.43 4.78C8.44 4.75 8.45 4.73 8.46 4.7C8.48 4.68 8.5 4.65 8.52 4.63C8.54 4.61 8.56 4.59 8.58 4.57C8.6 4.55 8.63 4.53 8.65 4.52C8.68 4.5 8.71 4.49 8.74 4.48C8.76 4.47 8.79 4.47 8.82 4.46L10.92 4.16C10.95 4.16 10.99 4.16 11.02 4.16C11.05 4.16 11.09 4.17 11.12 4.17C11.15 4.18 11.18 4.19 11.21 4.21C11.24 4.22 11.27 4.24 11.29 4.26C11.32 4.28 11.34 4.3 11.37 4.33C11.39 4.35 11.41 4.38 11.42 4.41C11.44 4.43 11.45 4.46 11.47 4.49C11.48 4.53 11.48 4.56 11.49 4.59C11.49 4.62 11.49 4.66 11.49 4.69C11.49 4.72 11.49 4.75 11.48 4.79C11.47 4.82 11.46 4.85 11.44 4.88C11.43 4.91 11.41 4.94 11.39 4.96C11.37 4.99 11.35 5.01 11.33 5.03C11.3 5.06 11.27 5.08 11.25 5.09C11.22 5.11 11.19 5.12 11.16 5.13C11.13 5.14 11.09 5.15 11.06 5.16L9.39 5.4L9.39 7.68L10.92 7.46C10.99 7.45 11.06 7.46 11.13 7.48C11.2 7.5 11.26 7.53 11.32 7.58C11.37 7.63 11.41 7.69 11.44 7.75C11.47 7.82 11.49 7.89 11.49 7.96L11.49 10.06C11.49 10.12 11.48 10.17 11.46 10.23C11.44 10.28 11.42 10.33 11.38 10.37C11.35 10.42 11.31 10.45 11.26 10.48C11.21 10.51 11.16 10.54 11.11 10.55L8.71 11.15C8.67 11.16 8.63 11.16 8.6 11.16C8.54 11.16 8.48 11.15 8.43 11.14C8.38 11.12 8.33 11.09 8.29 11.06C8.24 11.02 8.21 10.98 8.17 10.93C8.14 10.89 8.12 10.84 8.11 10.78Z" fill="currentColor" fill-opacity="1.000000" fill-rule="nonzero"/>
	</g>
</svg>
