<svg width="167.265625" height="60.531250" viewBox="0 0 167.266 60.5312" fill="none" xmlns="http://www.w3.org/2000/svg" xmlns:xlink="http://www.w3.org/1999/xlink">
	<desc>
			Created with Pixso.
	</desc>
	<defs/>
	<path id="Libra" d="M72.75 49.89Q72.73 49.97 72.73 50.05Q72.73 50.19 72.83 50.37Q74.63 52.79 76.95 54.48Q78.18 55.37 79.55 56.07Q81.91 57.26 84.42 57.74Q86.12 58.07 87.88 58.07Q90.88 58.07 93.6 57.18Q95.74 56.48 97.71 55.22Q100.7 53.31 102.76 50.67Q103.77 49.39 104.56 47.93Q106.04 45.2 106.61 42.3Q106.97 40.47 106.97 38.56Q106.97 35.24 105.98 32.25Q105.7 31.41 105.34 30.59Q103.7 26.89 101.01 24.41Q99.99 23.47 98.87 22.68Q97.02 21.39 94.9 20.5Q92.42 19.47 89.85 19.19Q88.87 19.08 87.88 19.08Q85.18 19.08 82.69 19.79Q81.44 20.15 80.25 20.68Q76.85 22.2 74.44 24.68Q74.31 24.82 74.19 24.95Q73.84 25.33 73.51 25.72Q71.51 28.12 70.29 31.17Q69.59 32.91 69.23 34.71Q68.86 36.6 68.86 38.56L68.86 55.61Q68.86 55.87 68.78 56.1Q68.68 56.37 68.48 56.59Q68.31 56.78 68.1 56.88Q67.83 57.01 67.49 57.01Q67.17 57.01 66.91 56.89Q66.68 56.79 66.49 56.59Q66.26 56.35 66.16 56.07Q66.08 55.85 66.08 55.61L66.08 2.52Q66.08 2.45 66.07 2.39Q66.03 2.26 65.91 2.15Q65.78 2.04 65.64 2.01Q65.58 2 65.52 2Q65.5 2 65.48 2Q65.33 2.01 65.19 2.15Q65.09 2.25 65.06 2.36Q65.03 2.44 65.03 2.52L65.03 55.61Q65.03 56.04 65.16 56.42Q65.34 56.91 65.73 57.33Q66.08 57.7 66.52 57.88Q66.95 58.07 67.46 58.07Q68.02 58.07 68.49 57.86Q68.9 57.67 69.23 57.33Q69.65 56.9 69.83 56.39Q69.95 56.02 69.95 55.61L69.95 38.56Q69.95 35.81 70.68 33.26Q71.24 31.32 72.22 29.5Q73.15 27.78 74.4 26.32Q76.19 24.24 78.64 22.72Q80.14 21.79 81.76 21.19Q84.63 20.14 87.88 20.14Q88.77 20.14 89.65 20.23Q92.11 20.49 94.49 21.47Q96.32 22.23 97.94 23.31Q99.17 24.14 100.27 25.16Q102.82 27.52 104.37 31.03Q104.68 31.74 104.93 32.47Q105.92 35.37 105.92 38.59Q105.92 39.62 105.8 40.64Q105.52 43.06 104.56 45.4Q103.61 47.75 102.15 49.73Q101.54 50.55 100.85 51.3Q100.69 51.48 100.52 51.66Q98.26 53.99 95.09 55.45Q93.78 56.05 92.41 56.42Q90.21 57.01 87.85 57.01Q86.18 57.01 84.57 56.7Q82.21 56.24 79.99 55.12Q78.64 54.43 77.44 53.54Q75.32 51.96 73.68 49.74Q73.65 49.68 73.61 49.64Q73.49 49.53 73.26 49.53Q73.17 49.53 73.1 49.55Q72.98 49.59 72.89 49.68Q72.79 49.78 72.75 49.89ZM56.25 58.12Q56.28 58.05 56.28 57.96L56.28 43.16Q56.28 42.63 56.09 42.17Q55.92 41.76 55.59 41.41Q55.3 41.09 54.94 40.91Q54.45 40.67 53.85 40.67Q53.27 40.67 52.79 40.89Q52.41 41.08 52.09 41.41Q51.74 41.77 51.57 42.21Q51.39 42.65 51.39 43.16L51.39 56.03Q51.39 56.35 51.27 56.62Q51.17 56.86 50.99 57.05Q50.8 57.25 50.57 57.35Q50.3 57.47 49.98 57.47L4.42 57.47Q4.17 57.47 3.96 57.39Q3.68 57.29 3.45 57.05Q3.27 56.86 3.17 56.62Q3.05 56.35 3.05 56.03Q3.05 55.79 3.13 55.57Q3.22 55.29 3.45 55.05Q3.68 54.81 3.96 54.71Q4.17 54.62 4.42 54.62L8.01 54.62Q8.5 54.62 8.92 54.46Q9.38 54.28 9.76 53.9Q10.15 53.53 10.33 53.07Q10.5 52.65 10.5 52.16L10.5 8.71Q10.5 8.22 10.33 7.8Q10.15 7.34 9.76 6.97Q9.38 6.59 8.92 6.41Q8.5 6.25 8.01 6.25L4.42 6.25Q4.16 6.25 3.92 6.16Q3.67 6.06 3.45 5.84Q3.28 5.67 3.18 5.47Q3.05 5.19 3.05 4.84Q3.05 4.5 3.18 4.22Q3.28 4.01 3.45 3.84Q3.67 3.63 3.92 3.53Q4.16 3.44 4.42 3.44L17.18 3.44Q17.2 3.44 17.23 3.43Q17.38 3.42 17.52 3.28Q17.61 3.18 17.65 3.07Q17.67 2.99 17.67 2.91Q17.67 2.82 17.65 2.75Q17.61 2.63 17.52 2.54Q17.38 2.4 17.23 2.38Q17.2 2.38 17.18 2.38L4.42 2.38Q4.08 2.38 3.77 2.47Q3.21 2.64 2.73 3.1Q2.35 3.48 2.17 3.93Q2 4.35 2 4.84Q2 5.33 2.17 5.75Q2.35 6.21 2.73 6.58Q3.21 7.05 3.77 7.21Q4.08 7.3 4.42 7.3L8.01 7.3Q8.33 7.3 8.59 7.43Q8.82 7.53 9.01 7.73Q9.24 7.97 9.34 8.25Q9.41 8.47 9.41 8.71L9.41 52.16Q9.41 52.49 9.29 52.76Q9.19 52.99 9.01 53.18Q8.82 53.38 8.59 53.48Q8.33 53.6 8.01 53.6L4.42 53.6Q3.95 53.6 3.53 53.76Q3.09 53.93 2.72 54.29Q2.42 54.57 2.25 54.91Q2 55.4 2 56.03Q2 56.64 2.23 57.13Q2.41 57.49 2.72 57.79Q3.1 58.17 3.57 58.34Q3.97 58.49 4.42 58.49L49.98 58.49Q50.51 58.49 50.96 58.3Q51.37 58.12 51.71 57.77Q52.04 57.43 52.22 57.01Q52.41 56.56 52.41 56.03L52.41 43.16Q52.41 42.94 52.48 42.74Q52.58 42.43 52.83 42.18Q53.04 41.97 53.29 41.86Q53.55 41.76 53.85 41.76Q54.17 41.76 54.44 41.88Q54.67 41.98 54.85 42.18Q55.08 42.42 55.18 42.7Q55.26 42.92 55.26 43.16L55.26 57.96Q55.26 58.05 55.28 58.12Q55.32 58.24 55.41 58.33Q55.51 58.43 55.62 58.47Q55.7 58.49 55.78 58.49Q55.81 58.49 55.83 58.49Q55.98 58.47 56.12 58.33Q56.21 58.24 56.25 58.12ZM58.24 14.46Q58.21 14.53 58.21 14.62L58.21 15.35Q58.21 15.41 58.22 15.47Q58.25 15.61 58.37 15.74Q58.51 15.9 58.67 15.92Q58.68 15.92 58.7 15.92Q58.75 15.92 58.8 15.91Q58.95 15.88 59.09 15.74Q59.22 15.61 59.26 15.45Q59.26 15.4 59.26 15.35L59.26 14.62Q59.26 14.55 59.25 14.48Q59.21 14.35 59.09 14.25Q58.96 14.13 58.82 14.1Q58.76 14.09 58.7 14.09Q58.68 14.09 58.66 14.09Q58.51 14.11 58.37 14.25Q58.27 14.34 58.24 14.46ZM157.41 27.91Q157.53 27.78 157.53 27.55Q157.53 27.34 157.42 27.24Q155.63 24.82 153.3 23.13Q152.08 22.23 150.71 21.54Q148.19 20.27 145.54 19.81Q144 19.54 142.41 19.54Q139.79 19.54 137.37 20.23Q136.02 20.61 134.73 21.21Q131.25 22.82 128.83 25.41Q128.73 25.5 128.64 25.6Q128.04 26.27 127.5 26.98Q125.82 29.19 124.73 31.84Q123.64 34.5 123.37 37.23Q123.28 38.12 123.28 39.01Q123.28 42.49 124.37 45.59Q124.63 46.31 124.94 47.01Q126.59 50.72 129.28 53.2Q130.21 54.06 131.23 54.79Q133.16 56.17 135.41 57.1Q138.01 58.18 140.69 58.44Q141.56 58.53 142.44 58.53Q145.23 58.53 147.79 57.77Q148.95 57.42 150.06 56.93Q153.32 55.46 155.66 53.09Q155.88 52.87 156.09 52.64Q156.4 52.29 156.71 51.93Q158.73 49.49 159.97 46.4Q160.67 44.66 161.02 42.86Q161.39 40.98 161.39 39.01L161.39 22Q161.39 21.76 161.47 21.54Q161.57 21.25 161.8 21.01Q161.95 20.86 162.13 20.76Q162.44 20.59 162.84 20.59Q163.17 20.59 163.44 20.73Q163.65 20.83 163.82 21.01Q164.03 21.24 164.12 21.5Q164.21 21.74 164.21 22L164.21 57.96Q164.21 58.05 164.23 58.12Q164.27 58.24 164.36 58.33Q164.46 58.43 164.57 58.47Q164.65 58.49 164.73 58.49Q164.82 58.49 164.89 58.47Q165.01 58.43 165.1 58.33Q165.2 58.24 165.24 58.12Q165.26 58.05 165.26 57.96L165.26 22Q165.26 21.57 165.13 21.19Q164.97 20.69 164.58 20.26Q164.27 19.92 163.88 19.73Q163.42 19.5 162.84 19.5Q162.16 19.5 161.64 19.79Q161.32 19.96 161.06 20.24Q160.73 20.59 160.56 21.01Q160.37 21.47 160.37 22L160.37 39.01Q160.37 41.7 159.68 44.2Q159.12 46.2 158.11 48.08Q157.17 49.83 155.91 51.29Q154.12 53.37 151.67 54.89Q150.13 55.85 148.46 56.45Q145.62 57.47 142.41 57.47Q140.69 57.47 139.03 57.15Q136.32 56.62 133.78 55.22Q132.95 54.77 132.18 54.23Q129.14 52.1 127.03 48.66Q126.24 47.39 125.69 46.02Q124.37 42.77 124.37 38.98Q124.37 37.07 124.75 35.25Q125.31 32.59 126.66 30.1Q127.46 28.63 128.49 27.35Q130.41 24.97 133.14 23.25Q134.9 22.14 136.81 21.49Q139.48 20.59 142.44 20.59Q144.14 20.59 145.78 20.91Q148.11 21.37 150.3 22.47Q151.73 23.19 152.97 24.14Q155.01 25.68 156.58 27.83Q156.63 27.92 156.71 27.97Q156.83 28.05 157 28.05Q157.28 28.05 157.41 27.91ZM58.24 19.91Q58.21 19.98 58.21 20.07L58.21 56.07Q58.21 56.39 58.29 56.7Q58.45 57.28 58.91 57.77Q59.28 58.16 59.73 58.35Q60.15 58.53 60.64 58.53Q61.09 58.53 61.48 58.38Q61.98 58.19 62.39 57.77Q62.9 57.25 63.06 56.64Q63.13 56.36 63.13 56.07L63.13 38.42Q63.13 38.35 63.11 38.28Q63.07 38.15 62.96 38.05Q62.83 37.93 62.69 37.9Q62.63 37.89 62.57 37.89Q62.48 37.89 62.41 37.91Q62.3 37.95 62.2 38.05Q62.11 38.14 62.07 38.26Q62.04 38.33 62.04 38.42L62.04 56.07Q62.04 56.35 61.94 56.6Q61.84 56.83 61.66 57.03Q61.5 57.19 61.32 57.29Q61.03 57.44 60.67 57.44Q60.43 57.44 60.21 57.36Q59.93 57.26 59.69 57.03Q59.45 56.81 59.35 56.53Q59.26 56.31 59.26 56.07L59.26 20.07Q59.26 20 59.25 19.93Q59.21 19.8 59.09 19.7Q58.96 19.58 58.82 19.55Q58.76 19.54 58.7 19.54Q58.68 19.54 58.66 19.54Q58.51 19.56 58.37 19.7Q58.27 19.79 58.24 19.91ZM131.14 19.6Q131.07 19.57 130.98 19.57Q128.47 19.6 126.15 20.28Q124.84 20.66 123.58 21.26Q120.23 22.86 117.95 25.42Q117.87 25.5 117.8 25.58Q117.43 26.01 117.09 26.45Q115.26 28.8 114.11 31.67Q113.28 33.74 112.94 35.89Q112.72 37.28 112.7 38.7L112.7 56.07Q112.7 56.35 112.6 56.6Q112.51 56.83 112.32 57.03Q112.16 57.19 111.98 57.29Q111.69 57.44 111.33 57.44Q111.09 57.44 110.87 57.36Q110.59 57.26 110.35 57.03Q110.11 56.81 110.01 56.53Q109.93 56.31 109.93 56.07L109.93 20.07Q109.93 20 109.91 19.93Q109.87 19.8 109.75 19.7Q109.62 19.58 109.48 19.55Q109.42 19.54 109.36 19.54Q109.34 19.54 109.32 19.54Q109.17 19.56 109.03 19.7Q108.93 19.79 108.9 19.91Q108.87 19.98 108.87 20.07L108.87 56.07Q108.87 56.39 108.95 56.7Q109.11 57.28 109.57 57.77Q109.94 58.16 110.39 58.35Q110.81 58.53 111.3 58.53Q111.75 58.53 112.14 58.38Q112.64 58.19 113.05 57.77Q113.56 57.25 113.72 56.64Q113.79 56.36 113.79 56.07L113.76 38.7Q113.78 37.49 113.96 36.31Q114.27 34.15 115.09 32.05Q116.11 29.45 117.73 27.31Q118.12 26.78 118.56 26.29Q118.7 26.13 118.84 25.97Q120.96 23.66 124.01 22.19Q124.92 21.75 125.89 21.43Q128.32 20.62 131.02 20.59Q131.25 20.59 131.37 20.48Q131.51 20.35 131.51 20.07Q131.51 20.04 131.51 20.02Q131.49 19.87 131.35 19.73Q131.26 19.64 131.14 19.6Z" fill="#000000" fill-opacity="1.000000" fill-rule="evenodd"/>
	<path id="Libra" d="M56.28 57.96Q56.28 58.17 56.12 58.33Q55.96 58.49 55.78 58.49Q55.57 58.49 55.41 58.33Q55.26 58.17 55.26 57.96L55.26 43.16Q55.26 42.6 54.85 42.18Q54.45 41.76 53.85 41.76Q53.25 41.76 52.83 42.18Q52.41 42.6 52.41 43.16L52.41 56.03Q52.41 57.05 51.71 57.77Q51 58.49 49.98 58.49L4.42 58.49Q3.44 58.49 2.72 57.79Q2 57.08 2 56.03Q2 54.98 2.72 54.29Q3.44 53.6 4.42 53.6L8.01 53.6Q8.6 53.6 9.01 53.18Q9.41 52.76 9.41 52.16L9.41 8.71Q9.41 8.15 9.01 7.73Q8.6 7.3 8.01 7.3L4.42 7.3Q3.47 7.3 2.73 6.58Q2 5.86 2 4.84Q2 3.82 2.73 3.1Q3.47 2.38 4.42 2.38L17.18 2.38Q17.36 2.38 17.52 2.54Q17.67 2.7 17.67 2.91Q17.67 3.12 17.52 3.28Q17.36 3.44 17.18 3.44L4.42 3.44Q3.86 3.44 3.45 3.84Q3.05 4.25 3.05 4.84Q3.05 5.44 3.45 5.84Q3.86 6.25 4.42 6.25L8.01 6.25Q9.03 6.25 9.76 6.97Q10.5 7.69 10.5 8.71L10.5 52.16Q10.5 53.18 9.76 53.9Q9.03 54.62 8.01 54.62L4.42 54.62Q3.86 54.62 3.45 55.05Q3.05 55.47 3.05 56.03Q3.05 56.63 3.45 57.05Q3.86 57.47 4.42 57.47L49.98 57.47Q50.58 57.47 50.99 57.05Q51.39 56.63 51.39 56.03L51.39 43.16Q51.39 42.14 52.09 41.41Q52.8 40.67 53.85 40.67Q54.91 40.67 55.59 41.41Q56.28 42.14 56.28 43.16L56.28 57.96ZM58.21 14.62Q58.21 14.41 58.37 14.25Q58.53 14.09 58.7 14.09Q58.91 14.09 59.09 14.25Q59.26 14.41 59.26 14.62L59.26 15.35Q59.26 15.57 59.09 15.74Q58.91 15.92 58.7 15.92Q58.53 15.92 58.37 15.74Q58.21 15.57 58.21 15.35L58.21 14.62ZM58.21 20.07Q58.21 19.85 58.37 19.7Q58.53 19.54 58.7 19.54Q58.91 19.54 59.09 19.7Q59.26 19.85 59.26 20.07L59.26 56.07Q59.26 56.63 59.69 57.03Q60.11 57.44 60.67 57.44Q61.27 57.44 61.66 57.03Q62.04 56.63 62.04 56.07L62.04 38.42Q62.04 38.21 62.2 38.05Q62.36 37.89 62.57 37.89Q62.78 37.89 62.96 38.05Q63.13 38.21 63.13 38.42L63.13 56.07Q63.13 57.01 62.39 57.77Q61.66 58.53 60.64 58.53Q59.62 58.53 58.91 57.77Q58.21 57.01 58.21 56.07L58.21 20.07ZM72.73 50.05Q72.73 49.84 72.89 49.68Q73.05 49.53 73.26 49.53Q73.57 49.53 73.68 49.74Q76.25 53.22 79.99 55.12Q83.73 57.01 87.85 57.01Q91.68 57.01 95.09 55.45Q98.5 53.89 100.85 51.3Q103.21 48.72 104.56 45.4Q105.92 42.07 105.92 38.59Q105.92 34.55 104.37 31.03Q102.82 27.52 100.27 25.16Q97.73 22.81 94.49 21.47Q91.26 20.14 87.88 20.14Q82.78 20.14 78.64 22.72Q74.49 25.3 72.22 29.5Q69.95 33.71 69.95 38.56L69.95 55.61Q69.95 56.59 69.23 57.33Q68.51 58.07 67.46 58.07Q66.44 58.07 65.73 57.33Q65.03 56.59 65.03 55.61L65.03 2.52Q65.03 2.31 65.19 2.15Q65.35 2 65.52 2Q65.73 2 65.91 2.15Q66.08 2.31 66.08 2.52L66.08 55.61Q66.08 56.17 66.49 56.59Q66.89 57.01 67.49 57.01Q68.09 57.01 68.48 56.59Q68.86 56.17 68.86 55.61L68.86 38.56Q68.86 34.73 70.29 31.17Q71.71 27.62 74.19 24.95Q76.67 22.28 80.25 20.68Q83.84 19.08 87.88 19.08Q91.47 19.08 94.9 20.5Q98.32 21.93 101.01 24.41Q103.7 26.89 105.34 30.59Q106.97 34.3 106.97 38.56Q106.97 43.48 104.56 47.93Q102.16 52.37 97.71 55.22Q93.26 58.07 87.88 58.07Q83.52 58.07 79.55 56.07Q75.58 54.06 72.83 50.37Q72.73 50.19 72.73 50.05ZM130.98 19.57Q131.19 19.57 131.35 19.73Q131.51 19.89 131.51 20.07Q131.51 20.59 131.02 20.59Q127.26 20.63 124.01 22.19Q120.75 23.76 118.56 26.29Q116.36 28.82 115.09 32.05Q113.83 35.29 113.76 38.7L113.79 56.07Q113.79 57.01 113.05 57.77Q112.32 58.53 111.3 58.53Q110.28 58.53 109.57 57.77Q108.87 57.01 108.87 56.07L108.87 20.07Q108.87 19.85 109.03 19.7Q109.19 19.54 109.36 19.54Q109.57 19.54 109.75 19.7Q109.93 19.85 109.93 20.07L109.93 56.07Q109.93 56.63 110.35 57.03Q110.77 57.44 111.33 57.44Q111.93 57.44 112.32 57.03Q112.7 56.63 112.7 56.07L112.7 38.7Q112.74 35.08 114.11 31.67Q115.48 28.26 117.8 25.58Q120.12 22.91 123.58 21.26Q127.05 19.61 130.98 19.57ZM157.53 27.55Q157.53 28.05 157 28.05Q156.72 28.05 156.58 27.83Q154.05 24.35 150.3 22.47Q146.56 20.59 142.44 20.59Q137.35 20.59 133.14 23.25Q128.94 25.9 126.66 30.1Q124.37 34.3 124.37 38.98Q124.37 44.36 127.03 48.66Q129.68 52.97 133.78 55.22Q137.87 57.47 142.41 57.47Q147.51 57.47 151.67 54.89Q155.84 52.3 158.11 48.08Q160.37 43.87 160.37 39.01L160.37 22Q160.37 20.98 161.06 20.24Q161.75 19.5 162.84 19.5Q163.89 19.5 164.58 20.26Q165.26 21.01 165.26 22L165.26 57.96Q165.26 58.17 165.1 58.33Q164.94 58.49 164.73 58.49Q164.52 58.49 164.36 58.33Q164.21 58.17 164.21 57.96L164.21 22Q164.21 21.44 163.82 21.01Q163.43 20.59 162.84 20.59Q162.2 20.59 161.8 21.01Q161.39 21.44 161.39 22L161.39 39.01Q161.39 42.85 159.97 46.4Q158.55 49.95 156.09 52.64Q153.62 55.33 150.06 56.93Q146.49 58.53 142.44 58.53Q138.86 58.53 135.41 57.1Q131.97 55.68 129.28 53.2Q126.59 50.72 124.94 47.01Q123.28 43.3 123.28 39.01Q123.28 35.36 124.73 31.84Q126.17 28.33 128.64 25.6Q131.12 22.88 134.73 21.21Q138.33 19.54 142.41 19.54Q146.73 19.54 150.71 21.54Q154.68 23.55 157.42 27.24Q157.53 27.34 157.53 27.55Z" stroke="#000000" stroke-opacity="1.000000" stroke-width="2.000000"/>
</svg>
