<svg width="16.000000" height="16.000000" viewBox="0 0 16 16" fill="none" xmlns="http://www.w3.org/2000/svg" xmlns:xlink="http://www.w3.org/1999/xlink">
	<desc>
			Created with Pixso.
	</desc>
	<defs>
		<clipPath id="clip77_22">
			<rect id="nodejs" width="16.000000" height="16.000000" fill="white" fill-opacity="0"/>
		</clipPath>
	</defs>
	<g clip-path="url(#clip77_22)">
		<path id="path" d="M8 1.23C7.82 1.23 7.63 1.28 7.48 1.36L2.51 4.23C2.2 4.41 2 4.76 2 5.14L2 10.85C2 11.23 2.2 11.58 2.51 11.76L3.82 12.51C4.45 12.81 4.66 12.82 4.95 12.82C5.89 12.82 6.43 12.26 6.43 11.27L6.43 5.62C6.43 5.54 6.36 5.47 6.28 5.47L5.66 5.47C5.57 5.47 5.51 5.54 5.51 5.62L5.51 11.27C5.51 11.71 5.06 12.14 4.33 11.78L2.96 11C2.94 10.98 2.92 10.96 2.91 10.93C2.9 10.91 2.89 10.88 2.89 10.85L2.89 5.14C2.89 5.08 2.92 5.02 2.96 5L7.92 2.14C7.96 2.11 8.03 2.11 8.07 2.14L13.03 5C13.08 5.02 13.1 5.08 13.1 5.14L13.1 10.85C13.1 10.91 13.08 10.96 13.03 11L8.07 13.85C8.03 13.88 7.96 13.88 7.92 13.85L6.66 13.1C6.61 13.08 6.56 13.07 6.52 13.09C6.17 13.29 6.1 13.33 5.78 13.43C5.7 13.46 5.57 13.5 5.82 13.64L7.48 14.62C7.64 14.72 7.81 14.76 8 14.76C8.18 14.76 8.35 14.72 8.51 14.62L13.48 11.76C13.8 11.58 14 11.23 14 10.85L14 5.14C14 4.76 13.8 4.41 13.48 4.23L8.51 1.36C8.36 1.28 8.18 1.23 8 1.23ZM9.33 5.33C7.92 5.33 7.07 5.92 7.07 6.92C7.07 8 7.91 8.31 9.27 8.44C10.89 8.6 11.02 8.84 11.02 9.16C11.02 9.72 10.57 9.95 9.53 9.95C8.21 9.95 7.93 9.62 7.83 8.97C7.82 8.95 7.82 8.94 7.81 8.92C7.8 8.91 7.79 8.89 7.78 8.88C7.76 8.87 7.75 8.86 7.73 8.86C7.72 8.85 7.7 8.85 7.68 8.85L7.04 8.85C6.96 8.85 6.9 8.91 6.9 9C6.9 9.82 7.35 10.82 9.53 10.82C11.1 10.82 12 10.2 12 9.12C12 8.05 11.28 7.77 9.75 7.56C8.21 7.36 8.06 7.26 8.06 6.89C8.06 6.6 8.19 6.2 9.33 6.2C10.33 6.2 10.72 6.41 10.88 7.1C10.89 7.17 10.95 7.22 11.02 7.22L11.66 7.22C11.7 7.22 11.74 7.2 11.76 7.17C11.79 7.14 11.81 7.1 11.8 7.06C11.7 5.87 10.92 5.33 9.33 5.33Z" fill="#000000" fill-opacity="1.000000" fill-rule="nonzero"/>
	</g>
</svg>
