<svg width="16.000000" height="16.000000" viewBox="0 0 16 16" fill="none" xmlns="http://www.w3.org/2000/svg" xmlns:xlink="http://www.w3.org/1999/xlink">
	<desc>
			Created with Pixso.
	</desc>
	<defs>
		<clipPath id="clip76_3">
			<rect id="操作" width="16.000000" height="16.000000" fill="white" fill-opacity="0"/>
		</clipPath>
	</defs>
	<g clip-path="url(#clip76_3)">
		<path id="path" d="M2.76 14.74C3.17 14.74 3.55 14.59 3.84 14.3L7.09 11.05L7.55 10.59L8.16 10.81C8.73 11.02 9.31 11.13 9.92 11.13C11.27 11.13 12.54 10.6 13.5 9.65C14.8 8.34 15.27 6.47 14.81 4.76L12.43 7.14L11.71 7.86L10.99 7.14L8.85 5L8.13 4.28L8.85 3.56L11.23 1.18C10.8 1.06 10.37 1.01 9.92 1.01C8.57 1.01 7.3 1.53 6.34 2.49C4.95 3.88 4.49 5.98 5.18 7.83L5.4 8.44L4.94 8.9L1.69 12.15C1.4 12.44 1.25 12.82 1.25 13.23C1.25 13.63 1.4 14.01 1.69 14.3C1.76 14.37 1.84 14.43 1.92 14.49C2 14.54 2.09 14.59 2.18 14.63C2.28 14.67 2.37 14.7 2.47 14.72C2.57 14.74 2.66 14.74 2.76 14.74ZM2.76 15.76C2.6 15.76 2.43 15.74 2.27 15.71C2.11 15.68 1.95 15.63 1.8 15.56C1.64 15.5 1.5 15.42 1.36 15.33C1.22 15.24 1.09 15.13 0.97 15.02C-0.01 14.03 -0.01 12.42 0.97 11.44L4.23 8.18C3.43 6.03 3.89 3.51 5.63 1.77C6.81 0.59 8.37 0 9.92 0C10.99 0 12.06 0.28 13.01 0.84L9.56 4.28L11.71 6.43L15.15 2.98C16.53 5.31 16.22 8.36 14.22 10.36C13.03 11.55 11.48 12.14 9.92 12.14C9.19 12.14 8.49 12.02 7.81 11.76L4.55 15.02C4.06 15.51 3.41 15.76 2.76 15.76Z" fill="currentColor" fill-opacity="1.000000" fill-rule="nonzero"/>
	</g>
</svg>
