<svg width="16.000000" height="16.000000" viewBox="0 0 16 16" fill="none" xmlns="http://www.w3.org/2000/svg" xmlns:xlink="http://www.w3.org/1999/xlink">
	<desc>
			Created with Pixso.
	</desc>
	<defs>
		<clipPath id="clip84_22">
			<rect id="paragraph-alphabet" width="16.000000" height="16.000000" fill="white" fill-opacity="0"/>
		</clipPath>
	</defs>
	<g clip-path="url(#clip84_22)">
		<path id="path" d="M7.5 3C7.5 2.96 7.5 2.93 7.5 2.9C7.51 2.87 7.52 2.83 7.53 2.8C7.55 2.77 7.56 2.74 7.58 2.72C7.6 2.69 7.62 2.66 7.64 2.64C7.66 2.62 7.69 2.6 7.72 2.58C7.74 2.56 7.77 2.55 7.8 2.53C7.83 2.52 7.87 2.51 7.9 2.5C7.93 2.5 7.96 2.5 8 2.5L14 2.5C14.03 2.5 14.06 2.5 14.09 2.5C14.12 2.51 14.16 2.52 14.19 2.53C14.22 2.55 14.25 2.56 14.27 2.58C14.3 2.6 14.33 2.62 14.35 2.64C14.37 2.66 14.39 2.69 14.41 2.72C14.43 2.74 14.44 2.77 14.46 2.8C14.47 2.83 14.48 2.87 14.49 2.9C14.49 2.93 14.5 2.96 14.5 3C14.5 3.03 14.49 3.06 14.49 3.09C14.48 3.12 14.47 3.16 14.46 3.19C14.44 3.22 14.43 3.25 14.41 3.27C14.39 3.3 14.37 3.33 14.35 3.35C14.33 3.37 14.3 3.39 14.27 3.41C14.25 3.43 14.22 3.44 14.19 3.46C14.16 3.47 14.12 3.48 14.09 3.49C14.06 3.49 14.03 3.5 14 3.5L8 3.5C7.96 3.5 7.93 3.49 7.9 3.49C7.87 3.48 7.83 3.47 7.8 3.46C7.77 3.44 7.74 3.43 7.72 3.41C7.69 3.39 7.66 3.37 7.64 3.35C7.62 3.33 7.6 3.3 7.58 3.27C7.56 3.25 7.55 3.22 7.53 3.19C7.52 3.16 7.51 3.12 7.5 3.09C7.5 3.06 7.5 3.03 7.5 3ZM7.5 6.33C7.5 6.3 7.5 6.26 7.5 6.23C7.51 6.2 7.52 6.17 7.53 6.14C7.55 6.11 7.56 6.08 7.58 6.05C7.6 6.02 7.62 6 7.64 5.97C7.66 5.95 7.69 5.93 7.72 5.91C7.74 5.89 7.77 5.88 7.8 5.87C7.83 5.85 7.87 5.84 7.9 5.84C7.93 5.83 7.96 5.83 8 5.83L14 5.83C14.03 5.83 14.06 5.83 14.09 5.84C14.12 5.84 14.16 5.85 14.19 5.87C14.22 5.88 14.25 5.89 14.27 5.91C14.3 5.93 14.33 5.95 14.35 5.97C14.37 6 14.39 6.02 14.41 6.05C14.43 6.08 14.44 6.11 14.46 6.14C14.47 6.17 14.48 6.2 14.49 6.23C14.49 6.26 14.5 6.3 14.5 6.33C14.5 6.36 14.49 6.39 14.49 6.43C14.48 6.46 14.47 6.49 14.46 6.52C14.44 6.55 14.43 6.58 14.41 6.61C14.39 6.63 14.37 6.66 14.35 6.68C14.33 6.7 14.3 6.73 14.27 6.74C14.25 6.76 14.22 6.78 14.19 6.79C14.16 6.8 14.12 6.81 14.09 6.82C14.06 6.83 14.03 6.83 14 6.83L8 6.83C7.96 6.83 7.93 6.83 7.9 6.82C7.87 6.81 7.83 6.8 7.8 6.79C7.77 6.78 7.74 6.76 7.72 6.74C7.69 6.73 7.66 6.7 7.64 6.68C7.62 6.66 7.6 6.63 7.58 6.61C7.56 6.58 7.55 6.55 7.53 6.52C7.52 6.49 7.51 6.46 7.5 6.43C7.5 6.39 7.5 6.36 7.5 6.33ZM1.5 9.66C1.5 9.63 1.5 9.6 1.5 9.56C1.51 9.53 1.52 9.5 1.53 9.47C1.55 9.44 1.56 9.41 1.58 9.38C1.6 9.36 1.62 9.33 1.64 9.31C1.66 9.29 1.69 9.26 1.72 9.25C1.74 9.23 1.77 9.21 1.8 9.2C1.83 9.19 1.87 9.18 1.9 9.17C1.93 9.16 1.96 9.16 2 9.16L14 9.16C14.03 9.16 14.06 9.16 14.09 9.17C14.12 9.18 14.16 9.19 14.19 9.2C14.22 9.21 14.25 9.23 14.27 9.25C14.3 9.26 14.33 9.29 14.35 9.31C14.37 9.33 14.39 9.36 14.41 9.38C14.43 9.41 14.44 9.44 14.46 9.47C14.47 9.5 14.48 9.53 14.49 9.56C14.49 9.6 14.5 9.63 14.5 9.66C14.5 9.69 14.49 9.73 14.49 9.76C14.48 9.79 14.47 9.82 14.46 9.85C14.44 9.88 14.43 9.91 14.41 9.94C14.39 9.97 14.37 9.99 14.35 10.02C14.33 10.04 14.3 10.06 14.27 10.08C14.25 10.1 14.22 10.11 14.19 10.12C14.16 10.14 14.12 10.15 14.09 10.15C14.06 10.16 14.03 10.16 14 10.16L2 10.16C1.96 10.16 1.93 10.16 1.9 10.15C1.87 10.15 1.83 10.14 1.8 10.12C1.77 10.11 1.74 10.1 1.72 10.08C1.69 10.06 1.66 10.04 1.64 10.02C1.62 9.99 1.6 9.97 1.58 9.94C1.56 9.91 1.55 9.88 1.53 9.85C1.52 9.82 1.51 9.79 1.5 9.76C1.5 9.73 1.5 9.69 1.5 9.66ZM1.5 13C1.5 12.96 1.5 12.93 1.5 12.9C1.51 12.87 1.52 12.83 1.53 12.8C1.55 12.77 1.56 12.74 1.58 12.72C1.6 12.69 1.62 12.66 1.64 12.64C1.66 12.62 1.69 12.6 1.72 12.58C1.74 12.56 1.77 12.55 1.8 12.53C1.83 12.52 1.87 12.51 1.9 12.5C1.93 12.5 1.96 12.5 2 12.5L14 12.5C14.03 12.5 14.06 12.5 14.09 12.5C14.12 12.51 14.16 12.52 14.19 12.53C14.22 12.55 14.25 12.56 14.27 12.58C14.3 12.6 14.33 12.62 14.35 12.64C14.37 12.66 14.39 12.69 14.41 12.72C14.43 12.74 14.44 12.77 14.46 12.8C14.47 12.83 14.48 12.87 14.49 12.9C14.49 12.93 14.5 12.96 14.5 13C14.5 13.03 14.49 13.06 14.49 13.09C14.48 13.12 14.47 13.16 14.46 13.19C14.44 13.22 14.43 13.25 14.41 13.27C14.39 13.3 14.37 13.33 14.35 13.35C14.33 13.37 14.3 13.39 14.27 13.41C14.25 13.43 14.22 13.44 14.19 13.46C14.16 13.47 14.12 13.48 14.09 13.49C14.06 13.49 14.03 13.5 14 13.5L2 13.5C1.96 13.5 1.93 13.49 1.9 13.49C1.87 13.48 1.83 13.47 1.8 13.46C1.77 13.44 1.74 13.43 1.72 13.41C1.69 13.39 1.66 13.37 1.64 13.35C1.62 13.33 1.6 13.3 1.58 13.27C1.56 13.25 1.55 13.22 1.53 13.19C1.52 13.16 1.51 13.12 1.5 13.09C1.5 13.06 1.5 13.03 1.5 13ZM4.11 2.77C4.09 2.73 4.06 2.69 4.03 2.66C4 2.62 3.96 2.59 3.92 2.57C3.89 2.55 3.84 2.53 3.8 2.51C3.75 2.5 3.71 2.5 3.66 2.5C3.62 2.5 3.57 2.5 3.53 2.51C3.48 2.53 3.44 2.55 3.4 2.57C3.36 2.59 3.32 2.62 3.29 2.66C3.26 2.69 3.24 2.73 3.21 2.77L1.89 5.43C1.88 5.43 1.88 5.44 1.88 5.45L1.55 6.1C1.53 6.13 1.52 6.16 1.51 6.2C1.5 6.23 1.5 6.26 1.49 6.29C1.49 6.33 1.49 6.36 1.5 6.39C1.5 6.42 1.51 6.46 1.52 6.49C1.53 6.52 1.54 6.55 1.56 6.58C1.57 6.61 1.59 6.63 1.62 6.66C1.64 6.68 1.66 6.71 1.69 6.73C1.71 6.75 1.74 6.76 1.77 6.78C1.8 6.79 1.83 6.81 1.86 6.81C1.89 6.82 1.93 6.83 1.96 6.83C1.99 6.83 2.02 6.83 2.06 6.83C2.09 6.82 2.12 6.82 2.15 6.8C2.18 6.79 2.21 6.78 2.24 6.76C2.27 6.75 2.3 6.73 2.32 6.71C2.35 6.68 2.37 6.66 2.39 6.63C2.41 6.61 2.43 6.58 2.44 6.55L2.64 6.16L4.69 6.16L4.88 6.55C4.9 6.58 4.91 6.61 4.93 6.63C4.95 6.66 4.98 6.68 5 6.71C5.02 6.73 5.05 6.75 5.08 6.76C5.11 6.78 5.14 6.79 5.17 6.8C5.2 6.82 5.23 6.82 5.27 6.83C5.3 6.83 5.33 6.83 5.36 6.83C5.4 6.83 5.43 6.82 5.46 6.81C5.49 6.81 5.52 6.79 5.55 6.78C5.58 6.76 5.61 6.75 5.64 6.73C5.66 6.71 5.69 6.68 5.71 6.66C5.73 6.63 5.75 6.61 5.77 6.58C5.78 6.55 5.79 6.52 5.8 6.49C5.82 6.46 5.82 6.42 5.83 6.39C5.83 6.36 5.83 6.33 5.83 6.29C5.83 6.26 5.82 6.23 5.81 6.2C5.8 6.16 5.79 6.13 5.78 6.1L5.45 5.45C5.44 5.44 5.44 5.43 5.44 5.43L4.11 2.77ZM3 5.33L3.66 3.66L4.33 5.33L3 5.33Z" fill="currentColor" fill-opacity="1.000000" fill-rule="nonzero"/>
	</g>
</svg>
