<svg width="16.000000" height="16.000000" viewBox="0 0 16 16" fill="none" xmlns="http://www.w3.org/2000/svg" xmlns:xlink="http://www.w3.org/1999/xlink">
	<desc>
			Created with Pixso.
	</desc>
	<defs>
		<clipPath id="clip73_5">
			<rect id="手写体识别" width="16.000000" height="16.000000" fill="white" fill-opacity="0"/>
		</clipPath>
	</defs>
	<g clip-path="url(#clip73_5)">
		<path id="path" d="M14.23 13.48C14.33 13.34 14.43 13.18 14.51 13.02C14.6 12.86 14.67 12.69 14.73 12.52C14.78 12.34 14.83 12.17 14.85 11.99C14.88 11.81 14.9 11.63 14.9 11.44C14.9 9.54 13.35 8 11.45 8C9.55 8 8 9.54 8 11.45C8 11.56 8.01 11.67 8.02 11.78C8.03 11.9 8.04 12.01 8.07 12.12C8.09 12.23 8.12 12.34 8.15 12.45C8.18 12.55 8.22 12.66 8.26 12.77C8.31 12.87 8.35 12.97 8.41 13.07C8.46 13.17 8.52 13.27 8.58 13.36C8.64 13.45 8.71 13.55 8.78 13.63C8.86 13.72 8.93 13.8 9.01 13.88C9.09 13.96 9.17 14.04 9.26 14.11C9.35 14.18 9.44 14.25 9.53 14.31C9.63 14.37 9.72 14.43 9.82 14.49C9.92 14.54 10.02 14.59 10.13 14.63C10.23 14.67 10.34 14.71 10.45 14.75C10.56 14.78 10.67 14.81 10.78 14.83C10.89 14.85 11 14.87 11.11 14.88C11.22 14.89 11.34 14.89 11.45 14.89C12.21 14.89 12.91 14.64 13.49 14.22L15.11 15.84C15.13 15.87 15.16 15.89 15.19 15.91C15.21 15.93 15.24 15.94 15.28 15.96C15.31 15.97 15.34 15.98 15.37 15.99C15.41 15.99 15.44 16 15.48 16C15.51 16 15.54 15.99 15.58 15.98C15.61 15.98 15.64 15.97 15.68 15.96C15.71 15.94 15.74 15.93 15.77 15.91C15.79 15.89 15.82 15.87 15.85 15.84C15.87 15.82 15.89 15.79 15.91 15.76C15.93 15.73 15.95 15.7 15.96 15.67C15.97 15.64 15.98 15.61 15.99 15.57C15.99 15.54 16 15.51 16 15.47C16 15.44 15.99 15.4 15.99 15.37C15.98 15.34 15.97 15.3 15.96 15.27C15.95 15.24 15.93 15.21 15.91 15.18C15.89 15.15 15.87 15.13 15.84 15.1L14.23 13.48ZM11.45 14.05C11.36 14.05 11.28 14.04 11.19 14.03C11.11 14.02 11.02 14.01 10.94 14C10.86 13.98 10.78 13.96 10.69 13.93C10.61 13.91 10.53 13.88 10.45 13.85C10.38 13.81 10.3 13.78 10.22 13.74C10.15 13.7 10.08 13.65 10 13.61C9.93 13.56 9.87 13.51 9.8 13.45C9.73 13.4 9.67 13.34 9.61 13.28C9.55 13.22 9.49 13.16 9.44 13.09C9.39 13.03 9.33 12.96 9.29 12.89C9.24 12.82 9.2 12.75 9.16 12.67C9.12 12.6 9.08 12.52 9.05 12.44C9.01 12.36 8.99 12.28 8.96 12.2C8.94 12.12 8.92 12.04 8.9 11.95C8.88 11.87 8.87 11.79 8.86 11.7C8.85 11.62 8.85 11.53 8.85 11.45C8.85 10.01 10.01 8.85 11.45 8.85C12.88 8.85 14.05 10.01 14.05 11.45C14.05 12.88 12.88 14.05 11.45 14.05ZM0.28 6.37C0.37 6.39 0.46 6.38 0.56 6.34C0.66 6.29 0.74 6.2 0.79 6.05C0.93 5.45 1.08 4.86 1.25 4.29L1.29 4.29C1.31 4.3 1.32 4.3 1.34 4.3L4 4.28C4.1 4.58 4.18 4.88 4.26 5.19C4.33 5.49 4.39 5.8 4.43 6.12C4.49 6.23 4.56 6.31 4.65 6.36C4.73 6.4 4.82 6.42 4.91 6.4C5 6.38 5.07 6.34 5.13 6.26C5.19 6.18 5.22 6.07 5.23 5.94C5.2 5.66 5.15 5.37 5.08 5.1C5.02 4.82 4.95 4.54 4.86 4.27L5.07 4.27C5.2 4.24 5.29 4.19 5.36 4.11C5.43 4.04 5.46 3.96 5.47 3.87C5.47 3.79 5.44 3.71 5.38 3.63C5.31 3.54 5.22 3.48 5.1 3.45L4.57 3.46C4.51 3.3 4.45 3.15 4.38 2.99C4.32 2.84 4.25 2.69 4.18 2.53C3.98 2.1 3.77 1.67 3.53 1.25C3.3 0.83 3.01 0.45 2.66 0.11L2.65 0.11C2.65 0.1 2.65 0.1 2.64 0.1C2.6 0.05 2.54 0.02 2.47 0.01C2.4 -0.01 2.33 0 2.26 0.02C2.11 0.06 2.02 0.14 1.98 0.26C1.51 1.15 1.12 2.05 0.81 2.98C0.5 3.9 0.23 4.85 0.01 5.82C0 5.88 -0.01 5.94 0 6.01C0.01 6.07 0.03 6.13 0.06 6.19C0.11 6.28 0.19 6.34 0.28 6.37ZM1.94 2.28C2.1 1.89 2.27 1.5 2.46 1.12C2.6 1.3 2.72 1.49 2.83 1.69C2.94 1.89 3.05 2.09 3.15 2.28C3.25 2.48 3.34 2.67 3.43 2.86C3.52 3.06 3.61 3.25 3.69 3.46L1.51 3.48C1.64 3.07 1.79 2.68 1.94 2.28ZM6.5 1.44C6.56 1.44 6.62 1.43 6.68 1.41L6.68 5.74C6.66 5.81 6.64 5.87 6.64 5.91C6.64 6.01 6.68 6.1 6.75 6.18C6.82 6.26 6.93 6.31 7.08 6.33C7.17 6.33 7.26 6.34 7.35 6.34L7.63 6.34C7.88 6.34 8.14 6.32 8.4 6.3C8.65 6.28 8.91 6.23 9.15 6.14C9.35 6.09 9.53 6 9.69 5.88C9.85 5.76 9.98 5.63 10.1 5.47C10.22 5.32 10.31 5.16 10.38 4.98C10.42 4.87 10.45 4.75 10.47 4.64C10.48 4.52 10.48 4.4 10.47 4.28C10.46 4.16 10.43 4.05 10.39 3.94C10.35 3.82 10.3 3.72 10.24 3.62C10.08 3.36 9.83 3.15 9.49 2.98C9.73 2.81 9.91 2.6 10.04 2.37C10.17 2.13 10.24 1.88 10.24 1.63C10.24 1.45 10.19 1.26 10.1 1.07C10.01 0.88 9.88 0.71 9.71 0.55C9.54 0.39 9.33 0.26 9.09 0.16C8.84 0.06 8.57 0.01 8.27 0.01C8.1 0.01 7.9 0.04 7.65 0.09C7.41 0.15 7.17 0.22 6.95 0.32C6.72 0.42 6.52 0.53 6.36 0.65C6.2 0.78 6.12 0.92 6.12 1.07C6.12 1.17 6.16 1.25 6.23 1.33C6.3 1.4 6.39 1.44 6.5 1.44ZM7.51 0.98C7.73 0.89 7.97 0.85 8.22 0.85C8.35 0.85 8.49 0.86 8.64 0.9C8.78 0.93 8.91 0.98 9.02 1.05C9.14 1.12 9.23 1.21 9.3 1.32C9.38 1.42 9.41 1.55 9.41 1.7C9.41 1.85 9.37 1.99 9.27 2.1C9.17 2.21 9.06 2.31 8.92 2.39C8.79 2.46 8.65 2.52 8.5 2.57C8.35 2.61 8.23 2.64 8.14 2.64C8.03 2.64 7.93 2.63 7.82 2.63C7.72 2.62 7.61 2.62 7.51 2.62L7.51 0.98ZM7.51 3.52C7.62 3.52 7.74 3.51 7.85 3.5L8.2 3.47C8.39 3.49 8.58 3.52 8.77 3.57C8.95 3.62 9.12 3.7 9.27 3.81C9.4 3.89 9.49 3.99 9.56 4.11C9.62 4.23 9.65 4.36 9.65 4.49C9.65 4.74 9.56 4.94 9.39 5.08C9.22 5.22 9.02 5.32 8.79 5.39C8.56 5.45 8.32 5.49 8.08 5.5C7.84 5.52 7.65 5.52 7.51 5.52L7.51 3.52ZM12.05 5.65C12.27 5.91 12.52 6.11 12.82 6.26C13.12 6.4 13.45 6.48 13.81 6.48C14.05 6.48 14.27 6.44 14.47 6.36C14.67 6.28 14.85 6.18 15.02 6.06C15.18 5.94 15.33 5.79 15.47 5.63C15.61 5.46 15.73 5.3 15.85 5.12C15.88 5.03 15.9 4.96 15.9 4.9C15.9 4.79 15.86 4.69 15.79 4.62C15.71 4.55 15.62 4.51 15.52 4.51C15.4 4.51 15.29 4.55 15.19 4.64C15.11 4.76 15.03 4.88 14.94 5C14.84 5.12 14.74 5.23 14.62 5.33C14.51 5.43 14.39 5.51 14.25 5.57C14.12 5.63 13.97 5.66 13.82 5.66C13.56 5.66 13.33 5.61 13.13 5.5C12.93 5.39 12.76 5.24 12.62 5.06C12.48 4.87 12.38 4.66 12.31 4.43C12.23 4.2 12.2 3.97 12.2 3.73C12.2 3.39 12.25 3.08 12.35 2.81C12.45 2.55 12.59 2.31 12.77 2.1C12.95 1.9 13.15 1.73 13.39 1.58C13.62 1.44 13.87 1.32 14.12 1.22C14.28 1.16 14.4 1.12 14.5 1.08C14.6 1.04 14.69 1.03 14.77 1.03C14.86 1.03 14.94 1.06 15.02 1.14C15.09 1.21 15.17 1.34 15.27 1.52C15.37 1.63 15.49 1.68 15.62 1.68C15.72 1.68 15.82 1.64 15.89 1.57C15.96 1.49 16 1.4 16 1.28C16 1.22 15.99 1.16 15.97 1.1C15.8 0.77 15.62 0.55 15.44 0.41C15.25 0.28 15.04 0.21 14.8 0.21C14.65 0.21 14.49 0.24 14.32 0.28C14.15 0.33 13.96 0.4 13.76 0.48C13.45 0.61 13.18 0.75 12.94 0.89C12.71 1.03 12.49 1.2 12.31 1.38C12.13 1.57 11.97 1.78 11.83 2.02C11.7 2.26 11.58 2.54 11.48 2.86C11.41 3.1 11.37 3.36 11.37 3.65C11.37 4.04 11.43 4.41 11.55 4.76C11.66 5.1 11.83 5.4 12.05 5.65ZM0.59 12.14C0.27 12.14 0 12.41 0 12.73C0 13.06 0.27 13.33 0.59 13.33L7.42 13.33C7.24 12.96 7.12 12.56 7.06 12.14L0.59 12.14ZM0 9.53C0 9.86 0.27 10.12 0.59 10.12L7.2 10.12C7.34 9.69 7.53 9.3 7.78 8.94L0.59 8.94C0.27 8.94 0 9.2 0 9.53Z" fill="currentColor" fill-opacity="1.000000" fill-rule="nonzero"/>
	</g>
</svg>
