<svg width="16.000000" height="16.000000" viewBox="0 0 16 16" fill="none" xmlns="http://www.w3.org/2000/svg" xmlns:xlink="http://www.w3.org/1999/xlink">
	<desc>
			Created with Pixso.
	</desc>
	<defs>
		<clipPath id="clip86_1">
			<rect id="question" width="16.000000" height="16.000000" fill="white" fill-opacity="0"/>
		</clipPath>
	</defs>
	<g clip-path="url(#clip86_1)">
		<path id="path" d="M3.7 12.76L12.04 12.76L12.04 11.37L3.7 11.37L3.7 12.76ZM3.7 10.91L12.04 10.91L12.04 9.52L3.7 9.52L3.7 10.91ZM12.04 0.25L3.7 0.25C1.65 0.25 0 1.91 0 3.96L0 11.84C0 13.88 1.65 15.54 3.7 15.54L12.04 15.54C14.09 15.54 15.75 13.88 15.75 11.84L15.75 3.96C15.75 1.91 14.09 0.25 12.04 0.25ZM14.36 11.37C14.36 12.91 13.11 14.15 11.58 14.15L4.16 14.15C2.63 14.15 1.38 12.91 1.38 11.37L1.38 4.42C1.38 2.89 2.63 1.64 4.16 1.64L11.58 1.64C13.11 1.64 14.36 2.89 14.36 4.42L14.36 11.37ZM6.97 3.94C7.18 3.69 7.5 3.57 7.91 3.57C8.27 3.57 8.55 3.65 8.75 3.84C8.93 4 9.03 4.24 9.03 4.55C9.03 4.76 8.94 4.96 8.78 5.15C8.72 5.21 8.63 5.3 8.49 5.42C8.04 5.79 7.75 6.08 7.64 6.31C7.53 6.5 7.48 6.72 7.48 6.98L7.48 7.15L8.16 7.15L8.16 6.98C8.16 6.77 8.21 6.58 8.32 6.41C8.41 6.27 8.54 6.14 8.71 6C9.09 5.7 9.32 5.5 9.41 5.41C9.61 5.16 9.72 4.86 9.72 4.52C9.72 4.06 9.56 3.7 9.25 3.44C8.93 3.16 8.49 3.03 7.94 3.03C7.34 3.03 6.87 3.2 6.52 3.54C6.19 3.86 6.02 4.29 6.02 4.82L6.7 4.82C6.7 4.45 6.79 4.16 6.97 3.94ZM8.19 7.82C8.09 7.72 7.97 7.69 7.83 7.69C7.67 7.69 7.55 7.72 7.46 7.82C7.36 7.9 7.31 8.01 7.31 8.14C7.31 8.27 7.36 8.37 7.46 8.47C7.55 8.55 7.67 8.6 7.83 8.6C7.96 8.6 8.09 8.55 8.19 8.47C8.28 8.38 8.33 8.27 8.33 8.14C8.33 8.01 8.28 7.9 8.19 7.82Z" fill="currentColor" fill-opacity="1.000000" fill-rule="nonzero"/>
	</g>
</svg>
