<svg width="16.000000" height="16.000000" viewBox="0 0 16 16" fill="none" xmlns="http://www.w3.org/2000/svg" xmlns:xlink="http://www.w3.org/1999/xlink">
	<desc>
			Created with Pixso.
	</desc>
	<defs>
		<clipPath id="clip77_10">
			<rect id="react" width="16.000000" height="16.000000" fill="white" fill-opacity="0"/>
		</clipPath>
	</defs>
	<g clip-path="url(#clip77_10)">
		<path id="path" d="M8 6.57C7.95 6.57 7.9 6.57 7.86 6.58C7.81 6.58 7.76 6.59 7.72 6.6C7.67 6.61 7.63 6.62 7.58 6.63C7.54 6.64 7.49 6.66 7.45 6.68C7.41 6.7 7.36 6.72 7.32 6.74C7.28 6.76 7.24 6.78 7.2 6.81C7.16 6.84 7.13 6.86 7.09 6.89C7.05 6.92 7.02 6.95 6.99 6.99C6.95 7.02 6.92 7.05 6.89 7.09C6.86 7.13 6.84 7.16 6.81 7.2C6.78 7.24 6.76 7.28 6.74 7.32C6.72 7.36 6.7 7.41 6.68 7.45C6.66 7.49 6.64 7.54 6.63 7.58C6.62 7.63 6.61 7.67 6.6 7.72C6.59 7.76 6.58 7.81 6.58 7.85C6.57 7.9 6.57 7.95 6.57 8C6.57 8.04 6.57 8.09 6.58 8.13C6.58 8.18 6.59 8.23 6.6 8.27C6.61 8.32 6.62 8.36 6.63 8.41C6.64 8.45 6.66 8.5 6.68 8.54C6.7 8.58 6.72 8.63 6.74 8.67C6.76 8.71 6.78 8.75 6.81 8.79C6.84 8.83 6.86 8.86 6.89 8.9C6.92 8.94 6.95 8.97 6.99 9C7.02 9.04 7.05 9.07 7.09 9.1C7.13 9.13 7.16 9.15 7.2 9.18C7.24 9.21 7.28 9.23 7.32 9.25C7.36 9.27 7.41 9.29 7.45 9.31C7.49 9.33 7.54 9.35 7.58 9.36C7.63 9.37 7.67 9.38 7.72 9.39C7.76 9.4 7.81 9.41 7.86 9.41C7.9 9.42 7.95 9.42 8 9.42C8.04 9.42 8.09 9.42 8.13 9.41C8.18 9.41 8.23 9.4 8.27 9.39C8.32 9.38 8.36 9.37 8.41 9.36C8.45 9.35 8.5 9.33 8.54 9.31C8.58 9.29 8.63 9.27 8.67 9.25C8.71 9.23 8.75 9.21 8.79 9.18C8.83 9.15 8.86 9.13 8.9 9.1C8.94 9.07 8.97 9.04 9 9C9.04 8.97 9.07 8.94 9.1 8.9C9.13 8.86 9.15 8.83 9.18 8.79C9.21 8.75 9.23 8.71 9.25 8.67C9.27 8.63 9.29 8.58 9.31 8.54C9.33 8.5 9.35 8.45 9.36 8.41C9.37 8.36 9.38 8.32 9.39 8.27C9.4 8.23 9.41 8.18 9.41 8.13C9.42 8.09 9.42 8.04 9.42 8C9.42 7.95 9.42 7.9 9.41 7.85C9.41 7.81 9.4 7.76 9.39 7.72C9.38 7.67 9.37 7.63 9.36 7.58C9.35 7.54 9.33 7.49 9.31 7.45C9.29 7.41 9.27 7.36 9.25 7.32C9.23 7.28 9.21 7.24 9.18 7.2C9.15 7.16 9.13 7.13 9.1 7.09C9.07 7.05 9.04 7.02 9 6.99C8.97 6.95 8.94 6.92 8.9 6.89C8.86 6.86 8.83 6.84 8.79 6.81C8.75 6.78 8.71 6.76 8.67 6.74C8.63 6.72 8.58 6.7 8.54 6.68C8.5 6.66 8.45 6.64 8.41 6.63C8.36 6.62 8.32 6.61 8.27 6.6C8.23 6.59 8.18 6.58 8.13 6.58C8.09 6.57 8.04 6.57 8 6.57ZM4 10.83L3.69 10.75C1.34 10.16 0 9.15 0 7.99C0 6.83 1.34 5.83 3.69 5.23L4 5.15L4.09 5.47C4.33 6.29 4.63 7.08 5 7.85L5.07 7.99L5 8.13C4.63 8.91 4.33 9.7 4.09 10.52L4 10.83ZM3.54 5.96C1.76 6.46 0.66 7.23 0.66 7.99C0.66 8.76 1.76 9.52 3.54 10.02C3.76 9.33 4.02 8.65 4.33 7.99C4.02 7.33 3.76 6.66 3.54 5.96ZM11.99 10.83L11.9 10.52C11.66 9.7 11.36 8.9 10.99 8.13L10.92 7.99L10.99 7.85C11.36 7.08 11.66 6.29 11.9 5.46L11.99 5.15L12.31 5.23C14.65 5.83 16 6.83 16 7.99C16 9.15 14.65 10.16 12.31 10.75L11.99 10.83ZM11.66 7.99C11.98 8.68 12.25 9.37 12.45 10.02C14.23 9.52 15.33 8.76 15.33 7.99C15.33 7.23 14.23 6.46 12.45 5.96C12.23 6.66 11.97 7.33 11.66 7.99ZM3.54 5.96L3.45 5.65C2.79 3.32 2.99 1.66 4 1.08C4.98 0.51 6.57 1.18 8.23 2.89L8.46 3.12L8.23 3.35C7.64 3.97 7.1 4.63 6.62 5.33L6.53 5.46L6.37 5.47C5.52 5.54 4.68 5.67 3.85 5.88L3.54 5.96ZM4.8 1.54C4.62 1.54 4.46 1.58 4.33 1.65C3.67 2.04 3.55 3.36 4.01 5.16C4.72 5 5.44 4.89 6.16 4.82C6.58 4.23 7.04 3.66 7.53 3.13C6.49 2.11 5.5 1.54 4.8 1.54ZM11.19 15.11C10.24 15.11 9.02 14.4 7.76 13.1L7.53 12.86L7.76 12.63C8.35 12.02 8.89 11.36 9.37 10.65L9.46 10.52L9.62 10.51C10.47 10.44 11.31 10.31 12.14 10.11L12.46 10.03L12.54 10.34C13.2 12.66 13 14.33 12 14.91C11.87 14.98 11.74 15.03 11.61 15.06C11.47 15.1 11.33 15.11 11.19 15.11ZM8.46 12.86C9.5 13.87 10.49 14.45 11.19 14.45C11.37 14.45 11.53 14.41 11.66 14.33C12.32 13.95 12.44 12.62 11.98 10.83C11.27 10.99 10.55 11.1 9.83 11.16C9.41 11.76 8.95 12.32 8.46 12.86ZM12.46 5.96L12.14 5.88C11.31 5.67 10.47 5.54 9.62 5.47L9.46 5.46L9.37 5.33C8.89 4.63 8.35 3.97 7.76 3.35L7.53 3.12L7.76 2.89C9.42 1.18 11.01 0.51 12 1.08C13 1.66 13.2 3.32 12.54 5.65L12.46 5.96ZM9.83 4.82C10.59 4.89 11.31 5 11.98 5.16C12.44 3.36 12.32 2.04 11.66 1.65C11 1.27 9.76 1.86 8.46 3.13C8.95 3.66 9.41 4.23 9.83 4.82ZM4.8 15.11C4.66 15.12 4.52 15.1 4.38 15.06C4.25 15.03 4.12 14.98 4 14.91C2.99 14.33 2.79 12.66 3.45 10.34L3.53 10.03L3.85 10.11C4.62 10.3 5.47 10.44 6.37 10.51L6.53 10.52L6.62 10.65C7.1 11.36 7.64 12.02 8.23 12.63L8.46 12.86L8.23 13.1C6.97 14.4 5.75 15.11 4.8 15.11ZM4.01 10.83C3.55 12.62 3.67 13.95 4.33 14.33C4.99 14.71 6.22 14.13 7.53 12.86C7.04 12.32 6.58 11.76 6.16 11.16C5.44 11.1 4.72 10.99 4.01 10.83ZM8 11.25C7.45 11.25 6.88 11.22 6.32 11.18L6.16 11.16L6.07 11.03C5.75 10.58 5.45 10.1 5.17 9.62C4.89 9.14 4.63 8.64 4.39 8.13L4.33 7.99L4.39 7.85C4.63 7.34 4.89 6.85 5.17 6.36C5.45 5.89 5.75 5.41 6.07 4.95L6.16 4.82L6.32 4.81C7.44 4.71 8.55 4.71 9.67 4.81L9.83 4.82L9.92 4.95C10.56 5.87 11.12 6.84 11.6 7.85L11.66 7.99L11.6 8.13C11.12 9.15 10.56 10.12 9.92 11.03L9.83 11.16L9.67 11.18C9.11 11.22 8.54 11.25 8 11.25ZM6.53 10.52C7.52 10.6 8.47 10.6 9.46 10.52C10.01 9.72 10.5 8.87 10.92 7.99C10.5 7.11 10.01 6.27 9.46 5.46C8.48 5.38 7.51 5.38 6.53 5.46C5.98 6.27 5.49 7.11 5.07 7.99C5.49 8.87 5.98 9.72 6.53 10.52Z" fill="currentColor" fill-opacity="1.000000" fill-rule="nonzero"/>
	</g>
</svg>
