<svg width="16.000000" height="16.000000" viewBox="0 0 16 16" fill="none" xmlns="http://www.w3.org/2000/svg" xmlns:xlink="http://www.w3.org/1999/xlink">
	<desc>
			Created with Pixso.
	</desc>
	<defs>
		<clipPath id="clip88_3">
			<rect id="152" width="16.000000" height="16.000000" fill="white" fill-opacity="0"/>
		</clipPath>
	</defs>
	<g clip-path="url(#clip88_3)">
		<path id="path" d="M1.72 3.82L10.1 3.82L10.1 4.19L1.72 4.19L1.72 3.82ZM1.72 5.25L6.64 5.25L6.64 5.62L1.72 5.62L1.72 5.25ZM2.87 8.1L3.25 8.1L3.25 8.47L2.87 8.47L2.87 8.1ZM6.32 8.1L6.7 8.1L6.7 8.47L6.32 8.47L6.32 8.1ZM1.72 8.1L2.1 8.1L2.1 8.47L1.72 8.47L1.72 8.1ZM5.17 8.1L5.54 8.1L5.54 8.47L5.17 8.47L5.17 8.1ZM7.47 8.1L7.85 8.1L7.85 8.47L7.47 8.47L7.47 8.1ZM4.02 8.1L4.39 8.1L4.39 8.47L4.02 8.47L4.02 8.1ZM1.72 6.67L9.37 6.67L9.37 7.04L1.72 7.04L1.72 6.67ZM11.82 4.29L11.82 2.39L0 2.39L0 9.82L1.79 9.82L1.79 11.72L3.89 9.82L4.14 9.82L4.14 11.72L12.05 11.72L14.15 13.62L14.15 11.72L16 11.72L16 4.29L11.82 4.29ZM3.77 9.44L2.17 10.87L2.17 9.44L0.37 9.44L0.37 2.77L11.45 2.77L11.45 9.44L3.77 9.44ZM15.62 11.35L13.82 11.35L13.82 12.77L12.22 11.35L4.54 11.35L4.54 9.79L11.82 9.79L11.82 4.67L15.65 4.67L15.65 11.35L15.62 11.35ZM12.35 6.19L14.87 6.19L14.87 6.57L12.35 6.57L12.35 6.19ZM12.35 7.87L14.87 7.87L14.87 8.25L12.35 8.25L12.35 7.87ZM13.65 9.54L14.02 9.54L14.02 9.92L13.65 9.92L13.65 9.54ZM14.5 9.54L14.87 9.54L14.87 9.92L14.5 9.92L14.5 9.54ZM12.8 9.54L13.17 9.54L13.17 9.92L12.8 9.92L12.8 9.54Z" fill="currentColor" fill-opacity="1.000000" fill-rule="nonzero"/>
	</g>
</svg>
