<svg width="16.000000" height="16.000000" viewBox="0 0 16 16" fill="none" xmlns="http://www.w3.org/2000/svg" xmlns:xlink="http://www.w3.org/1999/xlink">
	<desc>
			Created with Pixso.
	</desc>
	<defs>
		<clipPath id="clip103_63">
			<rect id="stt" width="16.000000" height="16.000000" transform="translate(16.000000 16.000000) rotate(180.000000)" fill="white" fill-opacity="0"/>
		</clipPath>
	</defs>
	<g clip-path="url(#clip103_63)">
		<rect id="rect" x="14.660034" y="11.339844" width="4.426666" height="1.113333" transform="rotate(180 14.660034 11.339844)" fill="currentColor" fill-opacity="1.000000"/>
		<path id="polygon" d="M8.55 5.78L14.66 5.78L14.66 4.67L8.55 4.67L8.55 5.78Z" fill="currentColor" fill-opacity="1.000000" fill-rule="nonzero"/>
		<path id="polygon" d="M12.99 8.56L14.66 8.56L14.66 7.45L11.88 7.45L7.99 7.45L9.11 8.56L12.99 8.56Z" fill="currentColor" fill-opacity="1.000000" fill-rule="nonzero"/>
		<path id="path" d="M8 9.95C7.97 10.11 7.88 10.19 7.72 10.19C7.55 10.19 7.46 10.11 7.44 9.95L7.44 3.83C7.44 3.38 7.25 3.01 6.9 2.74C6.54 2.46 6.14 2.38 5.7 2.49C5 2.7 4.65 3.17 4.66 3.9L4.66 12.16C4.68 12.28 4.64 12.37 4.54 12.43C4.44 12.49 4.34 12.49 4.24 12.43C4.13 12.37 4.09 12.28 4.11 12.16L4.11 6.05C4.11 5.6 3.93 5.24 3.57 4.96C3.21 4.67 2.81 4.59 2.37 4.71C1.66 4.92 1.31 5.39 1.33 6.13L1.33 7.99L2.44 7.99L2.44 6.05C2.42 5.93 2.47 5.84 2.57 5.78C2.67 5.72 2.77 5.72 2.87 5.78C2.97 5.84 3.01 5.93 3 6.05L3 12.16C3 12.61 3.18 12.98 3.54 13.25C3.9 13.53 4.3 13.61 4.74 13.49C5.45 13.29 5.79 12.82 5.78 12.07L5.78 3.83C5.76 3.71 5.8 3.62 5.9 3.56C6 3.5 6.1 3.5 6.2 3.56C6.3 3.62 6.35 3.71 6.33 3.83L6.33 9.94C6.33 10.3 6.45 10.61 6.69 10.88C6.93 11.14 7.23 11.29 7.59 11.32C7.95 11.35 8.27 11.26 8.55 11.04C8.83 10.82 9.01 10.54 9.07 10.18C9.09 10.08 9.1 9.98 9.1 9.87L9.1 8.54L8 7.45L8 9.95Z" fill="currentColor" fill-opacity="1.000000" fill-rule="nonzero"/>
	</g>
</svg>
