<svg width="32.000000" height="32.000000" viewBox="0 0 32 32" fill="none" xmlns="http://www.w3.org/2000/svg" xmlns:xlink="http://www.w3.org/1999/xlink">
	<desc>
			Created with Pixso.
	</desc>
	<defs>
		<clipPath id="clip41_2">
			<rect id="excel" width="6.736843" height="6.620690" transform="translate(0.000000 17.045410)" fill="white" fill-opacity="0"/>
		</clipPath>
		<clipPath id="clip41_18">
			<rect id="transform" width="26.947371" height="26.482759" transform="translate(3.128174 3.000000)" fill="white" fill-opacity="0"/>
		</clipPath>
		<clipPath id="clip41_7">
			<rect id="word" width="6.736843" height="6.620690" transform="translate(25.263184 7.114258)" fill="white" fill-opacity="0"/>
		</clipPath>
		<clipPath id="clip41_11">
			<rect id="画板 2" width="32.000000" height="32.000000" fill="white" fill-opacity="0"/>
		</clipPath>
	</defs>
	<rect id="画板 2" width="32.000000" height="32.000000" fill="#FFFFFF" fill-opacity="1.000000"/>
	<g clip-path="url(#clip41_11)">
		<g clip-path="url(#clip41_2)">
			<path id="path" d="M0.95 17.04C0.66 17.04 0.42 17.28 0.42 17.57L0.42 23.13C0.42 23.42 0.66 23.66 0.95 23.66L5.77 23.66C6.07 23.66 6.31 23.42 6.31 23.13L6.31 19.14L4.32 17.04L0.95 17.04Z" fill="#45B058" fill-opacity="1.000000" fill-rule="nonzero"/>
			<path id="path" d="M2.46 22.62C2.44 22.62 2.42 22.61 2.41 22.6L2.02 22.08L1.62 22.6C1.61 22.61 1.58 22.62 1.56 22.62C1.52 22.62 1.49 22.59 1.49 22.54C1.49 22.53 1.49 22.51 1.5 22.5L1.91 21.98L1.53 21.47C1.52 21.46 1.51 21.45 1.51 21.43C1.51 21.4 1.54 21.35 1.58 21.35C1.62 21.35 1.64 21.36 1.65 21.39L2.02 21.86L2.37 21.39C2.38 21.36 2.41 21.35 2.43 21.35C2.47 21.35 2.51 21.39 2.51 21.43C2.51 21.45 2.5 21.46 2.5 21.47L2.11 21.96L2.52 22.5C2.53 22.51 2.54 22.53 2.54 22.54C2.54 22.59 2.5 22.62 2.46 22.62ZM3.51 22.61L2.94 22.61C2.88 22.61 2.83 22.55 2.83 22.49L2.83 21.43C2.83 21.39 2.86 21.35 2.91 21.35C2.95 21.35 2.98 21.39 2.98 21.43L2.98 22.47L3.51 22.47C3.55 22.47 3.58 22.5 3.58 22.53C3.58 22.58 3.55 22.61 3.51 22.61ZM4.25 22.63C4.06 22.63 3.91 22.56 3.81 22.47C3.78 22.46 3.78 22.44 3.78 22.42C3.78 22.38 3.81 22.34 3.86 22.34C3.87 22.34 3.89 22.35 3.9 22.36C3.98 22.43 4.11 22.49 4.26 22.49C4.48 22.49 4.55 22.37 4.55 22.28C4.55 21.95 3.81 22.13 3.81 21.7C3.81 21.49 3.98 21.34 4.24 21.34C4.39 21.34 4.54 21.4 4.64 21.48C4.66 21.49 4.67 21.51 4.67 21.53C4.67 21.57 4.64 21.61 4.59 21.61C4.58 21.61 4.56 21.6 4.55 21.59C4.46 21.52 4.34 21.49 4.23 21.49C4.07 21.49 3.96 21.56 3.96 21.69C3.96 21.96 4.71 21.8 4.71 22.27C4.71 22.44 4.58 22.63 4.25 22.63Z" fill="#FFFFFF" fill-opacity="1.000000" fill-rule="nonzero"/>
			<path id="path" d="M6.31 19.15L6.31 19.25L4.96 19.25C4.96 19.25 4.29 19.12 4.31 18.55C4.31 18.55 4.33 19.15 4.94 19.15L6.31 19.15Z" fill="#349C42" fill-opacity="1.000000" fill-rule="nonzero"/>
			<path id="path" d="M4.31 17.04L4.31 18.55C4.31 18.72 4.44 19.15 4.96 19.15L6.31 19.15L4.31 17.04Z" fill="#FFFFFF" fill-opacity="1.000000" fill-rule="nonzero"/>
		</g>
		<g clip-path="url(#clip41_18)">
			<path id="path" d="M18.2 6.84L20.38 9.34L10.99 9.34C9.86 9.34 8.98 9.74 8.34 10.39C7.72 11.03 7.36 11.85 7.14 12.64C6.76 14.06 6.77 15.64 6.77 16.52C6.77 16.62 6.78 16.71 6.77 16.79L8.46 16.79L8.46 16.5C8.45 15.6 8.45 14.25 8.77 13.07C8.94 12.42 9.2 11.9 9.55 11.54C9.87 11.22 10.31 11 10.99 11L20.18 11L18.25 12.89L19.44 14.06L22.81 10.75L23.36 10.21L22.86 9.63L19.48 5.77L18.2 6.84ZM14.99 25.08L12.81 22.58L22.22 22.58C23.34 22.58 24.22 22.18 24.86 21.53C25.48 20.9 25.84 20.07 26.06 19.28C26.44 17.86 26.43 16.28 26.43 15.4L26.43 15.13L24.74 15.13L24.74 15.42C24.75 16.32 24.75 17.67 24.43 18.85C24.26 19.5 24 20.02 23.65 20.38C23.33 20.7 22.89 20.93 22.21 20.93L13.02 20.93L14.95 19.03L13.76 17.86L10.39 21.17L9.84 21.71L10.34 22.29L13.71 26.15L14.99 25.08Z" fill="#1E1E1E" fill-opacity="1.000000" fill-rule="nonzero"/>
		</g>
		<g clip-path="url(#clip41_7)">
			<path id="path" d="M29.32 7.66L31.15 9.36L31.15 12.63C31.15 12.64 31.15 12.66 31.15 12.68C31.15 12.7 31.15 12.72 31.14 12.73C31.14 12.75 31.13 12.77 31.13 12.79C31.12 12.8 31.12 12.82 31.11 12.84C31.1 12.85 31.1 12.87 31.09 12.89C31.08 12.9 31.07 12.92 31.06 12.93C31.05 12.95 31.04 12.96 31.03 12.98C31.01 12.99 31 13 30.99 13.02C30.98 13.03 30.96 13.04 30.95 13.05C30.93 13.06 30.92 13.08 30.9 13.09C30.89 13.1 30.87 13.1 30.86 13.11C30.84 13.12 30.82 13.13 30.81 13.14C30.79 13.14 30.77 13.15 30.75 13.15C30.74 13.16 30.72 13.16 30.7 13.17C30.68 13.17 30.66 13.17 30.65 13.18C30.63 13.18 30.61 13.18 30.59 13.18L26.66 13.18C26.64 13.18 26.62 13.18 26.61 13.18C26.59 13.17 26.57 13.17 26.55 13.17C26.53 13.16 26.52 13.16 26.5 13.15C26.48 13.15 26.46 13.14 26.45 13.14C26.43 13.13 26.41 13.12 26.4 13.11C26.38 13.1 26.37 13.1 26.35 13.09C26.33 13.08 26.32 13.06 26.31 13.05C26.29 13.04 26.28 13.03 26.26 13.02C26.25 13 26.24 12.99 26.23 12.98C26.22 12.96 26.21 12.95 26.2 12.93C26.18 12.92 26.18 12.9 26.17 12.89C26.16 12.87 26.15 12.85 26.14 12.84C26.14 12.82 26.13 12.8 26.12 12.79C26.12 12.77 26.11 12.75 26.11 12.73C26.11 12.72 26.1 12.7 26.1 12.68C26.1 12.66 26.1 12.64 26.1 12.63L26.1 8.21C26.1 8.19 26.1 8.18 26.1 8.16C26.1 8.14 26.11 8.12 26.11 8.1C26.11 8.09 26.12 8.07 26.12 8.05C26.13 8.04 26.14 8.02 26.14 8C26.15 7.98 26.16 7.97 26.17 7.95C26.18 7.94 26.18 7.92 26.2 7.91C26.21 7.89 26.22 7.88 26.23 7.86C26.24 7.85 26.25 7.84 26.26 7.82C26.28 7.81 26.29 7.8 26.31 7.79C26.32 7.77 26.33 7.76 26.35 7.75C26.37 7.74 26.38 7.73 26.4 7.73C26.41 7.72 26.43 7.71 26.45 7.7C26.46 7.7 26.48 7.69 26.5 7.68C26.52 7.68 26.53 7.68 26.55 7.67C26.57 7.67 26.59 7.67 26.61 7.66C26.62 7.66 26.64 7.66 26.66 7.66L29.32 7.66ZM30.92 9.57L29.09 7.87L29.09 9.02C29.09 9.04 29.09 9.06 29.09 9.07C29.09 9.09 29.09 9.11 29.1 9.13C29.1 9.14 29.1 9.16 29.11 9.18C29.12 9.2 29.12 9.21 29.13 9.23C29.14 9.25 29.14 9.26 29.15 9.28C29.16 9.3 29.17 9.31 29.18 9.33C29.19 9.34 29.2 9.36 29.21 9.37C29.23 9.38 29.24 9.4 29.25 9.41C29.26 9.42 29.28 9.43 29.29 9.45C29.31 9.46 29.32 9.47 29.34 9.48C29.35 9.49 29.37 9.5 29.38 9.51C29.4 9.51 29.42 9.52 29.43 9.53C29.45 9.54 29.47 9.54 29.48 9.55C29.5 9.55 29.52 9.56 29.54 9.56C29.56 9.56 29.57 9.57 29.59 9.57C29.61 9.57 29.63 9.57 29.65 9.57L30.92 9.57ZM30.22 10.06L29.89 10.06L29.37 11.53L28.65 10.06L28.56 10.06L27.84 11.53L27.33 10.06L27 10.06L27.75 12.19L27.84 12.19L28.61 10.64L29.36 12.19L29.45 12.19L30.22 10.06Z" fill="#0F90E3" fill-opacity="1.000000" fill-rule="nonzero"/>
		</g>
	</g>
</svg>
