<svg width="16.000000" height="16.000000" viewBox="0 0 16 16" fill="none" xmlns="http://www.w3.org/2000/svg" xmlns:xlink="http://www.w3.org/1999/xlink">
	<desc>
			Created with Pixso.
	</desc>
	<defs>
		<clipPath id="clip103_46">
			<rect id="tts" width="16.000000" height="16.000000" fill="white" fill-opacity="0"/>
		</clipPath>
	</defs>
	<g clip-path="url(#clip103_46)">
		<rect id="rect" x="1.339966" y="4.659668" width="4.426666" height="1.113333" fill="currentColor" fill-opacity="1.000000"/>
		<path id="polygon" d="M7.44 10.21L1.33 10.21L1.33 11.32L7.44 11.32L7.44 10.21Z" fill="currentColor" fill-opacity="1.000000" fill-rule="nonzero"/>
		<path id="polygon" d="M3 7.43L1.33 7.43L1.33 8.54L4.12 8.54L8 8.54L6.88 7.43L3 7.43Z" fill="currentColor" fill-opacity="1.000000" fill-rule="nonzero"/>
		<path id="path" d="M7.99 6.04C8.02 5.88 8.11 5.8 8.27 5.8C8.44 5.8 8.53 5.88 8.55 6.04L8.55 12.16C8.55 12.61 8.74 12.98 9.09 13.25C9.45 13.53 9.85 13.61 10.29 13.5C10.99 13.29 11.34 12.82 11.33 12.09L11.33 3.83C11.31 3.71 11.35 3.62 11.46 3.56C11.56 3.5 11.66 3.5 11.76 3.56C11.86 3.62 11.9 3.71 11.88 3.83L11.88 9.93C11.88 10.39 12.06 10.75 12.42 11.03C12.78 11.32 13.18 11.4 13.62 11.27C14.33 11.07 14.68 10.6 14.66 9.86L14.66 8L13.55 8L13.55 9.94C13.57 10.06 13.52 10.15 13.42 10.21C13.32 10.27 13.22 10.27 13.12 10.21C13.02 10.15 12.98 10.06 13 9.94L13 3.83C12.99 3.38 12.81 3.01 12.45 2.74C12.09 2.46 11.69 2.38 11.26 2.5C10.54 2.7 10.2 3.17 10.22 3.91L10.22 12.16C10.23 12.28 10.19 12.37 10.09 12.43C9.99 12.49 9.89 12.49 9.79 12.43C9.69 12.37 9.64 12.28 9.66 12.16L9.66 6.05C9.66 5.69 9.54 5.38 9.3 5.11C9.06 4.85 8.76 4.7 8.4 4.67C8.04 4.64 7.72 4.73 7.44 4.95C7.16 5.17 6.98 5.45 6.92 5.81C6.9 5.91 6.89 6.01 6.89 6.12L6.89 7.45L7.99 8.54L7.99 6.04Z" fill="currentColor" fill-opacity="1.000000" fill-rule="nonzero"/>
	</g>
</svg>
