<svg width="16.000000" height="16.000000" viewBox="0 0 16 16" fill="none" xmlns="http://www.w3.org/2000/svg" xmlns:xlink="http://www.w3.org/1999/xlink">
	<desc>
			Created with Pixso.
	</desc>
	<defs>
		<clipPath id="clip122_38">
			<rect id="folder_type_typescript" width="16.000000" height="16.000000" fill="white" fill-opacity="0"/>
		</clipPath>
	</defs>
	<g clip-path="url(#clip122_38)">
		<path id="path" d="M13.74 2.75L9.09 2.75L8.04 4.85L2.19 4.85L2.19 13.25L14.8 13.25L14.8 2.75L13.74 2.75ZM13.74 4.85L9.64 4.85L10.2 3.79L13.74 3.79L13.74 4.85Z" fill="currentColor" fill-opacity="1.000000" fill-rule="nonzero"/>
		<path id="path" d="M13.62 8.71C13.79 8.75 13.95 8.82 14.1 8.9C14.26 8.99 14.39 9.1 14.51 9.23C14.65 9.37 14.76 9.52 14.86 9.69C14.86 9.7 14.24 10.12 13.86 10.35C13.85 10.36 13.79 10.31 13.73 10.21C13.7 10.16 13.66 10.1 13.61 10.05C13.56 10 13.51 9.96 13.45 9.93C13.39 9.89 13.33 9.86 13.26 9.84C13.2 9.82 13.13 9.81 13.06 9.81C12.63 9.78 12.35 10.01 12.35 10.39C12.35 10.48 12.37 10.57 12.41 10.65C12.51 10.85 12.68 10.97 13.24 11.21C14.26 11.65 14.7 11.94 14.97 12.35C15.05 12.48 15.11 12.62 15.16 12.76C15.2 12.91 15.23 13.05 15.25 13.21C15.26 13.36 15.26 13.51 15.24 13.66C15.22 13.81 15.19 13.95 15.14 14.09C15.1 14.17 15.06 14.25 15.02 14.32C14.98 14.39 14.93 14.46 14.87 14.53C14.82 14.59 14.76 14.66 14.7 14.71C14.64 14.77 14.57 14.83 14.5 14.88C14.43 14.93 14.36 14.97 14.29 15.01C14.21 15.05 14.13 15.08 14.05 15.11C13.97 15.14 13.89 15.17 13.81 15.19C13.73 15.21 13.64 15.22 13.56 15.23C13.19 15.27 12.83 15.26 12.47 15.22C12.19 15.17 11.93 15.08 11.68 14.95C11.43 14.82 11.21 14.66 11.01 14.46C10.87 14.29 10.74 14.11 10.64 13.91C10.68 13.88 10.73 13.85 10.77 13.82C10.84 13.79 11.08 13.65 11.31 13.52L11.72 13.28L11.8 13.41C11.95 13.62 12.13 13.79 12.35 13.93C12.4 13.96 12.45 13.98 12.51 14C12.57 14.02 12.63 14.04 12.69 14.06C12.75 14.07 12.81 14.08 12.87 14.08C12.93 14.09 12.99 14.09 13.05 14.09C13.11 14.08 13.17 14.08 13.23 14.07C13.29 14.05 13.35 14.04 13.41 14.02C13.47 14 13.52 13.98 13.58 13.95C13.63 13.92 13.69 13.89 13.74 13.85C13.76 13.83 13.78 13.8 13.81 13.77C13.83 13.74 13.84 13.71 13.86 13.68C13.88 13.65 13.89 13.61 13.9 13.58C13.91 13.54 13.92 13.51 13.92 13.47C13.92 13.44 13.92 13.4 13.92 13.37C13.92 13.33 13.91 13.29 13.9 13.26C13.89 13.22 13.88 13.19 13.87 13.16C13.85 13.12 13.84 13.09 13.82 13.06C13.7 12.9 13.48 12.77 12.83 12.49C12.58 12.41 12.34 12.29 12.11 12.15C11.89 12.01 11.68 11.85 11.49 11.66C11.3 11.46 11.17 11.22 11.1 10.95C11.04 10.65 11.03 10.34 11.07 10.04C11.09 9.95 11.11 9.87 11.15 9.78C11.18 9.7 11.22 9.62 11.26 9.54C11.3 9.47 11.35 9.39 11.41 9.32C11.46 9.25 11.52 9.19 11.59 9.13C11.65 9.07 11.72 9.01 11.8 8.96C11.87 8.91 11.95 8.87 12.03 8.83C12.11 8.79 12.19 8.76 12.28 8.74C12.36 8.71 12.45 8.69 12.54 8.68C12.9 8.64 13.26 8.65 13.62 8.71ZM10.26 9.31L10.27 9.89L8.41 9.89L8.41 15.18L7.09 15.18L7.09 9.89L5.23 9.89L5.23 9.32C5.23 9.12 5.24 8.93 5.25 8.73C5.26 8.72 6.39 8.72 7.76 8.72L10.26 8.73L10.26 9.31Z" fill="#FFFFFF" fill-opacity="1.000000" fill-rule="nonzero"/>
		<path id="path" d="M13.08 15.5C12.86 15.5 12.64 15.48 12.43 15.45C12.12 15.4 11.84 15.3 11.57 15.16C11.29 15.02 11.05 14.84 10.84 14.62C10.59 14.35 10.32 13.98 10.44 13.79C10.5 13.71 10.57 13.66 10.66 13.62C10.72 13.58 10.96 13.44 11.19 13.31L11.79 12.96L12 13.27C12.13 13.45 12.28 13.6 12.46 13.71C12.54 13.76 12.64 13.8 12.73 13.82C12.83 13.84 12.92 13.85 13.02 13.85C13.12 13.85 13.22 13.83 13.31 13.8C13.41 13.77 13.49 13.73 13.58 13.68C13.61 13.65 13.64 13.61 13.66 13.57C13.68 13.52 13.69 13.48 13.68 13.43C13.69 13.39 13.69 13.35 13.68 13.31C13.66 13.27 13.65 13.23 13.62 13.2C13.36 12.98 13.07 12.81 12.74 12.71C12.47 12.62 12.22 12.5 11.98 12.35C11.74 12.2 11.51 12.03 11.31 11.83C11.1 11.59 10.95 11.32 10.86 11.01C10.8 10.67 10.79 10.33 10.84 9.99C10.86 9.89 10.89 9.8 10.92 9.7C10.96 9.61 11 9.52 11.05 9.43C11.1 9.34 11.16 9.26 11.22 9.18C11.28 9.1 11.35 9.03 11.42 8.96C11.5 8.89 11.57 8.83 11.66 8.77C11.74 8.71 11.83 8.66 11.92 8.62C12.01 8.58 12.1 8.54 12.2 8.51C12.29 8.48 12.39 8.46 12.49 8.44C12.89 8.39 13.28 8.41 13.68 8.48C13.87 8.52 14.05 8.6 14.22 8.7C14.4 8.79 14.55 8.92 14.69 9.06C14.84 9.23 14.98 9.42 15.09 9.62C15.13 9.8 15.14 9.84 13.99 10.56L13.91 10.61L13.81 10.59C13.73 10.57 13.65 10.53 13.53 10.35C13.51 10.3 13.48 10.26 13.44 10.23C13.41 10.19 13.37 10.16 13.33 10.13C13.28 10.11 13.24 10.09 13.19 10.07C13.14 10.06 13.09 10.05 13.04 10.05C12.98 10.04 12.91 10.04 12.85 10.06C12.79 10.07 12.73 10.1 12.68 10.14C12.64 10.17 12.62 10.21 12.61 10.25C12.59 10.3 12.58 10.34 12.59 10.38C12.58 10.44 12.59 10.5 12.62 10.55C12.68 10.67 12.8 10.76 13.33 10.99C14.4 11.45 14.87 11.76 15.17 12.22C15.26 12.37 15.33 12.52 15.38 12.68C15.43 12.84 15.46 13.01 15.48 13.18C15.5 13.35 15.5 13.52 15.47 13.68C15.45 13.85 15.42 14.02 15.36 14.18C15.32 14.27 15.28 14.35 15.23 14.43C15.18 14.51 15.12 14.59 15.06 14.67C15.01 14.74 14.94 14.81 14.87 14.88C14.8 14.94 14.73 15.01 14.65 15.06C14.57 15.12 14.49 15.17 14.41 15.21C14.33 15.26 14.24 15.3 14.15 15.33C14.06 15.37 13.97 15.39 13.88 15.42C13.78 15.44 13.69 15.45 13.59 15.46C13.42 15.49 13.25 15.5 13.08 15.5ZM10.96 13.99C11.03 14.1 11.11 14.2 11.19 14.3C11.37 14.48 11.57 14.63 11.8 14.75C12.02 14.86 12.26 14.94 12.51 14.98C12.85 15.02 13.18 15.03 13.52 14.99C13.59 14.99 13.67 14.98 13.74 14.96C13.81 14.94 13.88 14.92 13.95 14.9C14.02 14.87 14.09 14.84 14.16 14.81C14.23 14.77 14.29 14.73 14.35 14.69C14.41 14.65 14.47 14.6 14.53 14.55C14.58 14.5 14.63 14.45 14.68 14.39C14.73 14.33 14.77 14.27 14.81 14.21C14.85 14.14 14.89 14.08 14.92 14.01C14.96 13.89 14.99 13.76 15.01 13.63C15.02 13.5 15.02 13.36 15.01 13.23C15 13.1 14.97 12.97 14.93 12.85C14.89 12.72 14.84 12.6 14.78 12.48C14.53 12.11 14.12 11.85 13.15 11.43C12.59 11.19 12.34 11.04 12.2 10.76C12.14 10.64 12.11 10.52 12.11 10.39C12.11 10.28 12.13 10.17 12.17 10.07C12.21 9.96 12.27 9.87 12.35 9.8C12.45 9.71 12.56 9.65 12.69 9.61C12.82 9.57 12.95 9.56 13.08 9.57C13.16 9.58 13.24 9.59 13.32 9.61C13.4 9.63 13.48 9.67 13.55 9.71C13.62 9.75 13.69 9.8 13.75 9.85C13.81 9.91 13.86 9.97 13.91 10.04C14.14 9.89 14.38 9.73 14.54 9.63C14.47 9.54 14.41 9.47 14.34 9.39C14.23 9.28 14.11 9.19 13.98 9.11C13.85 9.03 13.71 8.98 13.56 8.94C13.23 8.89 12.91 8.88 12.58 8.91C12.5 8.92 12.42 8.94 12.35 8.96C12.28 8.98 12.21 9.01 12.14 9.04C12.07 9.08 12 9.11 11.93 9.16C11.87 9.2 11.81 9.25 11.75 9.3C11.7 9.35 11.64 9.41 11.6 9.47C11.55 9.53 11.5 9.59 11.47 9.66C11.43 9.72 11.39 9.79 11.37 9.87C11.34 9.94 11.32 10.01 11.3 10.09C11.27 10.35 11.28 10.62 11.32 10.89C11.39 11.12 11.5 11.32 11.66 11.5C11.84 11.68 12.03 11.83 12.25 11.96C12.46 12.09 12.69 12.19 12.92 12.27C13.62 12.57 13.86 12.72 14.01 12.93C14.04 12.97 14.06 13.01 14.08 13.06C14.1 13.1 14.12 13.15 14.13 13.2C14.14 13.25 14.15 13.3 14.15 13.35C14.16 13.4 14.16 13.45 14.15 13.5C14.15 13.55 14.14 13.6 14.12 13.65C14.11 13.7 14.09 13.74 14.07 13.79C14.05 13.83 14.02 13.88 13.99 13.92C13.96 13.96 13.93 14 13.89 14.03C13.83 14.08 13.77 14.11 13.71 14.15C13.64 14.18 13.57 14.21 13.51 14.24C13.44 14.26 13.37 14.28 13.29 14.3C13.22 14.31 13.15 14.32 13.08 14.33C13 14.33 12.93 14.33 12.86 14.32C12.78 14.32 12.71 14.31 12.64 14.29C12.57 14.28 12.5 14.25 12.43 14.23C12.36 14.2 12.29 14.17 12.23 14.14C12 13.99 11.81 13.81 11.65 13.59L11.43 13.72L10.96 13.99ZM8.65 15.42L6.85 15.42L6.85 10.13L5 10.13L5 9.32C5 8.7 5 8.63 5.08 8.56C5.09 8.55 5.1 8.55 5.1 8.54C5.21 8.48 5.55 8.48 7.76 8.48L10.5 8.49L10.51 10.13L8.65 10.13L8.65 15.42ZM7.33 14.94L8.17 14.94L8.17 9.66L10.03 9.66L10.02 8.96L7.76 8.96C6.66 8.96 5.84 8.96 5.48 8.96C5.48 9.05 5.47 9.17 5.47 9.32L5.47 9.66L7.33 9.66L7.33 14.94Z" fill="#007ACC" fill-opacity="1.000000" fill-rule="nonzero"/>
	</g>
</svg>
