<svg width="16.000000" height="16.000000" viewBox="0 0 16 16" fill="none" xmlns="http://www.w3.org/2000/svg" xmlns:xlink="http://www.w3.org/1999/xlink">
	<desc>
			Created with Pixso.
	</desc>
	<defs>
		<clipPath id="clip68_29">
			<rect id="voice" width="16.000000" height="16.000000" fill="white" fill-opacity="0"/>
		</clipPath>
	</defs>
	<g clip-path="url(#clip68_29)">
		<path id="path" d="M8.66 5.66L8.66 10.33C8.66 10.35 8.66 10.37 8.66 10.39C8.65 10.41 8.64 10.44 8.64 10.46C8.63 10.48 8.62 10.5 8.61 10.51C8.59 10.53 8.58 10.55 8.56 10.56C8.55 10.58 8.53 10.59 8.51 10.61C8.5 10.62 8.48 10.63 8.46 10.64C8.44 10.64 8.41 10.65 8.39 10.66C8.37 10.66 8.35 10.66 8.33 10.66L7.66 10.66C7.64 10.66 7.62 10.66 7.6 10.66C7.58 10.65 7.55 10.64 7.53 10.64C7.51 10.63 7.49 10.62 7.48 10.61C7.46 10.59 7.44 10.58 7.43 10.56C7.41 10.55 7.4 10.53 7.38 10.51C7.37 10.5 7.36 10.48 7.35 10.46C7.35 10.44 7.34 10.41 7.33 10.39C7.33 10.37 7.33 10.35 7.33 10.33L7.33 5.66C7.33 5.64 7.33 5.62 7.33 5.6C7.34 5.58 7.35 5.55 7.35 5.53C7.36 5.51 7.37 5.49 7.38 5.48C7.4 5.46 7.41 5.44 7.43 5.43C7.44 5.41 7.46 5.4 7.48 5.38C7.49 5.37 7.51 5.36 7.53 5.35C7.55 5.35 7.58 5.34 7.6 5.33C7.62 5.33 7.64 5.33 7.66 5.33L8.33 5.33C8.35 5.33 8.37 5.33 8.39 5.33C8.41 5.34 8.44 5.35 8.46 5.35C8.48 5.36 8.5 5.37 8.51 5.38C8.53 5.4 8.55 5.41 8.56 5.43C8.58 5.44 8.59 5.46 8.61 5.48C8.62 5.49 8.63 5.51 8.64 5.53C8.64 5.55 8.65 5.58 8.66 5.6C8.66 5.62 8.66 5.64 8.66 5.66ZM11 2L10.33 2C10.31 2 10.28 2 10.26 2C10.24 2.01 10.22 2.01 10.2 2.02C10.18 2.03 10.16 2.04 10.14 2.05C10.12 2.06 10.11 2.08 10.09 2.09C10.08 2.11 10.06 2.12 10.05 2.14C10.04 2.16 10.03 2.18 10.02 2.2C10.01 2.22 10.01 2.24 10 2.26C10 2.28 10 2.31 10 2.33L10 13.66C10 13.68 10 13.71 10 13.73C10.01 13.75 10.01 13.77 10.02 13.79C10.03 13.81 10.04 13.83 10.05 13.85C10.06 13.87 10.08 13.88 10.09 13.9C10.11 13.91 10.12 13.93 10.14 13.94C10.16 13.95 10.18 13.96 10.2 13.97C10.22 13.98 10.24 13.98 10.26 13.99C10.28 13.99 10.31 14 10.33 14L11 14C11.02 14 11.04 13.99 11.06 13.99C11.08 13.98 11.1 13.98 11.12 13.97C11.14 13.96 11.16 13.95 11.18 13.94C11.2 13.93 11.22 13.91 11.23 13.9C11.25 13.88 11.26 13.87 11.27 13.85C11.28 13.83 11.29 13.81 11.3 13.79C11.31 13.77 11.32 13.75 11.32 13.73C11.33 13.71 11.33 13.68 11.33 13.66L11.33 2.33C11.33 2.31 11.33 2.28 11.32 2.26C11.32 2.24 11.31 2.22 11.3 2.2C11.29 2.18 11.28 2.16 11.27 2.14C11.26 2.12 11.25 2.11 11.23 2.09C11.22 2.08 11.2 2.06 11.18 2.05C11.16 2.04 11.14 2.03 11.12 2.02C11.1 2.01 11.08 2.01 11.06 2C11.04 2 11.02 2 11 2ZM13.66 6.66L13 6.66C12.97 6.66 12.95 6.66 12.93 6.67C12.91 6.67 12.89 6.68 12.87 6.69C12.85 6.7 12.83 6.71 12.81 6.72C12.79 6.73 12.77 6.74 12.76 6.76C12.74 6.77 12.73 6.79 12.72 6.81C12.71 6.83 12.7 6.85 12.69 6.87C12.68 6.89 12.67 6.91 12.67 6.93C12.66 6.95 12.66 6.97 12.66 7L12.66 9C12.66 9.02 12.66 9.04 12.67 9.06C12.67 9.08 12.68 9.1 12.69 9.12C12.7 9.14 12.71 9.16 12.72 9.18C12.73 9.2 12.74 9.22 12.76 9.23C12.77 9.25 12.79 9.26 12.81 9.27C12.83 9.28 12.85 9.29 12.87 9.3C12.89 9.31 12.91 9.32 12.93 9.32C12.95 9.33 12.97 9.33 13 9.33L13.66 9.33C13.68 9.33 13.71 9.33 13.73 9.32C13.75 9.32 13.77 9.31 13.79 9.3C13.81 9.29 13.83 9.28 13.85 9.27C13.87 9.26 13.88 9.25 13.9 9.23C13.91 9.22 13.93 9.2 13.94 9.18C13.95 9.16 13.96 9.14 13.97 9.12C13.98 9.1 13.98 9.08 13.99 9.06C13.99 9.04 14 9.02 14 9L14 7C14 6.97 13.99 6.95 13.99 6.93C13.98 6.91 13.98 6.89 13.97 6.87C13.96 6.85 13.95 6.83 13.94 6.81C13.93 6.79 13.91 6.77 13.9 6.76C13.88 6.74 13.87 6.73 13.85 6.72C13.83 6.71 13.81 6.7 13.79 6.69C13.77 6.68 13.75 6.67 13.73 6.67C13.71 6.66 13.68 6.66 13.66 6.66ZM3 7.33L2.33 7.33C2.31 7.33 2.28 7.33 2.26 7.33C2.24 7.34 2.22 7.35 2.2 7.35C2.18 7.36 2.16 7.37 2.14 7.38C2.12 7.4 2.11 7.41 2.09 7.43C2.08 7.44 2.06 7.46 2.05 7.48C2.04 7.49 2.03 7.51 2.02 7.53C2.01 7.55 2.01 7.58 2 7.6C2 7.62 2 7.64 2 7.66L2 8.33C2 8.35 2 8.37 2 8.39C2.01 8.41 2.01 8.44 2.02 8.46C2.03 8.48 2.04 8.5 2.05 8.51C2.06 8.53 2.08 8.55 2.09 8.56C2.11 8.58 2.12 8.59 2.14 8.61C2.16 8.62 2.18 8.63 2.2 8.64C2.22 8.64 2.24 8.65 2.26 8.66C2.28 8.66 2.31 8.66 2.33 8.66L3 8.66C3.02 8.66 3.04 8.66 3.06 8.66C3.08 8.65 3.1 8.64 3.12 8.64C3.14 8.63 3.16 8.62 3.18 8.61C3.2 8.59 3.22 8.58 3.23 8.56C3.25 8.55 3.26 8.53 3.27 8.51C3.28 8.5 3.29 8.48 3.3 8.46C3.31 8.44 3.32 8.41 3.32 8.39C3.33 8.37 3.33 8.35 3.33 8.33L3.33 7.66C3.33 7.64 3.33 7.62 3.32 7.6C3.32 7.58 3.31 7.55 3.3 7.53C3.29 7.51 3.28 7.49 3.27 7.48C3.26 7.46 3.25 7.44 3.23 7.43C3.22 7.41 3.2 7.4 3.18 7.38C3.16 7.37 3.14 7.36 3.12 7.35C3.1 7.35 3.08 7.34 3.06 7.33C3.04 7.33 3.02 7.33 3 7.33ZM5.66 4L5 4C4.97 4 4.95 4 4.93 4C4.91 4.01 4.89 4.01 4.87 4.02C4.85 4.03 4.83 4.04 4.81 4.05C4.79 4.06 4.77 4.08 4.76 4.09C4.74 4.11 4.73 4.12 4.72 4.14C4.71 4.16 4.7 4.18 4.69 4.2C4.68 4.22 4.67 4.24 4.67 4.26C4.66 4.28 4.66 4.31 4.66 4.33L4.66 11.66C4.66 11.68 4.66 11.71 4.67 11.73C4.67 11.75 4.68 11.77 4.69 11.79C4.7 11.81 4.71 11.83 4.72 11.85C4.73 11.87 4.74 11.88 4.76 11.9C4.77 11.91 4.79 11.93 4.81 11.94C4.83 11.95 4.85 11.96 4.87 11.97C4.89 11.98 4.91 11.98 4.93 11.99C4.95 11.99 4.97 12 5 12L5.66 12C5.68 12 5.71 11.99 5.73 11.99C5.75 11.98 5.77 11.98 5.79 11.97C5.81 11.96 5.83 11.95 5.85 11.94C5.87 11.93 5.88 11.91 5.9 11.9C5.91 11.88 5.93 11.87 5.94 11.85C5.95 11.83 5.96 11.81 5.97 11.79C5.98 11.77 5.98 11.75 5.99 11.73C5.99 11.71 6 11.68 6 11.66L6 4.33C6 4.31 5.99 4.28 5.99 4.26C5.98 4.24 5.98 4.22 5.97 4.2C5.96 4.18 5.95 4.16 5.94 4.14C5.93 4.12 5.91 4.11 5.9 4.09C5.88 4.08 5.87 4.06 5.85 4.05C5.83 4.04 5.81 4.03 5.79 4.02C5.77 4.01 5.75 4.01 5.73 4C5.71 4 5.68 4 5.66 4Z" fill="currentColor" fill-opacity="1.000000" fill-rule="nonzero"/>
	</g>
</svg>
