<svg width="16.000000" height="16.000000" viewBox="0 0 16 16" fill="none" xmlns="http://www.w3.org/2000/svg" xmlns:xlink="http://www.w3.org/1999/xlink">
	<desc>
			Created with Pixso.
	</desc>
	<defs>
		<clipPath id="clip72_1">
			<rect id="warning" width="16.000000" height="16.000000" fill="white" fill-opacity="0"/>
		</clipPath>
	</defs>
	<g clip-path="url(#clip72_1)">
		<path id="path" d="M14.6 12.03L9.46 2.83C9.16 2.29 8.6 2 8 2C7.4 2 6.83 2.33 6.53 2.83L1.4 12.03C1.1 12.56 1.1 13.23 1.4 13.76C1.7 14.29 2.26 14.66 2.86 14.66L13.13 14.66C13.73 14.66 14.3 14.33 14.6 13.76C14.9 13.23 14.9 12.56 14.6 12.03ZM13.73 13.29C13.6 13.53 13.36 13.66 13.13 13.66L2.86 13.66C2.63 13.66 2.4 13.53 2.26 13.29C2.13 13.06 2.13 12.76 2.26 12.53L7.4 3.33C7.53 3.13 7.76 3 8 3C8.23 3 8.46 3.13 8.6 3.33L13.73 12.53C13.86 12.76 13.86 13.03 13.73 13.29Z" fill="currentColor" fill-opacity="1.000000" fill-rule="nonzero"/>
		<path id="path" d="M7.33 11.66C7.33 11.71 7.33 11.75 7.34 11.79C7.35 11.83 7.36 11.88 7.38 11.92C7.4 11.96 7.42 12 7.44 12.03C7.47 12.07 7.49 12.1 7.52 12.13C7.55 12.16 7.59 12.19 7.62 12.22C7.66 12.24 7.7 12.26 7.74 12.28C7.78 12.29 7.82 12.31 7.86 12.32C7.91 12.32 7.95 12.33 8 12.33C8.04 12.33 8.08 12.32 8.13 12.32C8.17 12.31 8.21 12.29 8.25 12.28C8.29 12.26 8.33 12.24 8.37 12.22C8.4 12.19 8.44 12.16 8.47 12.13C8.5 12.1 8.53 12.07 8.55 12.03C8.57 12 8.59 11.96 8.61 11.92C8.63 11.88 8.64 11.83 8.65 11.79C8.66 11.75 8.66 11.71 8.66 11.66C8.66 11.62 8.66 11.57 8.65 11.53C8.64 11.49 8.63 11.45 8.61 11.41C8.59 11.37 8.57 11.33 8.55 11.29C8.53 11.25 8.5 11.22 8.47 11.19C8.44 11.16 8.4 11.13 8.37 11.11C8.33 11.08 8.29 11.06 8.25 11.05C8.21 11.03 8.17 11.02 8.13 11.01C8.08 11 8.04 11 8 11C7.95 11 7.91 11 7.86 11.01C7.82 11.02 7.78 11.03 7.74 11.05C7.7 11.06 7.66 11.08 7.62 11.11C7.59 11.13 7.55 11.16 7.52 11.19C7.49 11.22 7.47 11.25 7.44 11.29C7.42 11.33 7.4 11.37 7.38 11.41C7.36 11.45 7.35 11.49 7.34 11.53C7.33 11.57 7.33 11.62 7.33 11.66Z" fill="currentColor" fill-opacity="1.000000" fill-rule="nonzero"/>
		<path id="path" d="M8 9.83C8.26 9.83 8.5 9.6 8.5 9.33L8.5 6.33C8.5 6.06 8.26 5.83 8 5.83C7.73 5.83 7.5 6.06 7.5 6.33L7.5 9.33C7.5 9.6 7.73 9.83 8 9.83Z" fill="currentColor" fill-opacity="1.000000" fill-rule="nonzero"/>
	</g>
</svg>
