<svg width="16.000000" height="16.000000" viewBox="0 0 16 16" fill="none" xmlns="http://www.w3.org/2000/svg" xmlns:xlink="http://www.w3.org/1999/xlink">
	<desc>
			Created with Pixso.
	</desc>
	<defs>
		<clipPath id="clip68_20">
			<rect id="单词" width="16.000000" height="16.000000" fill="white" fill-opacity="0"/>
		</clipPath>
	</defs>
	<g clip-path="url(#clip68_20)">
		<path id="path" d="M12.02 1.9C11.78 0.81 10.81 0 9.65 0L6.38 0C5.23 0 4.26 0.81 4.02 1.9C2.41 2.17 1.19 3.56 1.19 5.24L1.19 12.6C1.19 14.47 2.71 16 4.59 16L11.45 16C13.32 16 14.85 14.47 14.85 12.6L14.85 5.24C14.85 3.56 13.62 2.17 12.02 1.9ZM6.38 1.1L9.65 1.1C10.17 1.1 10.62 1.41 10.83 1.84L5.2 1.84C5.42 1.41 5.86 1.1 6.38 1.1ZM10.96 2.95C10.91 3.63 10.35 4.17 9.65 4.17L6.38 4.17C5.69 4.17 5.13 3.63 5.07 2.95L10.96 2.95ZM13.74 12.6C13.74 13.86 12.71 14.89 11.45 14.89L4.59 14.89C3.32 14.89 2.3 13.86 2.3 12.6L2.3 5.24C2.3 4.19 3 3.31 3.97 3.04C4.06 4.29 5.11 5.27 6.38 5.27L9.65 5.27C10.93 5.27 11.97 4.29 12.07 3.04C13.03 3.31 13.74 4.19 13.74 5.24L13.74 12.6ZM9.74 9.92C9.65 10.47 9.56 11.03 9.47 11.6L9.44 11.6C9.32 11.03 9.2 10.47 9.08 9.92L8.4 7.2L7.68 7.2L7 9.92C6.88 10.48 6.76 11.04 6.65 11.6L6.62 11.6L6.34 9.92L5.85 7.2L5 7.2L6.07 12.43L7.07 12.43L7.75 9.53C7.84 9.11 7.93 8.72 8 8.32L8.03 8.32C8.1 8.72 8.18 9.11 8.27 9.53L8.98 12.43L9.99 12.43L11.02 7.2L10.24 7.2L9.74 9.92Z" fill="currentColor" fill-opacity="1.000000" fill-rule="nonzero"/>
	</g>
</svg>
